v 0 2.142495227e-22 -100
vn -1.613853556e-06 -6.123234263e-17 -1
v 72.36070251 -52.57249832 -44.72200012
vn 0.7236068845 -0.5257267356 -0.4472185671
v -27.63879776 -85.06489563 -44.72200012
vn -0.276388675 -0.850649178 -0.4472194612
v -89.44259644 2.017123393e-22 -44.72159958
vn -0.8944265246 -2.160039729e-17 -0.4472149014
v -27.63879776 85.06489563 -44.72200012
vn -0.276388675 0.850649178 -0.4472194612
v 72.36070251 52.57249832 -44.72200012
vn 0.7236068845 0.5257267356 -0.4472185671
v 27.63879776 -85.06489563 44.72200012
vn 0.276388675 -0.850649178 0.4472194612
v -72.36070251 -52.57249832 44.72200012
vn -0.7236068845 -0.5257267356 0.4472185671
v -72.36070251 52.57249832 44.72200012
vn -0.7236068845 0.5257267356 0.4472185671
v 27.63879776 85.06489563 44.72200012
vn 0.276388675 0.850649178 0.4472194612
v 89.44259644 -2.017123393e-22 44.72159958
vn 0.8944265246 1.581677857e-17 0.4472149014
v 0 -2.142495227e-22 100
vn 1.613853556e-06 6.41241859e-17 1
v -23.28219986 -71.65629578 -65.75189209
vn -0.2299536467 -0.7077353001 -0.6680060625
v -16.24560165 -49.99950027 -85.06539917
vn -0.1624577045 -0.4999961853 -0.8506534696
v -7.760700226 -23.88529968 -96.79499817
vn -0.08179038018 -0.2517226636 -0.9643371105
v 20.31809998 -14.76179981 -96.79499817
vn 0.2141291499 -0.1555723995 -0.9643370509
v 42.53230286 -30.90110016 -85.06539917
vn 0.4253237247 -0.3090128005 -0.8506531715
v 60.95470428 -44.28560257 -65.75189209
vn 0.6020371914 -0.4374021292 -0.66800493
v 53.19409943 -68.17119598 -50.23019791
vn 0.5202511549 -0.6891260147 -0.5044245124
v 26.28689957 -80.90119934 -52.57379913
vn 0.2628688514 -0.8090125918 -0.5257362723
v -2.963900089 -86.418396 -50.23019791
vn -0.01582521014 -0.8633101583 -0.5044255853
v 81.27289581 29.5237999 -50.23009872
vn 0.8161674142 0.2818289697 -0.5044236183
v 85.06480408 6.879072828e-23 -52.57359314
vn 0.8506492972 1.397631877e-07 -0.5257335305
v 81.27289581 -29.5237999 -50.23009872
vn 0.8161676526 -0.2818292677 -0.5044230819
v 20.31809998 14.76179981 -96.79499817
vn 0.2141293734 0.1555727124 -0.9643369317
v 42.53230286 30.90110016 -85.06539917
vn 0.4253228903 0.3090126514 -0.8506536484
v 60.95470428 44.28560257 -65.75189209
vn 0.6020368338 0.4374021292 -0.6680052876
v -75.34420013 -5.31913737e-22 -65.75150299
vn -0.7441591024 -5.31909791e-17 -0.6680024266
v -52.57300568 1.906053166e-22 -85.06519318
vn -0.525728941 -8.149322639e-07 -0.8506521583
v -25.11470032 -2.142429341e-22 -96.79489899
vn -0.2646779418 -1.072118721e-06 -0.9643368721
v -48.39710236 -71.65650177 -50.23019791
vn -0.4946344495 -0.7077377439 -0.5044245124
v -68.81890106 -49.99969864 -52.57359314
vn -0.6881898046 -0.4999986887 -0.5257338881
v -83.10509491 -23.88529968 -50.22990417
vn -0.8259504437 -0.251724273 -0.5044211745
v -23.28219986 71.65629578 -65.75189209
vn -0.2299540639 0.7077352405 -0.6680060029
v -16.24560165 49.99950027 -85.06539917
vn -0.1624568403 0.4999965429 -0.85065341
v -7.760700226 23.88529968 -96.79499817
vn -0.08178962767 0.2517224252 -0.9643372297
v -83.10509491 23.88529968 -50.22990417
vn -0.8259503245 0.2517243326 -0.5044214129
v -68.81890106 49.99969864 -52.57359314
vn -0.6881898046 0.4999983013 -0.5257342458
v -48.39710236 71.65650177 -50.23019791
vn -0.4946343899 0.7077374458 -0.5044249296
v -2.963900089 86.418396 -50.23019791
vn -0.01582533494 0.8633103967 -0.504425168
v 26.28689957 80.90119934 -52.57379913
vn 0.2628688514 0.8090125918 -0.5257362127
v 53.19409943 68.17119598 -50.23019791
vn 0.5202507973 0.6891258955 -0.5044250488
v 95.66260529 -14.76179981 25.11489868
vn 0.9582902193 -0.1555741727 0.2397427112
v 95.10580444 -30.90130043 -1.571137346e-23
vn 0.9510573149 -0.3090145588 1.539278713e-07
v 86.0697937 -44.28580475 -25.11509895
vn 0.8667184114 -0.4374032915 -0.239744693
v 86.0697937 44.28580475 -25.11509895
vn 0.8667184114 0.4374039173 -0.2397437543
v 95.10580444 30.90130043 1.571137346e-23
vn 0.9510571361 0.3090150058 4.669032307e-07
v 95.66260529 14.76179981 25.11489868
vn 0.9582902789 0.1555737704 0.2397426665
v 15.52149963 -95.54220581 25.11520195
vn 0.1481656879 -0.9594632387 0.2397441864
v 0 -100 -2.142495227e-22
vn 1.183601411e-10 -1 7.204589611e-17
v -15.52149963 -95.54220581 -25.11520195
vn -0.1481658369 -0.9594631195 -0.239744395
v 68.71590424 -68.17150116 -25.11520195
vn 0.6838304996 -0.6891282797 -0.239745751
v 58.7786026 -80.90170288 3.797144733e-22
vn 0.5877856612 -0.8090167046 -1.393591873e-07
v 43.60069656 -86.41880035 25.11520195
vn 0.4440862238 -0.8633133769 0.2397446334
v -86.0697937 -44.28580475 25.11509895
vn -0.8667182326 -0.4374044836 0.2397432625
v -95.10580444 -30.90130043 -1.571137346e-23
vn -0.9510568976 -0.3090158999 -8.159586287e-07
v -95.66260529 -14.76179981 -25.11489868
vn -0.9582902193 -0.1555744112 -0.2397425175
v -43.60069656 -86.41880035 -25.11520195
vn -0.444085598 -0.8633136153 -0.2397447973
v -58.7786026 -80.90170288 3.797144733e-22
vn -0.5877860785 -0.8090164065 3.29125811e-07
v -68.71590424 -68.17150116 25.11520195
vn -0.6838310361 -0.6891282201 0.2397445589
v -68.71590424 68.17150116 25.11520195
vn -0.6838310361 0.6891282201 0.2397445738
v -58.7786026 80.90170288 -3.797144733e-22
vn -0.5877863765 0.8090161681 1.049582679e-07
v -43.60069656 86.41880035 -25.11520195
vn -0.4440856874 0.8633135557 -0.239745006
v -95.66260529 14.76179981 -25.11489868
vn -0.9582902193 0.1555744112 -0.2397425175
v -95.10580444 30.90130043 1.571137346e-23
vn -0.9510568976 0.3090158999 -8.159594245e-07
v -86.0697937 44.28580475 25.11509895
vn -0.8667183518 0.4374042153 0.2397432923
v 43.60069656 86.41880035 25.11520195
vn 0.4440863431 0.8633132577 0.2397446632
v 58.7786026 80.90170288 -3.797144733e-22
vn 0.5877864361 0.8090161681 5.021945526e-08
v 68.71590424 68.17150116 -25.11520195
vn 0.6838312149 0.6891279817 -0.2397445738
v -15.52149963 95.54220581 -25.11520195
vn -0.1481654793 0.9594630599 -0.2397449911
v 0 100 2.142495227e-22
vn 1.119924605e-06 1 -4.502097894e-08
v 15.52149963 95.54220581 25.11520195
vn 0.1481656879 0.9594632387 0.2397441864
v 83.10509491 -23.88529968 50.22990417
vn 0.8259503841 -0.2517246306 0.5044211149
v 68.81890106 -49.99969864 52.57359314
vn 0.6881898046 -0.4999988377 0.5257337093
v 48.39710236 -71.65650177 50.23019791
vn 0.4946350157 -0.707737267 0.504424572
v 2.963900089 -86.418396 50.23019791
vn 0.01582484506 -0.8633103967 0.504425168
v -26.28689957 -80.90119934 52.57379913
vn -0.2628692091 -0.809012711 0.5257358551
v -53.19409943 -68.17119598 50.23019791
vn -0.5202505589 -0.6891262531 0.5044247508
v -81.27289581 -29.5237999 50.23009872
vn -0.8161670566 -0.2818292379 0.5044240355
v -85.06480408 -6.879072828e-23 52.57359314
vn -0.8506489396 2.748289489e-07 0.5257341266
v -81.27289581 29.5237999 50.23009872
vn -0.8161674142 0.2818289697 0.5044236183
v -53.19409943 68.17119598 50.23019791
vn -0.5202506185 0.6891261339 0.5044249296
v -26.28689957 80.90119934 52.57379913
vn -0.2628688216 0.8090125918 0.5257362723
v 2.963900089 86.418396 50.23019791
vn 0.01582484506 0.8633103967 0.504425168
v 48.39710236 71.65650177 50.23019791
vn 0.4946347475 0.707737267 0.5044248104
v 68.81890106 49.99969864 52.57359314
vn 0.6881893873 0.4999983609 0.5257347226
v 83.10509491 23.88529968 50.22990417
vn 0.8259502053 0.2517240047 0.5044217706
v 7.760700226 -23.88529968 96.79499817
vn 0.08179011196 -0.2517220974 0.9643372893
v 16.24560165 -49.99950027 85.06539917
vn 0.1624567062 -0.4999962151 0.8506536484
v 23.28219986 -71.65629578 65.75189209
vn 0.2299535125 -0.7077353597 0.6680060029
v 75.34420013 5.31913737e-22 65.75150299
vn 0.7441590428 4.704715465e-17 0.6680024862
v 52.57300568 -1.906053166e-22 85.06519318
vn 0.5257285237 5.569204571e-17 0.8506523967
v 25.11470032 2.142429341e-22 96.79489899
vn 0.2646777332 6.519243342e-17 0.9643369317
v -20.31809998 -14.76179981 96.79499817
vn -0.214128539 -0.1555725187 0.9643371701
v -42.53230286 -30.90110016 85.06539917
vn -0.4253229499 -0.3090132177 0.85065341
v -60.95470428 -44.28560257 65.75189209
vn -0.602036953 -0.43740201 0.668005228
v -20.31809998 14.76179981 96.79499817
vn -0.214128539 0.1555725187 0.9643371701
v -42.53230286 30.90110016 85.06539917
vn -0.4253229499 0.3090132177 0.85065341
v -60.95470428 44.28560257 65.75189209
vn -0.602036953 0.43740201 0.668005228
v 7.760700226 23.88529968 96.79499817
vn 0.08179011196 0.2517220974 0.9643372893
v 16.24560165 49.99950027 85.06539917
vn 0.1624567062 0.4999962151 0.8506536484
v 23.28219986 71.65629578 65.75189209
vn 0.2299535125 0.7077353597 0.6680060029
v 36.17999649 26.28630066 89.44290161
vn 0.3746038675 0.2721662223 0.8863393664
v 63.8194046 26.28639984 72.36100006
vn 0.6252321005 0.272167325 0.7314436436
v 44.72089767 52.57279968 72.36120605
vn 0.4520514607 0.5105266571 0.7314451337
v -13.81970024 42.5318985 89.44299316
vn -0.1430881619 0.4403726161 0.8863395452
v -5.278999805 68.8184967 72.36120605
vn -0.06564135849 0.6787325144 0.7314460874
v -36.18040085 58.77780151 72.36120605
vn -0.3458504677 0.5876856446 0.7314458489
v -44.72100067 1.183864623e-23 89.44290161
vn -0.4630363882 5.781245372e-17 0.8863392472
v -67.08169556 16.24570084 72.36109924
vn -0.6657987833 0.1473135948 0.7314442396
v -67.08169556 -16.24570084 72.36109924
vn -0.6657987833 -0.1473135948 0.7314442396
v -13.81970024 -42.5318985 89.44299316
vn -0.1430881619 -0.4403726161 0.8863395452
v -36.18040085 -58.77780151 72.36120605
vn -0.3458504677 -0.5876856446 0.7314458489
v -5.278999805 -68.8184967 72.36120605
vn -0.06564135849 -0.6787325144 0.7314460874
v 36.17999649 -26.28630066 89.44290161
vn 0.3746038675 -0.2721662223 0.8863393664
v 44.72089767 -52.57279968 72.36120605
vn 0.4520514607 -0.5105266571 0.7314451337
v 63.8194046 -26.28639984 72.36100006
vn 0.6252321005 -0.272167325 0.7314436436
v 86.18040466 42.53219986 27.63960075
vn 0.8567552567 0.4403748512 0.2684034705
v 80.90190125 58.77819824 6.558145784e-22
vn 0.8088908195 0.5876901746 0.01777328737
v 67.08209991 68.81890106 27.63969803
vn 0.6835754514 0.6787367463 0.2684045434
v -13.81989956 95.10549927 27.63969803
vn -0.154073149 0.950905025 0.2684047222
v -30.90159988 95.10570526 -2.405555726e-22
vn -0.3089678288 0.9509063959 0.01777271554
v -44.72149658 85.06489563 27.63969803
vn -0.4342844784 0.8598579764 0.2684049606
v -94.72129822 16.24580002 27.63960075
vn -0.9519757628 0.1473136395 0.268404305
v -100 -5.317349095e-28 9.999999747e-05
vn -0.9998420477 7.716161043e-09 0.01777438074
v -94.72129822 -16.24580002 27.63969803
vn -0.9519757628 -0.1473133415 0.268404305
v -44.72159958 -85.06480408 27.63969803
vn -0.4342841804 -0.8598583341 0.268404305
v -30.90169907 -95.10559845 -9.999999747e-05
vn -0.3089681864 -0.9509062767 0.01777333766
v -13.81989956 -95.10549927 27.63969803
vn -0.1540746987 -0.950905025 0.2684037685
v 67.08200073 -68.81900024 27.63960075
vn 0.6835752726 -0.6787369251 0.2684046328
v 80.90190125 -58.77829742 -0.0001999999949
vn 0.8088905215 -0.5876905918 0.01777301356
v 86.18040466 -42.53230286 27.63940048
vn 0.856754899 -0.4403756261 0.2684034109
v 30.90169907 95.10559845 -4.764996537e-22
vn 0.3089681864 0.9509062767 -0.01777330413
v 44.72159958 85.06480408 -27.63979912
vn 0.4342845678 0.8598580956 -0.2684045434
v 13.81989956 95.10549927 -27.63979912
vn 0.1540742368 0.9509050846 -0.268404007
v -80.90180206 58.77829742 8.83749197e-23
vn -0.8088905215 0.5876905918 -0.01777341217
v -67.08190155 68.81909943 -27.63969803
vn -0.6835749745 0.6787372828 -0.268404454
v -86.18029785 42.53240204 -27.63960075
vn -0.8567547798 0.4403760135 -0.2684031129
v -80.90180206 -58.77829742 -8.83749197e-23
vn -0.8088905215 -0.5876905918 -0.01777341217
v -86.18029785 -42.53240204 -27.63960075
vn -0.8567547798 -0.4403760135 -0.2684031129
v -67.08190155 -68.81909943 -27.63969803
vn -0.6835749745 -0.6787372828 -0.268404454
v 30.90169907 -95.10559845 4.764996537e-22
vn 0.3089681864 -0.9509062767 -0.01777330413
v 13.81989956 -95.10549927 -27.63979912
vn 0.1540742368 -0.9509050846 -0.268404007
v 44.72159958 -85.06480408 -27.63979912
vn 0.4342845678 -0.8598580956 -0.2684045434
v 100 0 0
vn 0.9998420477 -1.170765714e-17 -0.01777439751
v 94.72129822 -16.24580002 -27.63960075
vn 0.9519758821 -0.1473132074 -0.2684040666
v 94.72129822 16.24580002 -27.63960075
vn 0.9519758821 0.1473132074 -0.2684040666
v 36.18030167 58.7779007 -72.36120605
vn 0.3458503187 0.5876860619 -0.7314455509
v 13.81970024 42.53210068 -89.44290161
vn 0.1430877596 0.4403730035 -0.8863393664
v 5.27889967 68.81859589 -72.36109924
vn 0.06564048678 0.6787332296 -0.7314455509
v -44.72109985 52.5727005 -72.36120605
vn -0.452052176 0.5105263591 -0.7314449549
v -36.18009949 26.28630066 -89.44290161
vn -0.374604553 0.2721658051 -0.8863391876
v -63.81949997 26.28630066 -72.36090088
vn -0.6252331734 0.2721663713 -0.7314430475
v -63.81949997 -26.28639984 -72.36090088
vn -0.6252322197 -0.2721672952 -0.7314435244
v -36.18009949 -26.28639984 -89.44281006
vn -0.3746047318 -0.2721669674 -0.8863387704
v -44.72109985 -52.57289886 -72.36100006
vn -0.4520517588 -0.5105265975 -0.7314450145
v 67.08169556 16.24570084 -72.36109924
vn 0.6657986045 0.1473131925 -0.731444478
v 67.08179474 -16.24580002 -72.36100006
vn 0.6657987833 -0.1473136246 -0.7314442396
v 44.72109985 -9.999999747e-05 -89.44281006
vn 0.4630367756 -2.603689495e-07 -0.8863390684
v 5.278999805 -68.8184967 -72.36120605
vn 0.06564110518 -0.67873317 -0.7314454913
v 13.81989956 -42.53210068 -89.44290161
vn 0.1430884153 -0.4403727949 -0.8863393664
v 36.18050003 -58.7779007 -72.36109924
vn 0.3458513319 -0.5876861811 -0.7314450145
# mm_gid 0
g mmGroup0
f 1//1 16//16 15//15 
f 2//2 18//18 24//24 
f 1//1 15//15 30//30 
f 1//1 30//30 36//36 
f 1//1 36//36 25//25 
f 2//2 24//24 45//45 
f 3//3 21//21 51//51 
f 4//4 33//33 57//57 
f 5//5 39//39 63//63 
f 6//6 42//42 69//69 
f 2//2 45//45 52//52 
f 3//3 51//51 58//58 
f 4//4 57//57 64//64 
f 5//5 63//63 70//70 
f 6//6 69//69 46//46 
f 7//7 75//75 90//90 
f 8//8 78//78 96//96 
f 9//9 81//81 99//99 
f 10//10 84//84 102//102 
f 11//11 87//87 91//91 
f 93//93 100//100 12//12 
f 92//92 103//103 93//93 
f 91//91 104//104 92//92 
f 93//93 103//103 100//100 
f 103//103 101//101 100//100 
f 92//92 104//104 103//103 
f 104//104 105//105 103//103 
f 103//103 105//105 101//101 
f 105//105 102//102 101//101 
f 91//91 87//87 104//104 
f 87//87 86//86 104//104 
f 104//104 86//86 105//105 
f 86//86 85//85 105//105 
f 105//105 85//85 102//102 
f 85//85 10//10 102//102 
f 100//100 97//97 12//12 
f 101//101 106//106 100//100 
f 102//102 107//107 101//101 
f 100//100 106//106 97//97 
f 106//106 98//98 97//97 
f 101//101 107//107 106//106 
f 107//107 108//108 106//106 
f 106//106 108//108 98//98 
f 108//108 99//99 98//98 
f 102//102 84//84 107//107 
f 84//84 83//83 107//107 
f 107//107 83//83 108//108 
f 83//83 82//82 108//108 
f 108//108 82//82 99//99 
f 82//82 9//9 99//99 
f 97//97 94//94 12//12 
f 98//98 109//109 97//97 
f 99//99 110//110 98//98 
f 97//97 109//109 94//94 
f 109//109 95//95 94//94 
f 98//98 110//110 109//109 
f 110//110 111//111 109//109 
f 109//109 111//111 95//95 
f 111//111 96//96 95//95 
f 99//99 81//81 110//110 
f 81//81 80//80 110//110 
f 110//110 80//80 111//111 
f 80//80 79//79 111//111 
f 111//111 79//79 96//96 
f 79//79 8//8 96//96 
f 94//94 88//88 12//12 
f 95//95 112//112 94//94 
f 96//96 113//113 95//95 
f 94//94 112//112 88//88 
f 112//112 89//89 88//88 
f 95//95 113//113 112//112 
f 113//113 114//114 112//112 
f 112//112 114//114 89//89 
f 114//114 90//90 89//89 
f 96//96 78//78 113//113 
f 78//78 77//77 113//113 
f 113//113 77//77 114//114 
f 77//77 76//76 114//114 
f 114//114 76//76 90//90 
f 76//76 7//7 90//90 
f 88//88 93//93 12//12 
f 89//89 115//115 88//88 
f 90//90 116//116 89//89 
f 88//88 115//115 93//93 
f 115//115 92//92 93//93 
f 89//89 116//116 115//115 
f 116//116 117//117 115//115 
f 115//115 117//117 92//92 
f 117//117 91//91 92//92 
f 90//90 75//75 116//116 
f 75//75 74//74 116//116 
f 116//116 74//74 117//117 
f 74//74 73//73 117//117 
f 117//117 73//73 91//91 
f 73//73 11//11 91//91 
f 48//48 87//87 11//11 
f 47//47 118//118 48//48 
f 46//46 119//119 47//47 
f 48//48 118//118 87//87 
f 118//118 86//86 87//87 
f 47//47 119//119 118//118 
f 119//119 120//120 118//118 
f 118//118 120//120 86//86 
f 120//120 85//85 86//86 
f 46//46 69//69 119//119 
f 69//69 68//68 119//119 
f 119//119 68//68 120//120 
f 68//68 67//67 120//120 
f 120//120 67//67 85//85 
f 67//67 10//10 85//85 
f 72//72 84//84 10//10 
f 71//71 121//121 72//72 
f 70//70 122//122 71//71 
f 72//72 121//121 84//84 
f 121//121 83//83 84//84 
f 71//71 122//122 121//121 
f 122//122 123//123 121//121 
f 121//121 123//123 83//83 
f 123//123 82//82 83//83 
f 70//70 63//63 122//122 
f 63//63 62//62 122//122 
f 122//122 62//62 123//123 
f 62//62 61//61 123//123 
f 123//123 61//61 82//82 
f 61//61 9//9 82//82 
f 66//66 81//81 9//9 
f 65//65 124//124 66//66 
f 64//64 125//125 65//65 
f 66//66 124//124 81//81 
f 124//124 80//80 81//81 
f 65//65 125//125 124//124 
f 125//125 126//126 124//124 
f 124//124 126//126 80//80 
f 126//126 79//79 80//80 
f 64//64 57//57 125//125 
f 57//57 56//56 125//125 
f 125//125 56//56 126//126 
f 56//56 55//55 126//126 
f 126//126 55//55 79//79 
f 55//55 8//8 79//79 
f 60//60 78//78 8//8 
f 59//59 127//127 60//60 
f 58//58 128//128 59//59 
f 60//60 127//127 78//78 
f 127//127 77//77 78//78 
f 59//59 128//128 127//127 
f 128//128 129//129 127//127 
f 127//127 129//129 77//77 
f 129//129 76//76 77//77 
f 58//58 51//51 128//128 
f 51//51 50//50 128//128 
f 128//128 50//50 129//129 
f 50//50 49//49 129//129 
f 129//129 49//49 76//76 
f 49//49 7//7 76//76 
f 54//54 75//75 7//7 
f 53//53 130//130 54//54 
f 52//52 131//131 53//53 
f 54//54 130//130 75//75 
f 130//130 74//74 75//75 
f 53//53 131//131 130//130 
f 131//131 132//132 130//130 
f 130//130 132//132 74//74 
f 132//132 73//73 74//74 
f 52//52 45//45 131//131 
f 45//45 44//44 131//131 
f 131//131 44//44 132//132 
f 44//44 43//43 132//132 
f 132//132 43//43 73//73 
f 43//43 11//11 73//73 
f 67//67 72//72 10//10 
f 68//68 133//133 67//67 
f 69//69 134//134 68//68 
f 67//67 133//133 72//72 
f 133//133 71//71 72//72 
f 68//68 134//134 133//133 
f 134//134 135//135 133//133 
f 133//133 135//135 71//71 
f 135//135 70//70 71//71 
f 69//69 42//42 134//134 
f 42//42 41//41 134//134 
f 134//134 41//41 135//135 
f 41//41 40//40 135//135 
f 135//135 40//40 70//70 
f 40//40 5//5 70//70 
f 61//61 66//66 9//9 
f 62//62 136//136 61//61 
f 63//63 137//137 62//62 
f 61//61 136//136 66//66 
f 136//136 65//65 66//66 
f 62//62 137//137 136//136 
f 137//137 138//138 136//136 
f 136//136 138//138 65//65 
f 138//138 64//64 65//65 
f 63//63 39//39 137//137 
f 39//39 38//38 137//137 
f 137//137 38//38 138//138 
f 38//38 37//37 138//138 
f 138//138 37//37 64//64 
f 37//37 4//4 64//64 
f 55//55 60//60 8//8 
f 56//56 139//139 55//55 
f 57//57 140//140 56//56 
f 55//55 139//139 60//60 
f 139//139 59//59 60//60 
f 56//56 140//140 139//139 
f 140//140 141//141 139//139 
f 139//139 141//141 59//59 
f 141//141 58//58 59//59 
f 57//57 33//33 140//140 
f 33//33 32//32 140//140 
f 140//140 32//32 141//141 
f 32//32 31//31 141//141 
f 141//141 31//31 58//58 
f 31//31 3//3 58//58 
f 49//49 54//54 7//7 
f 50//50 142//142 49//49 
f 51//51 143//143 50//50 
f 49//49 142//142 54//54 
f 142//142 53//53 54//54 
f 50//50 143//143 142//142 
f 143//143 144//144 142//142 
f 142//142 144//144 53//53 
f 144//144 52//52 53//53 
f 51//51 21//21 143//143 
f 21//21 20//20 143//143 
f 143//143 20//20 144//144 
f 20//20 19//19 144//144 
f 144//144 19//19 52//52 
f 19//19 2//2 52//52 
f 43//43 48//48 11//11 
f 44//44 145//145 43//43 
f 45//45 146//146 44//44 
f 43//43 145//145 48//48 
f 145//145 47//47 48//48 
f 44//44 146//146 145//145 
f 146//146 147//147 145//145 
f 145//145 147//147 47//47 
f 147//147 46//46 47//47 
f 45//45 24//24 146//146 
f 24//24 23//23 146//146 
f 146//146 23//23 147//147 
f 23//23 22//22 147//147 
f 147//147 22//22 46//46 
f 22//22 6//6 46//46 
f 27//27 42//42 6//6 
f 26//26 148//148 27//27 
f 25//25 149//149 26//26 
f 27//27 148//148 42//42 
f 148//148 41//41 42//42 
f 26//26 149//149 148//148 
f 149//149 150//150 148//148 
f 148//148 150//150 41//41 
f 150//150 40//40 41//41 
f 25//25 36//36 149//149 
f 36//36 35//35 149//149 
f 149//149 35//35 150//150 
f 35//35 34//34 150//150 
f 150//150 34//34 40//40 
f 34//34 5//5 40//40 
f 34//34 39//39 5//5 
f 35//35 151//151 34//34 
f 36//36 152//152 35//35 
f 34//34 151//151 39//39 
f 151//151 38//38 39//39 
f 35//35 152//152 151//151 
f 152//152 153//153 151//151 
f 151//151 153//153 38//38 
f 153//153 37//37 38//38 
f 36//36 30//30 152//152 
f 30//30 29//29 152//152 
f 152//152 29//29 153//153 
f 29//29 28//28 153//153 
f 153//153 28//28 37//37 
f 28//28 4//4 37//37 
f 28//28 33//33 4//4 
f 29//29 154//154 28//28 
f 30//30 155//155 29//29 
f 28//28 154//154 33//33 
f 154//154 32//32 33//33 
f 29//29 155//155 154//154 
f 155//155 156//156 154//154 
f 154//154 156//156 32//32 
f 156//156 31//31 32//32 
f 30//30 15//15 155//155 
f 15//15 14//14 155//155 
f 155//155 14//14 156//156 
f 14//14 13//13 156//156 
f 156//156 13//13 31//31 
f 13//13 3//3 31//31 
f 22//22 27//27 6//6 
f 23//23 157//157 22//22 
f 24//24 158//158 23//23 
f 22//22 157//157 27//27 
f 157//157 26//26 27//27 
f 23//23 158//158 157//157 
f 158//158 159//159 157//157 
f 157//157 159//159 26//26 
f 159//159 25//25 26//26 
f 24//24 18//18 158//158 
f 18//18 17//17 158//158 
f 158//158 17//17 159//159 
f 17//17 16//16 159//159 
f 159//159 16//16 25//25 
f 16//16 1//1 25//25 
f 13//13 21//21 3//3 
f 14//14 160//160 13//13 
f 15//15 161//161 14//14 
f 13//13 160//160 21//21 
f 160//160 20//20 21//21 
f 14//14 161//161 160//160 
f 161//161 162//162 160//160 
f 160//160 162//162 20//20 
f 162//162 19//19 20//20 
f 15//15 16//16 161//161 
f 16//16 17//17 161//161 
f 161//161 17//17 162//162 
f 17//17 18//18 162//162 
f 162//162 18//18 19//19 
f 18//18 2//2 19//19 
