v 0.007272970863 -0.04676389322 -0.009690733626
vn -0.03351720423 -0.9983859062 0.04584980384
v 0.04095456004 -0.04439406469 0.01878103986
vn 0.1281907409 -0.9807201624 0.147496134
v -0.01401362475 -0.04426457733 0.04216557741
vn -0.02018171735 -0.9889708161 0.1467292756
v 0.06824404746 -0.03185268119 0.04804933071
vn 0.5801122785 -0.6972661018 0.4210578501
v 0.0803668052 -0.03674302623 -0.002209036611
vn 0.6505672932 -0.7581166029 0.04496045038
v -0.04787473753 -0.04680442065 -0.004023421556
vn -0.1642741263 -0.9852856994 -0.04718215019
v -0.008888479322 -0.04502057284 -0.05241718516
vn -0.133323282 -0.9697767496 -0.204347685
v 0.0416783765 -0.05307577178 -0.03325495496
vn 0.1592930257 -0.9811526537 -0.1093855351
v 0.08994531631 -0.003222557949 0.0273772683
vn 0.9316394329 -0.0001241821155 0.363384068
v -0.03113798052 -0.0329401195 0.07778380811
vn -0.2074026018 -0.7948681116 0.5702357888
v 0.02430510148 -0.03675268963 0.0750503391
vn 0.2001437247 -0.8496140242 0.4879533947
v -0.00144484872 -0.01351978909 0.09981489182
vn -0.01639600098 -0.009505563416 0.9998204112
v -0.08606169373 -0.03158717602 -0.002150618704
vn -0.6579980254 -0.7454816103 -0.1062814221
v -0.07208154351 -0.0387561135 0.04362338409
vn -0.4098391831 -0.8683074117 0.2794173956
v -0.1000000015 -0.005853655282 0.03780050948
vn -0.9841091633 0.007082163822 0.177423209
v -0.02571418509 -0.03064297698 -0.08285743743
vn -0.2464002371 -0.738001287 -0.6282045841
v -0.0606335327 -0.03197656199 -0.0481778197
vn -0.4594373405 -0.8153535128 -0.3523010314
v -0.06157149374 -0.004728610627 -0.08249986917
vn -0.5986869931 -0.09356484562 -0.7954995036
v 0.06840699166 -0.03149463609 -0.05238584056
vn 0.5971451998 -0.6755649447 -0.4324692488
v 0.0242947638 -0.03686377406 -0.07930250466
vn 0.1933640391 -0.7317067385 -0.6536173224
v 0.06394248456 -0.00317940535 -0.07928854227
vn 0.5327701569 0.04414973781 -0.8451075554
v 0.05528505519 -0.003222557949 0.07508348674
vn 0.614107728 -0.001190237352 0.7892212868
v -0.07763054222 -0.005914999638 0.07265980542
vn -0.5492700338 -0.0372980088 0.8348121643
v -0.09515856951 -0.006001990754 -0.03137180954
vn -0.9482798576 -0.07188536972 -0.3091889322
v -0.003666025121 -0.005095693283 -0.09981489182
vn 0.0001979962253 -0.05955143273 -0.9982252121
v 0.1000000015 -0.002049291506 -0.03111877665
vn 0.9689100981 -0.04932178557 -0.2424471825
v 0.02557420172 0.02541412599 0.07905553281
vn 0.2363633215 0.5719667673 0.7854847908
v 0.06486470252 0.03044180013 0.04559940472
vn 0.6110903621 0.6649804115 0.4293828011
v 0.01663370803 0.0530757755 0.04702291638
vn 0.09315743297 0.9461070299 0.3101663291
v -0.07497715205 0.02572460845 0.04843117297
vn -0.5737795234 0.7363499999 0.3585605919
v -0.03370932862 0.03066892363 0.075340949
vn -0.2279251814 0.6801065803 0.6967819929
v -0.03713725135 0.04754172266 0.02520187572
vn -0.2477174401 0.9610288143 0.1227178648
v -0.07336312532 0.0226880461 -0.05204666033
vn -0.6167269945 0.6716296673 -0.4105622768
v -0.08195786923 0.03044180013 -0.002105984138
vn -0.666657865 0.7445545793 -0.03472521156
v -0.03636305779 0.04713688791 -0.02868017741
vn -0.2425686717 0.9564679861 -0.1622634381
v 0.0004576558713 0.02747809514 -0.08898125589
vn 0.2240855545 0.6284819245 -0.7448464036
v -0.02962503396 0.0300392881 -0.0797496438
vn -0.3134295344 0.7089295387 -0.6318076253
v 0.004828954116 0.04533660784 -0.05512490124
vn 0.09298864752 0.9478943944 -0.3047118783
v 0.08454202116 0.02541379817 -0.002105984138
vn 0.7638621926 0.6420128942 0.06583291292
v 0.07104627788 0.02838293277 -0.04992903024
vn 0.4823751748 0.7580546141 -0.4389389455
v 0.05232053623 0.04826192558 -0.002792881569
vn 0.354783386 0.9335564971 -0.05100065842
v 0.01774445921 0.05251932517 -0.001853443799
vn -0.01744435728 0.998057723 -0.05980337039
# mm_gid 0
g mmGroup0
f 1//1 2//2 3//3 
f 4//4 2//2 5//5 
f 1//1 3//3 6//6 
f 1//1 6//6 7//7 
f 1//1 7//7 8//8 
f 4//4 5//5 9//9 
f 10//10 11//11 12//12 
f 13//13 14//14 15//15 
f 16//16 17//17 18//18 
f 19//19 20//20 21//21 
f 4//4 9//9 22//22 
f 10//10 12//12 23//23 
f 13//13 15//15 24//24 
f 16//16 18//18 25//25 
f 19//19 21//21 26//26 
f 27//27 28//28 29//29 
f 30//30 31//31 32//32 
f 33//33 34//34 35//35 
f 36//36 37//37 38//38 
f 39//39 40//40 41//41 
f 3//3 11//11 10//10 
f 3//3 2//2 11//11 
f 2//2 4//4 11//11 
f 5//5 8//8 19//19 
f 5//5 2//2 8//8 
f 2//2 1//1 8//8 
f 6//6 14//14 13//13 
f 6//6 3//3 14//14 
f 3//3 10//10 14//14 
f 7//7 17//17 16//16 
f 7//7 6//6 17//17 
f 6//6 13//13 17//17 
f 8//8 20//20 19//19 
f 8//8 7//7 20//20 
f 7//7 16//16 20//20 
f 9//9 26//26 39//39 
f 9//9 5//5 26//26 
f 5//5 19//19 26//26 
f 12//12 22//22 27//27 
f 12//12 11//11 22//22 
f 11//11 4//4 22//22 
f 15//15 23//23 30//30 
f 15//15 14//14 23//23 
f 14//14 10//10 23//23 
f 18//18 24//24 33//33 
f 18//18 17//17 24//24 
f 17//17 13//13 24//24 
f 21//21 25//25 36//36 
f 21//21 20//20 25//25 
f 20//20 16//16 25//25 
f 22//22 28//28 27//27 
f 22//22 9//9 28//28 
f 9//9 39//39 28//28 
f 23//23 31//31 30//30 
f 23//23 12//12 31//31 
f 12//12 27//27 31//31 
f 24//24 34//34 33//33 
f 24//24 15//15 34//34 
f 15//15 30//30 34//34 
f 25//25 37//37 36//36 
f 25//25 18//18 37//37 
f 18//18 33//33 37//37 
f 26//26 40//40 39//39 
f 26//26 21//21 40//40 
f 21//21 36//36 40//40 
f 29//29 41//41 42//42 
f 29//29 28//28 41//41 
f 28//28 39//39 41//41 
f 32//32 29//29 42//42 
f 32//32 31//31 29//29 
f 31//31 27//27 29//29 
f 35//35 32//32 42//42 
f 35//35 34//34 32//32 
f 34//34 30//30 32//32 
f 38//38 35//35 42//42 
f 38//38 37//37 35//35 
f 37//37 33//33 35//35 
f 41//41 38//38 42//42 
f 41//41 40//40 38//38 
f 40//40 36//36 38//38 
