v 0.00718516577 -0.07760008425 -0.004805408418
vn -0.06485238671 -0.9978353381 0.01090130117
v 0.06812062114 -0.08493696898 0.05221613497
vn 0.09797413647 -0.9876621962 0.1221655011
v -0.01740068756 -0.07115676254 0.07025294006
vn -0.08628618717 -0.9744134545 0.2075406611
v 0.1105050147 -0.05679799244 0.09517494589
vn 0.6258830428 -0.5690411329 0.5333504081
v 0.1296579689 -0.06302854419 0.003167157527
vn 0.7580286264 -0.646625936 -0.08524978906
v -0.06959143281 -0.07297070324 -0.0009361893171
vn -0.1399853975 -0.9898283482 0.02537530102
v -0.01998220198 -0.0779530108 -0.07662454247
vn -0.02045107447 -0.96777004 -0.2510038018
v 0.06843758374 -0.07762622833 -0.05228284374
vn 0.2069185078 -0.9434909821 -0.2588618696
v 0.1433019191 -0.006738596596 0.05644374341
vn 0.9488079548 0.1153228283 0.2940478921
v -0.03406521305 -0.04565837607 0.123488985
vn -0.1702861637 -0.6634576321 0.7285785079
v 0.03990838677 -0.05661857128 0.1254173815
vn 0.09961482137 -0.7137953639 0.693233788
v 0.004938932136 -0.007757292595 0.1449999958
vn 0.02584861591 -0.03710871935 0.9989768863
v -0.1357297897 -0.05618999898 0.003715201281
vn -0.7118558884 -0.7022856474 0.007487749215
v -0.1027046517 -0.06310178339 0.0880381763
vn -0.4281602204 -0.7997601628 0.4207879305
v -0.1415088773 -0.008686608635 0.05529033393
vn -0.9199434519 0.09594350308 0.3801301122
v -0.0385302119 -0.04731928557 -0.1224896908
vn -0.08011287451 -0.6415641904 -0.7628743649
v -0.1029631868 -0.0642510578 -0.0812959969
vn -0.4893834591 -0.7798733711 -0.3902581334
v -0.08342634887 -0.007883946411 -0.1282820702
vn -0.5430822968 0.008497457951 -0.8396365047
v 0.1112531796 -0.03561221808 -0.08096049726
vn 0.6527084708 -0.4997574389 -0.5693980455
v 0.03713286668 -0.04573096707 -0.1101476103
vn 0.2493489385 -0.6456236243 -0.7218000293
v 0.08075045794 0.01261665206 -0.1223837435
vn 0.5537967682 0.008321037516 -0.8326103091
v 0.07908103615 -0.008270020597 0.1155386418
vn 0.5386083722 0.1141035557 0.8347942233
v -0.07362305373 -0.01094200183 0.1212998703
vn -0.5317689776 0.05065095425 0.8453734517
v -0.1433019191 -0.008066628128 -0.04786907881
vn -0.9525960088 0.0199357532 -0.303584218
v -0.0005794298486 -0.0009316061623 -0.1449999809
vn 0.05239453167 -0.03349760547 -0.998064518
v 0.1332474947 0.007812668569 -0.04718696699
vn 0.9521690607 0.07633558661 -0.2958832681
v 0.04144330695 0.03908557072 0.1272047311
vn 0.3308205307 0.4750708044 0.8153928518
v 0.09941880405 0.04912320524 0.07281876355
vn 0.6128685474 0.6455467939 0.4556989074
v 0.02529892884 0.08404231817 0.0838604942
vn 0.1265485138 0.9375035167 0.3241490126
v -0.0952635631 0.03380089253 0.07843369991
vn -0.6441707611 0.5443660021 0.5373170972
v -0.03167618439 0.04503599554 0.1285556704
vn -0.2856942117 0.5862563848 0.7580780387
v -0.06133830547 0.07888364047 0.05447218195
vn -0.3286548257 0.9311165214 0.158139199
v -0.1054790914 0.03800473735 -0.08437301219
vn -0.5603835583 0.6875116229 -0.4618420005
v -0.1276146621 0.04566077143 0.001909319544
vn -0.6891825795 0.7244093418 0.01607818715
v -0.05526448786 0.06541931629 -0.04595702514
vn -0.2097601891 0.9449393749 -0.2511776388
v 0.0367814526 0.04103532061 -0.1202719957
vn 0.08367072046 0.7435775399 -0.6633940339
v -0.03480247408 0.03745560721 -0.1178851575
vn -0.1602610946 0.7788894176 -0.6063395739
v 0.02730907127 0.06312162429 -0.06549910456
vn -0.008588307537 0.9437994957 -0.330406934
v 0.1243089885 0.04802929983 -0.003671171144
vn 0.8017346859 0.5971655846 0.02479393221
v 0.09941815585 0.05761002377 -0.07652820647
vn 0.4827165008 0.7714486718 -0.4145500064
v 0.08127953857 0.07712222636 -0.003808509791
vn 0.2908941507 0.9561563134 -0.03384815156
v 0.009030941874 0.08493696153 0.002105079126
vn -0.03333331272 0.9899398685 -0.1375059634
# mm_gid 0
g mmGroup0
f 1//1 2//2 3//3 
f 4//4 2//2 5//5 
f 1//1 3//3 6//6 
f 1//1 6//6 7//7 
f 1//1 7//7 8//8 
f 4//4 5//5 9//9 
f 10//10 11//11 12//12 
f 13//13 14//14 15//15 
f 16//16 17//17 18//18 
f 19//19 20//20 21//21 
f 4//4 9//9 22//22 
f 10//10 12//12 23//23 
f 13//13 15//15 24//24 
f 16//16 18//18 25//25 
f 19//19 21//21 26//26 
f 27//27 28//28 29//29 
f 30//30 31//31 32//32 
f 33//33 34//34 35//35 
f 36//36 37//37 38//38 
f 39//39 40//40 41//41 
f 3//3 11//11 10//10 
f 3//3 2//2 11//11 
f 2//2 4//4 11//11 
f 5//5 8//8 19//19 
f 5//5 2//2 8//8 
f 2//2 1//1 8//8 
f 6//6 14//14 13//13 
f 6//6 3//3 14//14 
f 3//3 10//10 14//14 
f 7//7 17//17 16//16 
f 7//7 6//6 17//17 
f 6//6 13//13 17//17 
f 8//8 20//20 19//19 
f 8//8 7//7 20//20 
f 7//7 16//16 20//20 
f 9//9 26//26 39//39 
f 9//9 5//5 26//26 
f 5//5 19//19 26//26 
f 12//12 22//22 27//27 
f 12//12 11//11 22//22 
f 11//11 4//4 22//22 
f 15//15 23//23 30//30 
f 15//15 14//14 23//23 
f 14//14 10//10 23//23 
f 18//18 24//24 33//33 
f 18//18 17//17 24//24 
f 17//17 13//13 24//24 
f 21//21 25//25 36//36 
f 21//21 20//20 25//25 
f 20//20 16//16 25//25 
f 22//22 28//28 27//27 
f 22//22 9//9 28//28 
f 9//9 39//39 28//28 
f 23//23 31//31 30//30 
f 23//23 12//12 31//31 
f 12//12 27//27 31//31 
f 24//24 34//34 33//33 
f 24//24 15//15 34//34 
f 15//15 30//30 34//34 
f 25//25 37//37 36//36 
f 25//25 18//18 37//37 
f 18//18 33//33 37//37 
f 26//26 40//40 39//39 
f 26//26 21//21 40//40 
f 21//21 36//36 40//40 
f 29//29 41//41 42//42 
f 29//29 28//28 41//41 
f 28//28 39//39 41//41 
f 32//32 29//29 42//42 
f 32//32 31//31 29//29 
f 31//31 27//27 29//29 
f 35//35 32//32 42//42 
f 35//35 34//34 32//32 
f 34//34 30//30 32//32 
f 38//38 35//35 42//42 
f 38//38 37//37 35//35 
f 37//37 33//33 35//35 
f 41//41 38//38 42//42 
f 41//41 40//40 38//38 
f 40//40 36//36 38//38 
