v -0.05683951452 -0.01544493344 -0.02101892978
vn -0.9796632528 -0.1586183161 -0.1228827611
v -0.04637398198 -0.01332669985 -0.0579180792
vn -0.7766164541 -0.1923534572 -0.5998891592
v -0.04001938179 -0.0399799943 -0.04997486621
vn -0.6939429045 -0.5622484088 -0.4497999251
v -0.04637398198 -0.04633459821 -0.01665832289
vn -0.6955918074 -0.6988660097 -0.1665483415
v 0.01510670315 -0.01033870224 -0.07075161487
vn 0.2728019655 -0.1222454831 -0.9542720318
v 0.04002527148 0.00450323429 -0.05607880279
vn 0.7801252604 -0.08204557002 -0.6202202439
v 0.0375110358 -0.02980331518 -0.05145122856
vn 0.6568982005 -0.5055146217 -0.5594100952
v 0.01284913812 -0.04448783025 -0.05819233879
vn 0.159924686 -0.7337026 -0.6603821516
v 0.05683951452 -0.01484963484 0.02039654553
vn 0.9835069776 -0.1559759676 0.0915723145
v 0.0467668809 -0.009996075183 0.05428920314
vn 0.7435467243 -0.1490535885 0.6518598795
v 0.03994810954 -0.03994271532 0.04992249236
vn 0.7428063154 -0.4862581789 0.4602083862
v 0.04629462212 -0.04633269459 0.01665802486
vn 0.7411637902 -0.6665335298 0.08005820215
v -0.01673028618 -0.01545193233 0.07039120793
vn -0.08648788929 -0.2396619767 0.9669963717
v -0.04637398198 -0.01332669985 0.0579180792
vn -0.7583810687 -0.1932139248 0.6225163341
v -0.04001938179 -0.0399799943 0.04997486621
vn -0.5087897182 -0.6699915528 0.5405963063
v -0.01336617861 -0.04633459821 0.05791817978
vn -0.06432035565 -0.7379750609 0.6717556715
v 0.01534338482 -0.05653877184 -0.02105771378
vn 0.2412071377 -0.9555752277 -0.1693962514
v 0.04546194151 -0.04282206669 -0.01717976108
vn 0.7408769131 -0.6253721118 -0.2449716181
v -0.01545782667 0.0567773506 -0.02096865699
vn -0.1641747802 0.9784172177 -0.1254848242
v -0.01336607803 0.04633440077 -0.0579180792
vn -0.1424727142 0.779133141 -0.6104531884
v -0.03946965188 0.03951112926 -0.04893009365
vn -0.5130746365 0.6717031002 -0.5343869328
v -0.04625903815 0.04623635113 -0.01643973403
vn -0.7243533731 0.6864096522 -0.06445105374
v -0.05683951452 -0.01544493344 0.02101892978
vn -0.9756963849 -0.1730754822 0.1343927979
v -0.04637398198 -0.04633459821 0.01665832289
vn -0.6832178235 -0.7177810073 0.1341786385
v -0.03985266015 0.03866585344 0.04913738742
vn -0.702916503 0.6495450735 0.28982687
v -0.04507093504 0.03606686369 0.01011381485
vn -0.7215147614 0.6772575974 0.1440090537
v -0.05683951452 0.01544473227 0.02101892978
vn -0.9730573297 0.2057543993 0.1040413678
v -0.04637398198 0.01332649682 0.0579180792
vn -0.7724061608 0.2014543861 0.60233289
v -0.05683951452 0.01544473227 -0.02101892978
vn -0.9743314981 0.1875251085 -0.1245489493
v -0.04637398198 0.01332649682 -0.0579180792
vn -0.7559483647 0.2032351643 -0.622284174
v -0.0168546252 -0.01544493344 -0.07099999487
vn -0.1995068938 -0.210922718 -0.9569266438
v -0.01306143217 -0.03907564655 -0.05902061984
vn -0.2476082593 -0.753126502 -0.609500289
v -0.0168546252 0.01544473227 -0.07099999487
vn -0.1895208657 0.2139100283 -0.9582924247
v 0.01291820314 0.04709851742 -0.05761883035
vn 0.2264599949 0.8001621366 -0.5553885698
v 0.01336737722 0.02250278369 -0.06823528558
vn 0.2348344922 0.2436840832 -0.9409946203
v 0.03647915646 0.04714759067 -0.04716728255
vn 0.7299933434 0.5514829755 -0.4037031829
v 0.04033661634 0.02573425509 -0.05313097686
vn 0.7606165409 0.1891755164 -0.6210274696
v 0.05461264402 -0.007485338021 -0.02162912488
vn 0.9600988626 -0.1538676023 -0.2335271537
v 0.0446944274 0.04557247832 -0.01815077476
vn 0.6970111132 0.7086324692 -0.109615162
v 0.05457415432 0.02002413012 -0.01928000711
vn 0.9731880426 0.1586288959 -0.1665591896
v 0.04629502073 0.04633440077 0.01665832289
vn 0.6908521652 0.7133922577 0.1174511239
v 0.05676056072 0.01544503216 0.02101862803
vn 0.9767935276 0.1796354353 0.116642721
v 0.0400432609 0.03996700048 0.04853039235
vn 0.4665689468 0.6895646453 0.5539079905
v 0.04634319618 0.01368931402 0.05753876641
vn 0.755889535 0.1411438882 0.639303863
v 0.01866271347 -0.01554228552 0.06176014245
vn 0.2414916605 -0.2293890119 0.9429010749
v 0.01343994122 -0.04634309933 0.05717015266
vn 0.2511244714 -0.6972714067 0.6713784933
v 0.01371930074 0.04628073052 0.0518454276
vn 0.1253145486 0.7601522803 0.6375458837
v 0.01684053056 0.01543943584 0.07046366483
vn 0.2151551992 0.1588930339 0.9635669589
v -0.01332479995 0.04632930085 0.05733817071
vn -0.3042944372 0.7729038596 0.5567984581
v -0.0168546252 0.01544473227 0.07099999487
vn -0.1670555025 0.2404224724 0.956184864
v 0.01540535223 -0.05680013448 0.02101892978
vn 0.1923703253 -0.9744421244 0.1160007939
v -0.01548431348 -0.05680013448 0.02101892978
vn -0.1572960913 -0.9800340533 0.1216189787
v -0.01548331417 -0.056776952 -0.02102242783
vn -0.1990460157 -0.9600496888 -0.196685642
v -0.01548431348 0.05680014193 0.02101903223
vn -0.2818561792 0.940464735 0.189955622
v 0.01542504318 0.0567974411 0.02074276842
vn 0.1526838839 0.9797452688 0.1295639426
v 0.01540535223 0.05679994076 -0.02101892978
vn 0.1790014207 0.9747088552 -0.1337953359
# mm_gid 0
g mmGroup0
f 1//1 2//2 3//3 
f 1//1 3//3 4//4 
f 5//5 6//6 7//7 
f 5//5 7//7 8//8 
f 9//9 10//10 11//11 
f 9//9 11//11 12//12 
f 13//13 14//14 15//15 
f 13//13 15//15 16//16 
f 17//17 8//8 7//7 
f 17//17 7//7 18//18 
f 19//19 20//20 21//21 
f 19//19 21//21 22//22 
f 14//14 23//23 24//24 
f 14//14 24//24 15//15 
f 23//23 1//1 4//4 
f 23//23 4//4 24//24 
f 25//25 26//26 27//27 
f 25//25 27//27 28//28 
f 28//28 27//27 23//23 
f 28//28 23//23 14//14 
f 26//26 22//22 29//29 
f 26//26 29//29 27//27 
f 27//27 29//29 1//1 
f 27//27 1//1 23//23 
f 22//22 21//21 30//30 
f 22//22 30//30 29//29 
f 29//29 30//30 2//2 
f 29//29 2//2 1//1 
f 2//2 31//31 32//32 
f 2//2 32//32 3//3 
f 31//31 5//5 8//8 
f 31//31 8//8 32//32 
f 21//21 20//20 33//33 
f 21//21 33//33 30//30 
f 30//30 33//33 31//31 
f 30//30 31//31 2//2 
f 20//20 34//34 35//35 
f 20//20 35//35 33//33 
f 33//33 35//35 5//5 
f 33//33 5//5 31//31 
f 34//34 36//36 37//37 
f 34//34 37//37 35//35 
f 35//35 37//37 6//6 
f 35//35 6//6 5//5 
f 6//6 38//38 18//18 
f 6//6 18//18 7//7 
f 38//38 9//9 12//12 
f 38//38 12//12 18//18 
f 36//36 39//39 40//40 
f 36//36 40//40 37//37 
f 37//37 40//40 38//38 
f 37//37 38//38 6//6 
f 39//39 41//41 42//42 
f 39//39 42//42 40//40 
f 40//40 42//42 9//9 
f 40//40 9//9 38//38 
f 41//41 43//43 44//44 
f 41//41 44//44 42//42 
f 42//42 44//44 10//10 
f 42//42 10//10 9//9 
f 10//10 45//45 46//46 
f 10//10 46//46 11//11 
f 45//45 13//13 16//16 
f 45//45 16//16 46//46 
f 43//43 47//47 48//48 
f 43//43 48//48 44//44 
f 44//44 48//48 45//45 
f 44//44 45//45 10//10 
f 47//47 49//49 50//50 
f 47//47 50//50 48//48 
f 48//48 50//50 13//13 
f 48//48 13//13 45//45 
f 49//49 25//25 28//28 
f 49//49 28//28 50//50 
f 50//50 28//28 14//14 
f 50//50 14//14 13//13 
f 46//46 51//51 12//12 
f 46//46 12//12 11//11 
f 51//51 17//17 18//18 
f 51//51 18//18 12//12 
f 15//15 24//24 52//52 
f 15//15 52//52 16//16 
f 16//16 52//52 51//51 
f 16//16 51//51 46//46 
f 24//24 4//4 53//53 
f 24//24 53//53 52//52 
f 52//52 53//53 17//17 
f 52//52 17//17 51//51 
f 4//4 3//3 32//32 
f 4//4 32//32 53//53 
f 53//53 32//32 8//8 
f 53//53 8//8 17//17 
f 49//49 54//54 26//26 
f 49//49 26//26 25//25 
f 54//54 19//19 22//22 
f 54//54 22//22 26//26 
f 43//43 41//41 55//55 
f 43//43 55//55 47//47 
f 47//47 55//55 54//54 
f 47//47 54//54 49//49 
f 41//41 39//39 56//56 
f 41//41 56//56 55//55 
f 55//55 56//56 19//19 
f 55//55 19//19 54//54 
f 39//39 36//36 34//34 
f 39//39 34//34 56//56 
f 56//56 34//34 20//20 
f 56//56 20//20 19//19 
