v 0.003295265837 -0.0355890058 -0.002203857759
vn -0.06485238671 -0.9978353381 0.01090130117
v 0.03124152496 -0.03895385563 0.02394740097
vn 0.09797413647 -0.9876621962 0.1221655011
v -0.007980315946 -0.0326339677 0.03221945465
vn -0.08628618717 -0.9744134545 0.2075406611
v 0.05067988858 -0.02604873665 0.04364920408
vn 0.6258830428 -0.5690411329 0.5333504081
v 0.05946383253 -0.02890619636 0.001452526194
vn 0.7580286264 -0.646625936 -0.08524978906
v -0.03191607073 -0.03346587718 -0.0004293537932
vn -0.1399853975 -0.9898283482 0.02537530102
v -0.009164251387 -0.03575086966 -0.03514160216
vn -0.02045107447 -0.96777004 -0.2510038018
v 0.03138689324 -0.03560099751 -0.02397799492
vn 0.2069185078 -0.9434909821 -0.2588618696
v 0.06572122872 -0.003090461018 0.02588627301
vn 0.9488079548 0.1153228283 0.2940478921
v -0.01562301069 -0.02093987539 0.05663460866
vn -0.1702861637 -0.6634576321 0.7285785079
v 0.01830281317 -0.02596645057 0.05751901492
vn 0.09961482137 -0.7137953639 0.693233788
v 0.002265096642 -0.003557656193 0.06650000811
vn 0.02584861591 -0.03710871935 0.9989768863
v -0.0622484982 -0.02576989867 0.001703870366
vn -0.7118558884 -0.7022856474 0.007487749215
v -0.04710248113 -0.0289397873 0.04037613422
vn -0.4281602204 -0.7997601628 0.4207879305
v -0.06489890814 -0.003983859904 0.02535729297
vn -0.9199434519 0.09594350308 0.3801301122
v -0.01767075434 -0.02170160785 -0.05617630854
vn -0.08011287451 -0.6415641904 -0.7628743649
v -0.04722105339 -0.02946686931 -0.03728402406
vn -0.4893834591 -0.7798733711 -0.3902581334
v -0.03826105222 -0.003615742316 -0.05883280933
vn -0.5430822968 0.008497457951 -0.8396365047
v 0.05102301389 -0.01633250155 -0.03713015839
vn 0.6527084708 -0.4997574389 -0.5693980455
v 0.0170299001 -0.02097317018 -0.05051597208
vn 0.2493489385 -0.6456236243 -0.7218000293
v 0.03703383356 0.00578625733 -0.05612771586
vn 0.5537967682 0.008321037516 -0.8326103091
v 0.03626820073 -0.003792803735 0.05298841745
vn 0.5386083722 0.1141035557 0.8347942233
v -0.03376505896 -0.005018230062 0.05563063547
vn -0.5317689776 0.05065095425 0.8453734517
v -0.06572122872 -0.003699524095 -0.0219537504
vn -0.9525960088 0.0199357532 -0.303584218
v -0.0002657385194 -0.0004272548831 -0.06650000066
vn 0.05239453167 -0.03349760547 -0.998064518
v 0.06111006066 0.003583050799 -0.02164091729
vn 0.9521690607 0.07633558661 -0.2958832681
v 0.01900676079 0.01792544872 0.05833873153
vn 0.3308205307 0.4750708044 0.8153928518
v 0.04559552297 0.0225289166 0.03339619562
vn 0.6128685474 0.6455467939 0.4556989074
v 0.01160261221 0.03854354843 0.03846016526
vn 0.1265485138 0.9375035167 0.3241490126
v -0.04368984327 0.01550178975 0.03597132489
vn -0.6441707611 0.5443660021 0.5373170972
v -0.01452735439 0.02065443993 0.05895829201
vn -0.2856942117 0.5862563848 0.7580780387
v -0.02813101746 0.03617767245 0.02498207241
vn -0.3286548257 0.9311165214 0.158139199
v -0.04837489501 0.01742975786 -0.03869520873
vn -0.5603835583 0.6875116229 -0.4618420005
v -0.0585267283 0.02094097435 0.0008756555035
vn -0.6891825795 0.7244093418 0.01607818715
v -0.02534544095 0.03000265174 -0.02107684314
vn -0.2097601891 0.9449393749 -0.2511776388
v 0.01686873659 0.01881964877 -0.05515922979
vn 0.08367072046 0.7435775399 -0.6633940339
v -0.01596113481 0.01717791706 -0.05406457558
vn -0.1602610946 0.7788894176 -0.6063395739
v 0.01252450608 0.02894888446 -0.03003924526
vn -0.008588307537 0.9437994957 -0.330406934
v 0.05701067671 0.02202722989 -0.001683673239
vn 0.8017346859 0.5971655846 0.02479393221
v 0.04559522495 0.02642115206 -0.03509741649
vn 0.4827165008 0.7714486718 -0.4145500064
v 0.03727648035 0.0353698507 -0.001746659516
vn 0.2908941507 0.9561563134 -0.03384815156
v 0.004141777288 0.03895385191 0.0009654349997
vn -0.03333331272 0.9899398685 -0.1375059634
# mm_gid 0
g mmGroup0
f 1//1 2//2 3//3 
f 4//4 2//2 5//5 
f 1//1 3//3 6//6 
f 1//1 6//6 7//7 
f 1//1 7//7 8//8 
f 4//4 5//5 9//9 
f 10//10 11//11 12//12 
f 13//13 14//14 15//15 
f 16//16 17//17 18//18 
f 19//19 20//20 21//21 
f 4//4 9//9 22//22 
f 10//10 12//12 23//23 
f 13//13 15//15 24//24 
f 16//16 18//18 25//25 
f 19//19 21//21 26//26 
f 27//27 28//28 29//29 
f 30//30 31//31 32//32 
f 33//33 34//34 35//35 
f 36//36 37//37 38//38 
f 39//39 40//40 41//41 
f 3//3 11//11 10//10 
f 3//3 2//2 11//11 
f 2//2 4//4 11//11 
f 5//5 8//8 19//19 
f 5//5 2//2 8//8 
f 2//2 1//1 8//8 
f 6//6 14//14 13//13 
f 6//6 3//3 14//14 
f 3//3 10//10 14//14 
f 7//7 17//17 16//16 
f 7//7 6//6 17//17 
f 6//6 13//13 17//17 
f 8//8 20//20 19//19 
f 8//8 7//7 20//20 
f 7//7 16//16 20//20 
f 9//9 26//26 39//39 
f 9//9 5//5 26//26 
f 5//5 19//19 26//26 
f 12//12 22//22 27//27 
f 12//12 11//11 22//22 
f 11//11 4//4 22//22 
f 15//15 23//23 30//30 
f 15//15 14//14 23//23 
f 14//14 10//10 23//23 
f 18//18 24//24 33//33 
f 18//18 17//17 24//24 
f 17//17 13//13 24//24 
f 21//21 25//25 36//36 
f 21//21 20//20 25//25 
f 20//20 16//16 25//25 
f 22//22 28//28 27//27 
f 22//22 9//9 28//28 
f 9//9 39//39 28//28 
f 23//23 31//31 30//30 
f 23//23 12//12 31//31 
f 12//12 27//27 31//31 
f 24//24 34//34 33//33 
f 24//24 15//15 34//34 
f 15//15 30//30 34//34 
f 25//25 37//37 36//36 
f 25//25 18//18 37//37 
f 18//18 33//33 37//37 
f 26//26 40//40 39//39 
f 26//26 21//21 40//40 
f 21//21 36//36 40//40 
f 29//29 41//41 42//42 
f 29//29 28//28 41//41 
f 28//28 39//39 41//41 
f 32//32 29//29 42//42 
f 32//32 31//31 29//29 
f 31//31 27//27 29//29 
f 35//35 32//32 42//42 
f 35//35 34//34 32//32 
f 34//34 30//30 32//32 
f 38//38 35//35 42//42 
f 38//38 37//37 35//35 
f 37//37 33//33 35//35 
f 41//41 38//38 42//42 
f 41//41 40//40 38//38 
f 40//40 36//36 38//38 
