v 0.002909188159 -0.01870555617 -0.003876292147
vn -0.03351720423 -0.9983859062 0.04584980384
v 0.01638182253 -0.01775762253 0.007512416691
vn 0.1281907409 -0.9807201624 0.147496134
v -0.005605449434 -0.01770582981 0.01686623134
vn -0.02018171735 -0.9889708161 0.1467292756
v 0.02729761787 -0.01274107024 0.01921973191
vn 0.5801122785 -0.6972661018 0.4210578501
v 0.03214672208 -0.014697209 -0.0008836134803
vn 0.6505672932 -0.7581166029 0.04496045038
v -0.01914989576 -0.01872176677 -0.001609367435
vn -0.1642741263 -0.9852856994 -0.04718215019
v -0.003555391449 -0.01800822653 -0.02096687257
vn -0.133323282 -0.9697767496 -0.204347685
v 0.01667134836 -0.02123030461 -0.01330197975
vn 0.1592930257 -0.9811526537 -0.1093855351
v 0.03597812355 -0.001289022039 0.01095090806
vn 0.9316394329 -0.0001241821155 0.363384068
v -0.01245519146 -0.01317604631 0.03111352026
vn -0.2074026018 -0.7948681116 0.5702357888
v 0.009722040035 -0.01470107399 0.03002013452
vn 0.2001437247 -0.8496140242 0.4879533947
v -0.0005779394996 -0.005407914054 0.03992595896
vn -0.01639600098 -0.009505563416 0.9998204112
v -0.03442467749 -0.0126348678 -0.0008602463058
vn -0.6579980254 -0.7454816103 -0.1062814221
v -0.02883261628 -0.01550244261 0.01744935475
vn -0.4098391831 -0.8683074117 0.2794173956
v -0.03999999911 -0.002341460669 0.01512020361
vn -0.9841091633 0.007082163822 0.177423209
v -0.01028567273 -0.01225718949 -0.03314296901
vn -0.2464002371 -0.738001287 -0.6282045841
v -0.02425341308 -0.01279062405 -0.01927112788
vn -0.4594373405 -0.8153535128 -0.3523010314
v -0.02462859638 -0.001891443157 -0.03299994394
vn -0.5986869931 -0.09356484562 -0.7954995036
v 0.02736279368 -0.01259785332 -0.02095433511
vn 0.5971451998 -0.6755649447 -0.4324692488
v 0.009717905894 -0.01474550646 -0.03172099963
vn 0.1933640391 -0.7317067385 -0.6536173224
v 0.02557699382 -0.001271760906 -0.03171541542
vn 0.5327701569 0.04414973781 -0.8451075554
v 0.0221140217 -0.001289022039 0.03003339283
vn 0.614107728 -0.001190237352 0.7892212868
v -0.03105221689 -0.002365998458 0.02906392328
vn -0.5492700338 -0.0372980088 0.8348121643
v -0.03806342557 -0.002400794998 -0.01254872326
vn -0.9482798576 -0.07188536972 -0.3091889322
v -0.001466410002 -0.002038275823 -0.03992595524
vn 0.0001979962253 -0.05955143273 -0.9982252121
v 0.03999999911 -0.0008197154384 -0.01244750898
vn 0.9689100981 -0.04932178557 -0.2424471825
v 0.01022968069 0.01016565133 0.03162221611
vn 0.2363633215 0.5719667673 0.7854847908
v 0.02594587766 0.01217672043 0.01823976077
vn 0.6110903621 0.6649804115 0.4293828011
v 0.006653483026 0.02123030834 0.01880916767
vn 0.09315743297 0.9461070299 0.3101663291
v -0.02999085747 0.01028984319 0.01937246881
vn -0.5737795234 0.7363499999 0.3585605919
v -0.01348373014 0.01226757001 0.03013638034
vn -0.2279251814 0.6801065803 0.6967819929
v -0.01485490054 0.01901668683 0.01008075103
vn -0.2477174401 0.9610288143 0.1227178648
v -0.02934524789 0.009075218812 -0.02081866376
vn -0.6167269945 0.6716296673 -0.4105622768
v -0.03278314695 0.01217672043 -0.0008423925028
vn -0.666657865 0.7445545793 -0.03472521156
v -0.01454522181 0.01885475405 -0.01147206966
vn -0.2425686717 0.9564679861 -0.1622634381
v 0.0001830623369 0.01099123806 -0.0355924964
vn 0.2240855545 0.6284819245 -0.7448464036
v -0.01185001247 0.01201571617 -0.03189985454
vn -0.3134295344 0.7089295387 -0.6318076253
v 0.001931581646 0.01813464426 -0.02204995789
vn 0.09298864752 0.9478943944 -0.3047118783
v 0.03381680697 0.01016552094 -0.0008423925028
vn 0.7638621926 0.6420128942 0.06583291292
v 0.02841850929 0.01135317329 -0.01997160912
vn 0.4823751748 0.7580546141 -0.4389389455
v 0.02092821151 0.01930477098 -0.001117151463
vn 0.354783386 0.9335564971 -0.05100065842
v 0.007097783033 0.02100772969 -0.0007413763669
vn -0.01744435728 0.998057723 -0.05980337039
# mm_gid 0
g mmGroup0
f 1//1 2//2 3//3 
f 4//4 2//2 5//5 
f 1//1 3//3 6//6 
f 1//1 6//6 7//7 
f 1//1 7//7 8//8 
f 4//4 5//5 9//9 
f 10//10 11//11 12//12 
f 13//13 14//14 15//15 
f 16//16 17//17 18//18 
f 19//19 20//20 21//21 
f 4//4 9//9 22//22 
f 10//10 12//12 23//23 
f 13//13 15//15 24//24 
f 16//16 18//18 25//25 
f 19//19 21//21 26//26 
f 27//27 28//28 29//29 
f 30//30 31//31 32//32 
f 33//33 34//34 35//35 
f 36//36 37//37 38//38 
f 39//39 40//40 41//41 
f 3//3 11//11 10//10 
f 3//3 2//2 11//11 
f 2//2 4//4 11//11 
f 5//5 8//8 19//19 
f 5//5 2//2 8//8 
f 2//2 1//1 8//8 
f 6//6 14//14 13//13 
f 6//6 3//3 14//14 
f 3//3 10//10 14//14 
f 7//7 17//17 16//16 
f 7//7 6//6 17//17 
f 6//6 13//13 17//17 
f 8//8 20//20 19//19 
f 8//8 7//7 20//20 
f 7//7 16//16 20//20 
f 9//9 26//26 39//39 
f 9//9 5//5 26//26 
f 5//5 19//19 26//26 
f 12//12 22//22 27//27 
f 12//12 11//11 22//22 
f 11//11 4//4 22//22 
f 15//15 23//23 30//30 
f 15//15 14//14 23//23 
f 14//14 10//10 23//23 
f 18//18 24//24 33//33 
f 18//18 17//17 24//24 
f 17//17 13//13 24//24 
f 21//21 25//25 36//36 
f 21//21 20//20 25//25 
f 20//20 16//16 25//25 
f 22//22 28//28 27//27 
f 22//22 9//9 28//28 
f 9//9 39//39 28//28 
f 23//23 31//31 30//30 
f 23//23 12//12 31//31 
f 12//12 27//27 31//31 
f 24//24 34//34 33//33 
f 24//24 15//15 34//34 
f 15//15 30//30 34//34 
f 25//25 37//37 36//36 
f 25//25 18//18 37//37 
f 18//18 33//33 37//37 
f 26//26 40//40 39//39 
f 26//26 21//21 40//40 
f 21//21 36//36 40//40 
f 29//29 41//41 42//42 
f 29//29 28//28 41//41 
f 28//28 39//39 41//41 
f 32//32 29//29 42//42 
f 32//32 31//31 29//29 
f 31//31 27//27 29//29 
f 35//35 32//32 42//42 
f 35//35 34//34 32//32 
f 34//34 30//30 32//32 
f 38//38 35//35 42//42 
f 38//38 37//37 35//35 
f 37//37 33//33 35//35 
f 41//41 38//38 42//42 
f 41//41 40//40 38//38 
f 40//40 36//36 38//38 
