v 15 -15.03007698 -0.311142385
vn 0.1384041309 -0.2233473659 0.9648628235
v -15 -15.03007698 -0.311142385
vn -0.1510968357 -0.1611640602 0.9752927423
v -15 -14.8557663 -2.303530693
vn -0.06593801081 -0.04517100751 -0.9968007803
v 15 -14.8557663 -2.303530693
vn 0.03329635784 0.05388943851 -0.9979916215
v -15 15.03007507 0.3111413717
vn -0.06637227535 0.1528906673 -0.9860117435
v -15 14.85576439 2.303529501
vn -0.1052389741 0.01865335181 0.9942719936
v 14.99998283 14.85576439 2.303530693
vn 0.07659688592 0.06674299389 0.9948257804
v 15 15.03007507 0.3111425042
vn 0.1318761259 0.1518903822 -0.9795600772
v -8.074680328 0.4089707136 1.039599419
vn -3.186166708e-08 -0.08715573698 0.9961947203
v 0.8993349671 -0.8431116343 0.9300566316
vn -9.143518831e-09 -0.08715575933 0.9961947203
v -4.973333836 5.112846375 1.451135278
vn -3.036783269e-08 -0.08715573698 0.9961947203
v -0.3207292259 8.133419991 1.715401173
vn -3.18887956e-08 -0.08715573698 0.9961947203
# mm_gid 0
g mmGroup0
f 1//1 2//2 3//3 
f 4//4 1//1 3//3 
# mm_gid 1
g mmGroup1
f 5//5 6//6 7//7 
f 8//8 5//5 7//7 
# mm_gid 2
g mmGroup2
f 8//8 7//7 1//1 
f 4//4 8//8 1//1 
# mm_gid 3
g mmGroup3
f 9//9 10//10 11//11 
f 6//6 2//2 9//9 
f 2//2 1//1 10//10 
f 12//12 11//11 10//10 
f 7//7 10//10 1//1 
f 6//6 12//12 7//7 
f 2//2 10//10 9//9 
f 6//6 9//9 11//11 
f 7//7 12//12 10//10 
f 6//6 11//11 12//12 
# mm_gid 4
g mmGroup4
f 2//2 6//6 5//5 
f 3//3 2//2 5//5 
# mm_gid 5
g mmGroup5
f 4//4 3//3 5//5 
f 8//8 4//4 5//5 
