v 15 -14.43741322 -4.190611362
vn 0.1384041011 -0.46546188 0.8741793633
v -15 -14.43741322 -4.190611362
vn -0.1510968059 -0.4080968797 0.9003480673
v -15 -13.75337315 -6.06999588
vn -0.06593799591 0.214359194 -0.9745267034
v 15 -13.75337315 -6.06999588
vn 0.03329635039 0.3103524446 -0.9500382543
v -15 14.43741131 4.190610409
vn -0.06637226045 0.4028796852 -0.9128431678
v -15 13.75337124 6.069994926
vn -0.1052389592 -0.2393187881 0.9652208686
v 14.99998283 13.75337124 6.06999588
vn 0.07659687102 -0.1930110902 0.9782022238
v 15 14.43741131 4.190611839
vn 0.1318760961 0.4002436697 -0.9068703055
v -8.074680328 0.1259672493 1.110025764
vn -3.186165998e-08 -0.342020154 0.9396926165
v 0.8993349671 -1.055099845 0.6801527143
vn -9.143517055e-09 -0.3420201838 0.9396926165
v -4.973333836 4.563049316 2.724991798
vn -3.036782559e-08 -0.342020154 0.9396926165
v -0.3207292259 7.412302017 3.762035131
vn -3.18887885e-08 -0.342020154 0.9396926165
# mm_gid 0
g mmGroup0
f 1//1 2//2 3//3 
f 4//4 1//1 3//3 
# mm_gid 1
g mmGroup1
f 5//5 6//6 7//7 
f 8//8 5//5 7//7 
# mm_gid 2
g mmGroup2
f 8//8 7//7 1//1 
f 4//4 8//8 1//1 
# mm_gid 3
g mmGroup3
f 9//9 10//10 11//11 
f 6//6 2//2 9//9 
f 2//2 1//1 10//10 
f 12//12 11//11 10//10 
f 7//7 10//10 1//1 
f 6//6 12//12 7//7 
f 2//2 10//10 9//9 
f 6//6 9//9 11//11 
f 7//7 12//12 10//10 
f 6//6 11//11 12//12 
# mm_gid 4
g mmGroup4
f 2//2 6//6 5//5 
f 3//3 2//2 5//5 
# mm_gid 5
g mmGroup5
f 4//4 3//3 5//5 
f 8//8 4//4 5//5 
