v 2.5 -50.00000381 0.9999995232
vn 0.6243903637 -0.03121951781 0.7804883122
v -2.5 -50.00000381 0.9999995232
vn -0.3713748455 -0.009284373373 0.9284365773
v -2.5 -50.00000381 -1.000000477
vn -0.3711348176 -0.03711348027 -0.9278370142
v -2.5 50.00000381 -1.000000477
vn -0.3713265657 0.01856633276 -0.9283167124
v -2.5 50.00000381 0.9999995232
vn -0.371326983 0.01856633089 0.9283165336
v 2.499997377 50.00000381 1.000000477
vn 0.1960783303 0.01960783824 0.980392158
v 2.5 50.00000381 -0.999999404
vn 0.6246191859 0.0156154912 -0.7807733417
v 2.5 -50.00000381 -1.000000477
vn 0.1961067915 -0.009805330075 -0.9805335402
# mm_gid 1
g mmGroup1
f 1//1 2//2 3//3 
f 8//8 1//1 3//3 
# mm_gid 2
g mmGroup2
f 4//4 5//5 6//6 
f 7//7 4//4 6//6 
# mm_gid 3
g mmGroup3
f 7//7 6//6 1//1 
f 8//8 7//7 1//1 
# mm_gid 4
g mmGroup4
f 6//6 5//5 2//2 
f 1//1 6//6 2//2 
# mm_gid 5
g mmGroup5
f 2//2 5//5 4//4 
f 3//3 2//2 4//4 
# mm_gid 6
g mmGroup6
f 8//8 3//3 4//4 
f 7//7 8//8 4//4 
