v 0.01461912505 -0.007685713936 -0.0009524875204
vn 0.819822073 -0.5375342965 0.1973541826
v 0.01498566195 -0.003624015721 -0.003265565261
vn 0.9324231148 0.3096973598 -0.1862113476
v 0.01342146471 -0.001052060514 -0.001959507354
vn 0.8325904608 0.4599157572 0.3086593747
v 0.01372225489 -0.0008582277806 -0.003986000549
vn 0.880201757 0.4510142505 -0.1477531493
v 0.01179769263 -0.005941463169 0.006021665409
vn 0.6001175642 0.006373285782 0.7998864055
v 0.009585110471 0.005299097393 -0.003634156659
vn 0.687099874 0.7265378237 0.00604482647
v 0.007494530641 0.006917062681 -0.004240126815
vn 0.3095902205 0.9501327872 -0.03743704036
v 0.007235451601 -0.00819700025 0.004661729094
vn 0.006622624118 -0.9531276822 0.3024958074
v 0.01416091807 -0.004345706198 -0.006436576601
vn 0.9442488551 0.1279604435 -0.3033483922
v -0.004985585809 0.008347576484 0.006865250878
vn 0.03964809701 0.9699206948 -0.2401704788
v 0.01186126098 0.002559361048 -0.003073619911
vn 0.8433358669 0.5372390747 -0.01260084938
v 0.01524961274 -0.003918095492 -0.001528235734
vn 0.8716971278 0.358545959 0.3340492547
v 0.008592235856 0.003483860986 -0.009755310602
vn 0.05670176819 0.09261186421 -0.994086504
v -0.006702122744 0.008659563027 0.009758761153
vn 0.08359401673 0.9860553145 0.1438992769
v 0.01132990513 -0.000469036866 -0.009934245609
vn 0.2063758522 0.1402610391 -0.9683676362
v 0.01411571819 -0.006556976121 0.002589560347
vn 0.9519605041 0.01807156391 0.3056870997
v 0.00977489166 0.00102798373 0.003462227527
vn 0.7921314836 0.4076996744 0.4542121291
v 0.010148881 0.002423922298 -0.008200060576
vn 0.7775689363 0.5047831535 -0.3749407232
v 0.007976183668 -0.003089664504 0.007645752747
vn 0.2675885558 -0.02735254355 0.963144958
v 0.01339454763 -0.007189680822 0.004152589478
vn 0.6807267666 -0.4824113548 0.5512624979
v 0.01396067347 -0.005427650642 -0.007216921542
vn 0.8203428388 -0.4119466841 -0.3966579437
v 0.007060831413 0.00492807338 0.004908028524
vn 0.7610297203 0.5335934758 0.36893332
v -0.006558014546 -0.008606221527 -0.002035808051
vn -0.1298899651 -0.9898082018 0.05838045105
v 0.01170796808 -0.006414141972 -0.009109199978
vn 0.6040240526 -0.6650422812 -0.4391738772
v 0.01238903869 -0.0001143599293 -0.006335633341
vn 0.8305212855 0.4762518704 -0.2888226509
v 0.01199123263 -0.008087673225 -0.003240341786
vn 0.3410142958 -0.9377425313 -0.06594092399
v 0.01344362739 -0.002824223135 -0.007728165016
vn 0.8839911819 0.3669988215 -0.2896056771
v 0.01153272577 0.0001170383912 -0.008318652399
vn 0.8064689636 0.493793577 -0.3252317011
v 0.01460483484 -0.005846944638 0.0003041746095
vn 0.9192667007 0.08280896395 0.3848265111
v 0.01313678641 -0.003767611925 -0.009786291979
vn 0.7777234316 0.07030145079 -0.6246631145
v 0.0156288892 -0.005946969613 -0.002899873536
vn 0.9692107439 -0.2138841003 -0.1220004633
v -0.001874225563 0.008504227735 0.009572755545
vn 0.06399746239 0.9979173541 -0.008079218678
v 0.01156887412 0.002004438778 -0.005543821491
vn 0.8277906775 0.4799833 -0.2904799283
v 0.01273450442 -0.006448057014 -0.00762656657
vn 0.5903229117 -0.7429832816 -0.3154278696
v 0.01119345892 0.0004138356308 0.001399155706
vn 0.8137080669 0.4309203923 0.390111208
v 0.009116034023 -0.008079780266 0.003262694459
vn 0.1358841658 -0.9684944153 0.2086960971
v 0.008366387337 -0.008897130378 -0.007896464318
vn 0.2294269651 -0.9518316984 -0.2034200579
v 0.01299398206 -0.003535524942 0.001532652532
vn 0.8079075217 0.4023817778 0.4305512607
v 0.006098093465 0.005704629701 -0.009487042204
vn -0.08527832478 0.3694493473 -0.925329566
v 0.01416939404 -0.007525268942 -0.002458232688
vn 0.4367467463 -0.8748012781 -0.2097020894
v 0.009391672909 -0.007964531891 -0.009890498593
vn 0.2209961563 -0.5203153491 -0.8248834014
v 0.01177526917 -0.007694594096 -0.005967169069
vn 0.4827542901 -0.8419604301 -0.2409376651
v 0.01188679319 -0.00520063052 -0.009933915921
vn 0.1494650841 -0.1129771024 -0.9822914004
v 0.009146764874 0.004515026696 -0.007269352674
vn 0.8422547579 0.3777623177 -0.3845810294
v -0.01113899238 -0.007529922761 -0.005013097078
vn -0.2580453157 -0.9616060257 0.09341540188
v 0.003487350419 0.0050416952 -0.007729137782
vn -0.252304405 0.9364298582 -0.2438065708
v 0.009366500191 -0.002173178596 0.006264400668
vn 0.7296245098 0.3440384269 0.5910038948
v 0.004557981621 0.006526390091 -0.002640408929
vn -0.1081016287 0.9826324582 -0.1508227289
v 0.006333947182 0.006847209297 -0.005702708382
vn -0.0618644692 0.9794415832 -0.1920076013
v 0.009556350298 -0.00912354514 -0.003585642902
vn 0.1782310456 -0.9838560224 0.01615579613
v 0.01328765694 -0.007860685699 0.001613361062
vn 0.3457604647 -0.9241748452 0.1623286605
v 0.005545586348 -0.008430968039 0.00267568673
vn -0.07303442806 -0.9845882654 0.1589086205
v 0.01132448018 -0.008265653625 -0.000177423557
vn 0.1592985243 -0.9830451608 0.09080868214
v 0.004411002621 0.006351327058 0.008665802889
vn 0.5657932162 0.4175377488 0.7110135555
v -0.002073843963 -0.007539028302 0.003119996283
vn -0.07221502066 -0.9693242908 0.2349369228
v 0.007929173298 0.001194888377 0.005955197848
vn 0.816044271 0.3524546921 0.45809111
v -0.001923894859 0.007024674676 0.002744202036
vn -0.1628274322 0.9465132356 -0.2785675526
v 0.008874120191 0.005710426252 -0.000179690498
vn 0.7464103699 0.6058614254 0.2753243446
v 0.01235489734 -0.005047485232 0.004351819865
vn 0.7890344858 0.4083800018 0.4589665532
v 0.008368457668 0.005932986736 -0.008652443998
vn 0.5434586406 0.7860354781 -0.2946199775
v 0.004452796187 -0.009500478394 -0.007064478938
vn 0.03618323803 -0.9990837574 0.02285763808
v 0.005031911656 -0.005563694984 -0.009937101975
vn -0.02266937308 0.004496970214 -0.9997329116
v 0.004569505807 0.006622043438 0.005479627755
vn 0.4385960996 0.8886298537 0.1340539604
v 0.006588447839 0.006413842551 0.001894053072
vn 0.3708099127 0.9147585034 0.1603650302
v 0.01134344935 0.002224367578 -0.001175023266
vn 0.8126115203 0.5090283751 0.2838180661
v 0.008790523745 -0.006514230277 0.007269298658
vn 0.2561960518 -0.3602342606 0.8969920874
v 0.01006178744 0.004350612871 -0.005685522687
vn 0.8090443015 0.5362499952 -0.2405894697
v -0.008979243226 0.006102769636 0.002513170941
vn -0.09207660705 0.9407845736 -0.326261133
v 0.005529306363 -0.008960327134 -0.002012163401
vn -0.04080874845 -0.9899081588 0.1357073784
v 0.00191386824 0.007427506614 0.002063507214
vn -0.0001702306472 0.9920583367 -0.1257786602
v -0.002715395065 0.004405098967 -0.007017998025
vn -0.2249651253 0.9385049343 -0.2619143426
v 0.008026499301 -0.008592173457 0.0007244665758
vn 0.08233686537 -0.9905845523 0.109374851
v 0.0008485913859 0.005585826468 -0.004510877654
vn -0.1841735542 0.954654038 -0.2339139134
v 0.0110998787 -0.007320093922 0.004712190479
vn 0.1883510947 -0.8969501257 0.4000053704
v 0.001148907933 0.007913537323 0.00555903418
vn 0.1864875257 0.9821009636 -0.0264603626
v 0.007014005911 0.006956287194 -0.0008353313897
vn 0.1644931287 0.986006856 0.0270646438
v 0.007168424316 -0.00714458758 0.006693386007
vn 0.0952077359 -0.8681838512 0.4870239198
v -0.01004171744 0.008338810876 0.01097155735
vn -0.4630202651 0.8476892114 0.25891155
v 0.0005398241337 0.006718248129 -0.0007159142406
vn -0.1635169089 0.9524681568 -0.2570343316
v 0.002523493022 -0.0060411226 0.008414944634
vn 0.1572221667 -0.2667307854 0.9508606195
v -0.0036685823 0.005242180545 -0.002345328219
vn -0.2223428041 0.9562684894 -0.1900373846
v -0.007959311828 0.008781517856 0.008492902853
vn -0.1801432967 0.9448897839 -0.273371011
v -0.002709282329 -0.009117698297 -0.009589008056
vn -0.05444018915 -0.3376239836 -0.9397054315
v -0.003718063002 -0.008196888492 -0.002209711354
vn -0.01445140038 -0.9996939898 0.02007821389
v -0.005066053476 0.004070460331 -0.005325380713
vn -0.226353839 0.9372004271 -0.2653664052
v 0.006449677981 0.002948562847 0.007908076979
vn 0.7742772698 0.2796921134 0.5676856637
v -0.004184684716 0.008300964721 0.0111641055
vn 0.2433763891 0.2356844693 0.940861702
v -0.003073134227 -0.0007405413198 0.01004632376
vn 0.1889475733 -0.1140848696 0.9753376245
v 0.0007836143486 0.004409472458 -0.009321955033
vn -0.143208012 0.6177592874 -0.7732172608
v -0.005353701301 0.007211536169 0.005140598863
vn -0.1201904267 0.9089735746 -0.399150759
v -0.0009590323898 -0.008419943042 0.0006219846546
vn 0.1288685352 -0.9823102355 0.1358655989
v -0.01119160559 0.006062871777 0.0121763777
vn -0.4727408588 0.2590390146 0.8422676921
v -0.008212729357 -0.006529043894 0.008004090749
vn -0.1167780235 -0.9685838819 0.2195636183
v -0.001618866459 -0.008846992627 -0.006670301314
vn -0.1131439656 -0.9759835601 0.1861571372
v 0.002018848434 -0.008051675744 0.001537781442
vn -0.06757167727 -0.9902125001 0.1221197173
v -0.01084180642 -0.007421245798 -0.0003958016168
vn -0.3323109746 -0.937270999 0.1053207964
v 0.002482764656 -0.009094829671 -0.009713216685
vn 0.04748836905 -0.6662721634 -0.744195044
v -0.00280812569 0.007873137482 0.007420217153
vn -0.000408415799 0.9893014431 -0.1458853483
v -0.0037875704 -0.008202117868 0.0009642970399
vn -0.06433421373 -0.949228406 0.3079391122
v -0.01157719921 -0.008018322289 -0.007755825296
vn -0.2812467813 -0.9524726868 0.1170298085
v 0.0004918163759 -0.006792548578 0.007507416885
vn -0.05721439049 -0.9530985355 0.2972031236
v 0.0009302804247 -0.009782068431 -0.007434624713
vn -0.07055395842 -0.9970166683 0.03130432218
v -0.002597871469 -0.009154611267 -0.0008350631688
vn 0.03368270397 -0.9994321465 -0.0009089834057
v 0.0004990527523 -0.008862756193 -0.004269309342
vn -0.09501094371 -0.9843574762 0.1483688205
v -0.001482192776 0.005688427482 -0.001739188097
vn -0.2585371137 0.9321267009 -0.2535712719
v -0.0103631597 -0.004924693145 0.0104127042
vn -0.09310121834 -0.5160690546 0.851472199
v -0.005337845534 -0.006186607759 0.009559502825
vn 0.09184966981 -0.5044719577 0.8585287929
v -0.009014113806 0.002859544009 -0.005755675491
vn -0.1762984544 0.9230117798 -0.3420059979
v -0.00511246454 -0.008191239089 -0.004882159643
vn 0.02808652818 -0.9915959239 0.1262881011
v -0.01064313576 0.003754149191 -0.003447015304
vn -0.07556663454 0.9352785349 -0.3457510173
v -0.008606863208 -0.006710357964 0.004759862088
vn -0.05315595865 -0.9718946218 0.2293366045
v -0.007520731539 0.0022741789 -0.00905073341
vn -0.2009201944 0.6218061447 -0.7569598556
v -0.009419821203 -0.002949410351 -0.009490340948
vn -0.0463312529 0.04092407227 -0.9980874658
v 0.001041710959 0.00764471991 0.009702310897
vn 0.2930618227 0.1645200253 0.9418322444
v -0.007737802807 -0.008102643304 0.0006793964421
vn -0.1402467936 -0.9668765068 0.2132620215
v -0.009124461561 0.00756952865 0.01231350284
vn 0.1544597 0.04477921873 0.9869837761
v -0.01215769164 0.00155959127 -0.008446135558
vn -0.09288483858 0.6910361052 -0.7168273926
v -0.01154809818 0.001784440479 0.01190695632
vn 0.08316109329 -0.1355975717 0.9872677326
v -0.005908424035 -0.009146424942 -0.007651518099
vn -0.1026167646 -0.991111517 0.08466230333
v -0.004532244988 0.005371880718 0.0001468588598
vn -0.1319317967 0.9453433752 -0.2981943488
v -0.01154904254 -0.006128887646 0.006039959844
vn -0.3293983638 -0.9221640825 0.2027562559
v -0.01052127592 -0.008278599009 -0.009350758046
vn -0.1686056405 -0.400591284 -0.9006102085
v -0.003906755242 -0.0064712069 0.007194912061
vn -0.04416345432 -0.9860303998 0.1606040001
v -0.01486644149 0.002425749786 -0.000617529091
vn -0.9140161276 0.3810668588 0.1391495764
v -0.01363799814 0.002517498331 0.01130057033
vn -0.7085330486 0.08250527084 0.7008379102
v -0.0115641905 0.007327646017 0.008579896763
vn -0.6202857494 0.7825516462 -0.05346447229
v -0.01306535862 0.005461527035 0.00543074403
vn -0.8704423308 0.4921690822 -0.009987501428
v -0.01483922824 0.0004652506905 0.006364701781
vn -0.9549352527 0.2823191881 0.09162154049
v -0.01281618886 0.005044559482 0.0105764661
vn -0.8767399788 0.4508656859 0.1674728841
v -0.01276587136 -0.001254484057 0.01147187781
vn -0.01653360948 -0.2132851183 0.9768500924
v -0.01016720757 0.007380288094 0.006506783888
vn -0.2480663806 0.9139143229 -0.3212844729
v -0.01372173429 -0.006608294789 -0.004066608846
vn -0.4874169528 -0.8641474843 0.1251950562
v -0.01307850331 0.004999576602 0.001997988904
vn -0.6907262206 0.7195163369 -0.07206618786
v -0.01532977819 0.002220107242 -0.006612209138
vn -0.2608717084 0.8946462274 -0.3627038896
v -0.01466860902 -0.006614169106 -0.007563871332
vn -0.6055813432 -0.7956658006 -0.01368031092
v -0.0139670847 0.004009158351 -0.002283942187
vn -0.3975697458 0.8947227597 -0.2034932673
v -0.01347808633 0.003311202163 0.007815963589
vn -0.9368402958 0.3405498564 0.07972493768
v -0.0157029517 -0.003507040674 -0.0003918013826
vn -0.9372245073 -0.3353793919 0.09555578977
v -0.01414736826 -0.002082385123 0.01007994451
vn -0.777328372 -0.2562222183 0.5745526552
v -0.0153008746 -0.004818621557 -0.00388491503
vn -0.8990676999 -0.4286468327 0.08910176158
v -0.01603559777 0.001106271986 -0.005419712048
vn -0.9556252956 0.2935719192 0.02440927736
v -0.01565475389 -0.005287094973 -0.008737218566
vn -0.5582835674 -0.2669930756 -0.7855152488
v -0.01458667126 -0.004683111329 0.004458679818
vn -0.7970103621 -0.5942338705 0.107984297
v -0.01555224974 0.0007396274596 -0.00880066026
vn -0.4217143953 0.3535090387 -0.834978044
v -0.01426449697 -0.004305295646 0.008431543596
vn -0.5939799547 -0.7158295512 0.367118299
v -0.01626622118 -0.00200861576 -0.009056019597
vn -0.3650068641 -0.003592244349 -0.9309979081
v -0.01532608178 -0.002840992995 0.006137983408
vn -0.9832577109 -0.09439962357 0.1558622122
v -0.01404638216 -0.005651221611 0.000975904346
vn -0.5961082578 -0.7938559055 0.1201987043
v -0.01450794563 0.0006268892903 0.009130487218
vn -0.9674621224 0.1925828159 0.1641004384
v -0.01624173671 -0.002133791335 -0.006818888709
vn -0.9967218637 -0.07815624028 0.02090685256
v -0.01607539132 -0.001324623474 -0.001509046298
vn -0.9957892299 0.03809279948 0.08338311315
v -0.01553008985 -0.001250796486 0.003007407766
vn -0.9783650637 0.1873903126 0.08767380565
# mm_gid 0
g mmGroup0
f 12//12 31//31 2//2 
f 29//29 31//31 12//12 
f 2//2 3//3 12//12 
f 1//1 31//31 29//29 
f 4//4 3//3 2//2 
f 9//9 2//2 21//21 
f 2//2 9//9 27//27 
f 31//31 1//1 40//40 
f 31//31 21//21 2//2 
f 12//12 38//38 29//29 
f 4//4 2//2 27//27 
f 38//38 12//12 3//3 
f 4//4 27//27 25//25 
f 40//40 21//21 31//31 
f 4//4 11//11 3//3 
f 40//40 42//42 21//21 
f 42//42 40//40 26//26 
f 25//25 11//11 4//4 
f 27//27 21//21 30//30 
f 34//34 21//21 42//42 
f 9//9 21//21 27//27 
f 27//27 15//15 28//28 
f 25//25 33//33 11//11 
f 15//15 27//27 30//30 
f 34//34 24//24 21//21 
f 43//43 30//30 21//21 
f 51//51 40//40 1//1 
f 30//30 43//43 15//15 
f 65//65 3//3 11//11 
f 29//29 59//59 16//16 
f 28//28 25//25 27//27 
f 29//29 51//51 1//1 
f 28//28 33//33 25//25 
f 38//38 59//59 29//29 
f 51//51 29//29 16//16 
f 24//24 43//43 21//21 
f 51//51 16//16 20//20 
f 59//59 20//20 16//16 
f 53//53 40//40 51//51 
f 33//33 67//67 11//11 
f 6//6 11//11 67//67 
f 3//3 35//35 38//38 
f 35//35 3//3 65//65 
f 67//67 33//33 18//18 
f 15//15 13//13 28//28 
f 53//53 26//26 40//40 
f 11//11 6//6 65//65 
f 51//51 20//20 74//74 
f 33//33 28//28 18//18 
f 13//13 18//18 28//28 
f 59//59 5//5 20//20 
f 74//74 20//20 5//5 
f 17//17 38//38 35//35 
f 59//59 38//38 17//17 
f 35//35 65//65 58//58 
f 15//15 43//43 62//62 
f 6//6 67//67 60//60 
f 65//65 6//6 58//58 
f 67//67 18//18 44//44 
f 42//42 24//24 34//34 
f 60//60 67//67 44//44 
f 18//18 13//13 44//44 
f 44//44 13//13 60//60 
f 7//7 58//58 6//6 
f 26//26 50//50 42//42 
f 74//74 36//36 51//51 
f 13//13 15//15 62//62 
f 24//24 41//41 43//43 
f 58//58 7//7 76//76 
f 35//35 58//58 17//17 
f 60//60 49//49 6//6 
f 6//6 49//49 7//7 
f 41//41 62//62 43//43 
f 19//19 66//66 5//5 
f 66//66 74//74 5//5 
f 17//17 47//47 59//59 
f 59//59 47//47 5//5 
f 36//36 53//53 51//51 
f 17//17 56//56 47//47 
f 42//42 41//41 24//24 
f 53//53 50//50 26//26 
f 41//41 42//42 37//37 
f 39//39 49//49 60//60 
f 36//36 72//72 53//53 
f 58//58 76//76 64//64 
f 64//64 22//22 58//58 
f 17//17 58//58 22//22 
f 13//13 39//39 60//60 
f 69//69 50//50 53//53 
f 19//19 5//5 47//47 
f 37//37 42//42 50//50 
f 56//56 17//17 22//22 
f 72//72 69//69 53//53 
f 48//48 7//7 49//49 
f 76//76 7//7 48//48 
f 22//22 86//86 56//56 
f 74//74 66//66 77//77 
f 39//39 46//46 49//49 
f 77//77 36//36 74//74 
f 64//64 63//63 22//22 
f 50//50 61//61 37//37 
f 77//77 8//8 36//36 
f 70//70 64//64 76//76 
f 61//61 50//50 69//69 
f 89//89 46//46 39//39 
f 97//97 62//62 41//41 
f 48//48 70//70 76//76 
f 37//37 97//97 41//41 
f 19//19 47//47 86//86 
f 72//72 36//36 52//52 
f 73//73 48//48 49//49 
f 39//39 13//13 113//113 
f 86//86 22//22 54//54 
f 56//56 86//86 47//47 
f 52//52 36//36 8//8 
f 113//113 89//89 39//39 
f 22//22 63//63 54//54 
f 46//46 73//73 49//49 
f 62//62 113//113 13//13 
f 75//75 64//64 70//70 
f 63//63 64//64 75//75 
f 86//86 54//54 19//19 
f 61//61 97//97 37//37 
f 69//69 72//72 52//52 
f 114//114 19//19 54//54 
f 79//79 70//70 48//48 
f 73//73 79//79 48//48 
f 80//80 77//77 66//66 
f 114//114 54//54 63//63 
f 80//80 66//66 19//19 
f 69//69 104//104 61//61 
f 77//77 101//101 8//8 
f 75//75 114//114 63//63 
f 8//8 101//101 52//52 
f 95//95 69//69 52//52 
f 114//114 88//88 19//19 
f 46//46 89//89 73//73 
f 19//19 88//88 80//80 
f 104//104 102//102 61//61 
f 80//80 101//101 77//77 
f 32//32 114//114 75//75 
f 73//73 89//89 71//71 
f 79//79 73//73 105//105 
f 105//105 57//57 79//79 
f 62//62 97//97 83//83 
f 95//95 52//52 55//55 
f 79//79 57//57 70//70 
f 75//75 70//70 98//98 
f 91//91 95//95 55//55 
f 98//98 32//32 75//75 
f 57//57 98//98 70//70 
f 114//114 32//32 87//87 
f 113//113 62//62 83//83 
f 102//102 97//97 61//61 
f 102//102 104//104 94//94 
f 55//55 52//52 101//101 
f 91//91 84//84 95//95 
f 95//95 84//84 69//69 
f 102//102 83//83 97//97 
f 73//73 81//81 105//105 
f 57//57 10//10 98//98 
f 104//104 69//69 84//84 
f 71//71 81//81 73//73 
f 102//102 94//94 83//83 
f 105//105 120//120 57//57 
f 55//55 101//101 123//123 
f 120//120 105//105 81//81 
f 71//71 89//89 112//112 
f 90//90 10//10 57//57 
f 113//113 112//112 89//89 
f 71//71 85//85 81//81 
f 80//80 88//88 107//107 
f 107//107 101//101 80//80 
f 91//91 103//103 84//84 
f 55//55 99//99 91//91 
f 57//57 120//120 90//90 
f 84//84 109//109 104//104 
f 83//83 94//94 119//119 
f 109//109 94//94 104//104 
f 101//101 107//107 123//123 
f 85//85 120//120 81//81 
f 87//87 88//88 114//114 
f 98//98 10//10 14//14 
f 99//99 103//103 91//91 
f 112//112 85//85 71//71 
f 109//109 119//119 94//94 
f 85//85 110//110 120//120 
f 84//84 103//103 23//23 
f 99//99 23//23 103//103 
f 87//87 32//32 98//98 
f 82//82 14//14 10//10 
f 87//87 98//98 14//14 
f 112//112 108//108 85//85 
f 82//82 10//10 90//90 
f 68//68 131//131 90//90 
f 108//108 110//110 85//85 
f 120//120 68//68 90//90 
f 55//55 111//111 99//99 
f 110//110 68//68 120//120 
f 116//116 88//88 87//87 
f 111//111 115//115 99//99 
f 82//82 90//90 131//131 
f 23//23 99//99 115//115 
f 119//119 122//122 83//83 
f 113//113 83//83 122//122 
f 87//87 14//14 116//116 
f 123//123 111//111 55//55 
f 82//82 78//78 14//14 
f 112//112 117//117 108//108 
f 107//107 93//93 123//123 
f 78//78 116//116 14//14 
f 84//84 23//23 109//109 
f 116//116 118//118 88//88 
f 131//131 126//126 82//82 
f 88//88 106//106 107//107 
f 93//93 111//111 123//123 
f 78//78 82//82 126//126 
f 109//109 23//23 119//119 
f 107//107 106//106 93//93 
f 131//131 68//68 133//133 
f 100//100 122//122 119//119 
f 112//112 113//113 117//117 
f 108//108 117//117 110//110 
f 23//23 45//45 119//119 
f 23//23 115//115 96//96 
f 78//78 92//92 116//116 
f 111//111 121//121 115//115 
f 45//45 100//100 119//119 
f 96//96 45//45 23//23 
f 92//92 118//118 116//116 
f 136//136 68//68 110//110 
f 121//121 96//96 115//115 
f 126//126 129//129 78//78 
f 93//93 121//121 111//111 
f 92//92 78//78 129//129 
f 127//127 126//126 131//131 
f 127//127 131//131 133//133 
f 118//118 130//130 88//88 
f 136//136 133//133 68//68 
f 106//106 121//121 93//93 
f 88//88 130//130 106//106 
f 92//92 125//125 118//118 
f 127//127 129//129 126//126 
f 125//125 92//92 129//129 
f 129//129 127//127 137//137 
f 132//132 45//45 96//96 
f 132//132 100//100 45//45 
f 134//134 110//110 117//117 
f 130//130 139//139 106//106 
f 124//124 133//133 136//136 
f 148//148 132//132 96//96 
f 121//121 148//148 96//96 
f 113//113 144//144 117//117 
f 106//106 139//139 145//145 
f 134//134 136//136 110//110 
f 145//145 121//121 106//106 
f 137//137 128//128 149//149 
f 144//144 134//134 117//117 
f 128//128 137//137 127//127 
f 135//135 122//122 100//100 
f 135//135 100//100 132//132 
f 124//124 136//136 141//141 
f 127//127 133//133 152//152 
f 125//125 130//130 118//118 
f 124//124 152//152 133//133 
f 125//125 129//129 149//149 
f 149//149 129//129 137//137 
f 134//134 141//141 136//136 
f 121//121 143//143 148//148 
f 152//152 128//128 127//127 
f 140//140 132//132 148//148 
f 122//122 142//142 113//113 
f 113//113 146//146 144//144 
f 145//145 143//143 121//121 
f 141//141 134//134 144//144 
f 130//130 125//125 139//139 
f 122//122 135//135 142//142 
f 135//135 132//132 140//140 
f 142//142 146//146 113//113 
f 151//151 124//124 141//141 
f 149//149 139//139 125//125 
f 150//150 141//141 144//144 
f 152//152 143//143 147//147 
f 135//135 140//140 142//142 
f 150//150 144//144 146//146 
f 149//149 128//128 147//147 
f 147//147 139//139 149//149 
f 150//150 151//151 141//141 
f 124//124 151//151 152//152 
f 148//148 143//143 138//138 
f 140//140 148//148 138//138 
f 142//142 150//150 146//146 
f 150//150 142//142 140//140 
f 128//128 152//152 147//147 
f 151//151 138//138 152//152 
f 138//138 143//143 152//152 
f 143//143 145//145 147//147 
f 140//140 138//138 151//151 
f 147//147 145//145 139//139 
f 150//150 140//140 151//151 
