v -0.01678399742 -0.08073727787 -0.01085918862
vn -0.1994861364 -0.9719021916 -0.124945417
v -0.03485000134 -0.07761215419 -0.0159932822
vn -0.4493772388 -0.7803407311 -0.4348889887
v 0.0003800333361 -0.08379676938 -0.01939861663
vn -0.08461708575 -0.9165660143 -0.3908281326
v -0.003587094368 -0.08755456656 0.01143097226
vn -0.1263727993 -0.9919201136 -0.01115191542
v 0.000765534176 -0.01591267623 0.04457046837
vn 0.3138405681 -0.3044856787 0.8993289471
v -0.03116154857 -0.06548220664 0.03847780824
vn 0.1532427669 -0.2857338488 0.9459771514
v -0.05706685409 -0.06585117429 0.02120735496
vn -0.9789264202 0.06726506352 0.1928172559
v -0.04977211729 -0.04129097983 -0.005194051191
vn -0.9802250862 0.1515913159 -0.127196297
v -0.02861970477 -0.0665563643 -0.03674046695
vn -0.1365253329 -0.5471987724 -0.8257931471
v 0.04321970791 -0.07317977399 0.02269310318
vn 0.7094008327 -0.7042925358 0.0268778652
v -0.004441600293 -0.07301338762 -0.02956399135
vn 0.1694694012 -0.4562020898 -0.8735901713
v -0.05375555158 -0.06472871453 0.007857187651
vn -0.9526949525 0.1858022362 -0.2405198961
v -0.0327837579 -0.08667190373 0.0211523883
vn -0.00269457465 -0.9604997039 0.2782680094
v -0.05474103987 -0.08059309423 0.007406319492
vn -0.7326591015 -0.5864433646 -0.3453907967
v -0.04597968981 -0.07419227809 0.03085964173
vn -0.3805588782 -0.4680265188 0.7975751162
v -0.03875092044 -0.08643434197 0.0109702982
vn -0.08511437476 -0.9821615219 -0.167673111
v -0.04842427373 -0.06097054854 -0.00925546512
vn -0.9171242118 -0.09880889207 -0.3861606121
v -0.004126366694 -0.05111641437 0.03449901938
vn 0.05866565555 0.06267939508 0.9963080287
v 0.0164113678 -0.08296821266 0.02886566892
vn 0.1528615803 -0.8038929701 0.5747951269
v 0.0725478977 -0.01431783941 -0.004080815241
vn 0.9998947382 0.01424190588 0.002775435569
v 0.05859220028 -0.05366690457 0.03007447161
vn 0.8713360429 -0.4199053049 0.2538760006
v -0.04983905703 -0.03831217065 0.04153163359
vn -0.9328634739 0.2974699736 0.2031682432
v 0.01135583036 -0.008133696392 0.03960190713
vn 0.2572589815 0.1179923564 0.9591118693
v -0.04832597822 -0.08312431723 0.02230282687
vn -0.3700988889 -0.7607257366 0.5332196355
v 0.01837138832 -0.09091026336 0.00635983143
vn 0.1399789751 -0.9897212982 -0.02928483859
v -0.03494731337 -0.07916942239 0.001010167296
vn -0.1022202522 -0.9463515282 -0.3065449893
v 0.0398253575 -0.06673908979 0.03450380638
vn 0.1461405307 -0.3444254696 0.9273694158
v 0.05259395018 -0.04900816083 0.03835775331
vn 0.1875979602 -0.00327717769 0.9822404385
v 0.01216436923 -0.06679171324 0.03382540122
vn 0.02897513844 -0.09307783842 0.995237112
v -0.01266471297 -0.07519131899 0.03478732705
vn 0.01300439704 -0.4356615245 0.9000166059
v 0.04020321742 -0.06175589934 -0.01986542717
vn 0.6911510825 -0.4119485021 -0.5938085318
v -0.04160134867 -0.03149603307 -0.02383302711
vn -0.9711897373 0.05762564018 -0.2312352061
v -0.005199346691 -0.00179233274 0.03881733119
vn 0.1482977569 -0.06207020953 0.9869929552
v -0.04710893705 -0.03986102715 0.008641325869
vn -0.9542862177 0.2794359922 0.1060818657
v -0.04141741246 -0.03959887102 0.05211221054
vn -0.205885604 -0.1434811205 0.9680001736
v 0.03297036886 -0.08147569001 0.006776300725
vn 0.5275679827 -0.8421521187 0.1115878001
v -0.03385990486 -0.01777453907 0.04507831112
vn -0.4952647984 0.5661218762 0.6589528322
v 0.02257615142 -0.01433920767 -0.0367237404
vn 0.1900219768 -0.1342592239 -0.9725564718
v -0.04337608069 -0.03614432365 0.02675788105
vn -0.8986420631 0.4368138015 -0.04044963047
v -0.006390348542 -0.03931797668 0.03159867972
vn 0.263594389 -0.1971860528 0.9442645907
v 0.06333883852 -0.01777149923 -0.01661162637
vn 0.7542006969 -0.3359576762 -0.5641930103
v -0.04439778626 -0.05276164412 0.03987848759
vn -0.5815003514 -0.3631131947 0.7280151844
v -0.01643883809 -0.02022621222 0.04520730302
vn 0.1393928826 0.07496216148 0.9873957038
v 0.008215887472 -0.02522923052 0.03490962461
vn 0.2774055898 -0.2494170517 0.9278131723
v -0.03937760741 -0.0354764089 0.01067985781
vn -0.9474208951 0.289760083 0.1357671469
v -0.01913983002 -0.08259209245 0.02442253567
vn -0.02742280066 -0.8969916701 0.4411960542
v 0.04647543281 -0.03469719365 0.03469242156
vn 0.04119931906 0.202890113 0.9783344269
v 0.02429342456 -0.04497282207 0.03335316107
vn -0.04011753201 0.04971525446 0.9979574084
v -0.03788430989 -0.0588642247 -0.03168857843
vn -0.8581485748 -0.2180348933 -0.4648029506
v 0.03192839026 -0.01940967888 0.02961705811
vn 0.007094820496 0.005729844794 0.999958396
v 0.02773570269 -0.08171361685 -0.01520544197
vn 0.5728366971 -0.6831886768 -0.4528922439
v -0.01806824282 0.001195579069 0.04468901828
vn -0.3159295917 -0.5269584656 0.7889887691
v 0.06047621742 -0.04569642991 0.009901762009
vn 0.8657723069 -0.4646274149 -0.1859024316
v 0.03037224524 -0.001954461215 0.03306353092
vn 0.4225455225 0.2334000468 0.8757737875
v -0.03690865636 0.02823446691 0.02509954572
vn -0.9669635296 0.01724856906 0.2543306351
v -0.04453238845 3.539342288e-05 0.0138568962
vn -0.974679172 -0.04753126577 0.2184978724
v 0.05121514946 0.0007365497295 -0.005575504154
vn 0.4318338633 0.8583700657 0.2769844532
v 0.01770235784 -0.0605937168 -0.0307514295
vn 0.2612832189 -0.2760337889 -0.9249520898
v -0.03741824999 -0.01151321456 0.01576452889
vn -0.9431288242 0.009566462599 0.3322897851
v -0.02661535889 -0.03586022183 0.04736738279
vn 0.3963832855 -0.2386938632 0.886513114
v -0.008003991097 -0.04826041311 -0.03808022663
vn 0.1250843406 -0.113599807 -0.9856210947
v -0.04197762907 -0.01267429627 -0.00137685833
vn -0.9929992557 0.1174063385 -0.01296937931
v 0.06292902678 -0.02506074682 0.02652488649
vn 0.847545743 0.1830936372 0.498139441
v 0.03245492652 0.008518789895 0.01652194373
vn 0.7417035699 0.5086434484 0.4372158349
v 0.0196453575 0.01466871891 0.03542382643
vn 0.6656656265 -0.2122185379 0.7154387236
v -0.02990561537 -0.00685145054 0.03287320957
vn -0.8258078098 0.1863285005 0.5322811007
v 0.05092827976 -0.0179970488 0.02751319669
vn 0.5059107542 0.5616880655 0.6546455622
v -0.00976307597 0.009792314842 0.04742857814
vn 0.03011876158 -0.4806958139 0.8763700128
v -0.04077738151 -0.0008771775174 -0.01823624596
vn -0.9972403049 0.05718130991 -0.04735024646
v 0.0517453216 0.001239311649 -0.006180346478
vn 0.3706041873 0.9257965684 0.0745203644
v -0.03991220519 0.005111323204 -0.04018367082
vn -0.8590880632 0.000760793162 -0.5118272305
v -0.01678667404 -0.01815248094 -0.03576097265
vn -0.04456237704 -0.04332843795 -0.9980665445
v -0.009886640124 0.0271023754 0.05304868147
vn -0.06115569174 0.1122865379 0.991792202
v 0.0477267839 -0.003832781222 0.01198661793
vn 0.5924250484 0.6819067001 0.4289939404
v -0.03302754089 -0.04286293313 -0.04097985476
vn -0.1563604474 0.01254079957 -0.9876204729
v -0.0362913236 0.04923033342 0.03173870221
vn -0.868246913 -0.3008023202 0.3945443332
v 5.254770804e-05 -0.0244261194 -0.03720854595
vn 0.0151494788 -0.132308051 -0.9910928607
v 0.05156728625 -1.537273056e-05 -0.004993805196
vn 0.5727066994 0.3418409526 0.7450850606
v 0.06141999736 -0.004955795594 -0.0006170133711
vn 0.5474504232 0.7398861051 0.3909815848
v 0.03412600607 0.02990366146 0.02084508725
vn 0.9009107351 -0.1602143049 0.4033499956
v -0.04126183689 -0.0178224612 -0.03460987285
vn -0.732552588 -0.0365879871 -0.6797264218
v 0.0502881296 0.003542305436 -0.008816691115
vn 0.367415607 0.8990058303 0.2383154929
v -0.005348888226 -0.009527993388 -0.04313308746
vn -0.1854640841 -0.4726487398 -0.8615139127
v 0.03707107529 0.006442763377 -0.01164316013
vn 0.834397316 0.547639966 -0.06222199276
v 0.01339898445 -0.00485972641 -0.04009367898
vn 0.3369685113 -0.3534678519 -0.8726469278
v 0.004120856058 0.01645753905 0.05229773745
vn 0.3561560214 -0.2695063651 0.8947173953
v -0.03726541623 0.02092311345 -0.04126016423
vn -0.9523425102 0.1613593251 -0.2588568628
v 0.04684073851 0.004446906038 -0.002482403535
vn 0.6937208176 0.6890297532 0.2097365111
v -0.0393730849 0.01049732603 -0.02998625301
vn -0.9840533137 0.1310327351 -0.1202892736
v -0.03310472891 0.02340118587 -0.05033712462
vn -0.2798240185 0.002114071278 -0.9600489736
v -0.03555800021 0.008622807451 0.03189282119
vn -0.8812160492 -0.07835625112 0.4661744237
v 0.04013507441 0.004232078791 -0.03549603
vn 0.3549122214 0.01890414022 -0.9347084761
v 0.02477469668 0.0233827699 0.03716158122
vn 0.749974072 -0.1882422864 0.6341164708
v -0.03635077551 0.06464509666 0.03382685781
vn -0.3976742029 0.1613876075 0.9032216072
v 0.04096873477 -0.03068157285 -0.02962903865
vn 0.4258479774 -0.1980548799 -0.8828520775
v 0.03107091039 0.01019457541 -0.03510189801
vn 0.8573646545 0.1547261477 -0.4909029603
v -0.01674097963 0.009746751748 -0.0502018705
vn -0.190921858 -0.3208481669 -0.9276881218
v 0.06005139649 0.00209113583 -0.02368637361
vn 0.7403464317 0.2983810902 -0.6023752093
v 0.03254402056 0.0600021109 0.02570045739
vn 0.9611478448 0.07727128267 0.2649979889
v -0.01436341554 0.0001286232728 -0.04005308449
vn -0.316606015 -0.4356243014 -0.8426102996
v -0.001275742659 0.07954428345 0.04031706974
vn -0.0359845534 0.6093560457 0.7920797467
v -0.04119728133 0.01361730788 0.004373765551
vn -0.9935010672 0.1037451178 0.04682461172
v -0.02550634556 0.01527569909 0.04887718335
vn -0.4601579905 -0.1972509176 0.8656481504
v 0.00239740056 0.02390973084 -0.05116821826
vn 0.04871604219 0.1509196013 -0.9873449206
v 0.004606518429 -0.0039504366 -0.04855553806
vn 0.1006842852 -0.3094876409 -0.9455580711
v 0.03967861831 0.03626827151 0.008990859613
vn 0.9882807732 0.0419504568 0.1467692703
v 0.02807700075 0.0305149965 -0.02717356384
vn 0.9208877683 0.2652398646 -0.2856808603
v -0.04666768387 0.05309513211 0.01174198929
vn -0.8419679403 -0.533970952 0.07723332942
v -0.032497596 0.02498157322 -0.03178709373
vn -0.9903720617 0.07307750732 -0.1175708473
v 0.02238702588 0.01297040377 -0.04879415408
vn 0.4364361465 -0.2375695854 -0.8678042293
v 0.04017349705 0.02698200941 -0.0092203198
vn 0.9607786536 0.1347978413 -0.2423508167
v -0.0392335467 0.03716153279 0.0009110761457
vn -0.9945568442 -0.09807587415 0.03518259898
v -0.01390969381 0.08505574614 0.0124340672
vn 0.3107897043 0.9344477654 -0.1738309413
v 0.04491825029 0.01006283611 -0.02507731877
vn 0.2691780031 0.9626077414 -0.03048749268
v 0.03626211733 0.01727417298 0.003752866294
vn 0.9557000995 -0.06555193663 0.286949873
v -0.0321556963 0.00796471443 -0.04210420325
vn -0.1984464526 -0.3460029364 -0.9170065522
v -0.02703465708 0.03479006514 0.04495720565
vn -0.6543253064 0.1021393761 0.7492836118
v 0.01063080784 0.08184981346 0.02042683773
vn 0.05829710886 0.9982165694 -0.01284934673
v 0.0278562475 0.07262376696 0.04198927805
vn 0.540813446 0.2402279377 0.8061087728
v -0.02776348218 0.03791893646 -0.04665772989
vn -0.3130631149 0.3748631179 -0.8726220131
v -0.007428856567 0.05448482186 0.04850284755
vn -0.1695169955 0.2539735436 0.9522402287
v 0.0273655057 0.04378053173 0.03415264562
vn 0.8182377815 -0.07514428347 0.5699476004
v 0.03211284056 0.04428336769 -0.007142909337
vn 0.9226647615 0.1790301949 -0.3415229023
v 0.02417439222 0.04696066305 -0.03174211457
vn 0.8581859469 0.2442483753 -0.4515081942
v -0.0346159637 0.075048998 -0.006550829392
vn -0.6532350183 0.6418998837 -0.4015576839
v -0.03612584621 0.05541261286 -0.02739171311
vn -0.7819533944 0.3750787973 -0.4978601933
v 0.01420644112 0.05000024289 0.04533045366
vn 0.3202194571 0.0874144882 0.9433017373
v -0.03737073392 0.04015001282 -0.02842232585
vn -0.9751341939 0.03378965333 -0.2190240324
v 0.02902197093 0.02627754211 -0.04408003762
vn 0.7280465961 0.2105245888 -0.6524013877
v -0.002187256934 0.07881085575 0.02163475566
vn 0.1125377268 0.992562294 -0.04642565548
v 0.03136034682 0.07144650072 -0.00343436352
vn 0.7954826951 0.5605364442 -0.2302305847
v 0.0285828393 0.07751040161 0.02785557881
vn 0.624452889 0.7735956907 0.107742101
v 0.005684737582 0.05734081566 -0.03943002224
vn 0.08461327851 0.459464848 -0.8841564655
v 0.01671061665 0.04210483283 -0.04534946755
vn 0.348415643 0.3893924952 -0.8526312709
v -0.04321124777 0.04554886743 -0.01268749591
vn -0.9600252509 -0.1897488087 -0.2057835162
v -0.05307149887 0.05939213932 0.0250323154
vn -0.9148805737 -0.05197420716 0.400365144
v 0.02326416969 0.06261151284 -0.03156654537
vn 0.6497822404 0.4063452482 -0.642391324
v -0.04827079549 0.06160816178 0.00427820906
vn -0.8890731931 0.377594322 -0.2587882876
v -0.02017352916 0.08487125486 0.02833225206
vn 0.1544715613 0.9425730705 0.2961327136
v 0.02856875025 0.06014356762 -0.01760136895
vn 0.9421126246 0.0684600845 -0.328233242
v -0.02185435966 0.05955088511 -0.03642960265
vn -0.321123153 0.5947427154 -0.7369945645
v 0.0224517826 0.07725659013 -0.001933701336
vn 0.2982048988 0.9400008917 -0.16574727
v 0.03626315668 0.05835794657 0.003504978493
vn 0.979711473 0.1788595915 -0.09041374922
v 0.01665341668 0.07177689672 -0.02454511076
vn 0.276461184 0.8216433525 -0.4984690845
v -0.03977570683 0.07996962219 0.03190937266
vn -0.7172988653 0.586583972 0.376033932
v 0.004641510081 0.07891189307 -0.009483852424
vn 0.05025915429 0.98879987 -0.1405307502
v -0.0346377641 0.09074125439 0.01881766133
vn -0.4012525678 0.9159452915 -0.006372904871
v -0.01967480406 0.07943756878 -0.006568630226
vn 0.03308760002 0.9714899063 -0.2347605973
v -0.008576476946 0.07569778711 -0.02625023201
vn -0.09906478971 0.8193286061 -0.5647006631
v -0.03226495907 0.08458133787 0.005889318418
vn -0.04396589845 0.9027632475 -0.4278848767
# mm_gid 0
g mmGroup0
f 13//13 24//24 16//16 
f 19//19 4//4 25//25 
f 14//14 16//16 24//24 
f 13//13 46//46 24//24 
f 19//19 46//46 4//4 
f 24//24 46//46 30//30 
f 15//15 24//24 30//30 
f 46//46 13//13 16//16 
f 46//46 16//16 4//4 
f 36//36 19//19 25//25 
f 46//46 19//19 30//30 
f 6//6 15//15 30//30 
f 26//26 16//16 14//14 
f 25//25 3//3 51//51 
f 26//26 14//14 2//2 
f 30//30 19//19 29//29 
f 4//4 3//3 25//25 
f 15//15 7//7 24//24 
f 51//51 36//36 25//25 
f 26//26 1//1 4//4 
f 10//10 19//19 36//36 
f 19//19 10//10 27//27 
f 16//16 26//26 4//4 
f 7//7 14//14 24//24 
f 14//14 17//17 2//2 
f 3//3 4//4 1//1 
f 51//51 3//3 11//11 
f 6//6 42//42 15//15 
f 14//14 7//7 12//12 
f 27//27 29//29 19//19 
f 1//1 26//26 2//2 
f 17//17 14//14 12//12 
f 42//42 7//7 15//15 
f 17//17 49//49 2//2 
f 30//30 29//29 18//18 
f 3//3 1//1 2//2 
f 6//6 30//30 18//18 
f 6//6 35//35 42//42 
f 11//11 58//58 51//51 
f 6//6 60//60 35//35 
f 10//10 21//21 27//27 
f 29//29 27//27 48//48 
f 9//9 3//3 2//2 
f 51//51 10//10 36//36 
f 40//40 6//6 18//18 
f 48//48 18//18 29//29 
f 58//58 31//31 51//51 
f 3//3 9//9 11//11 
f 40//40 60//60 6//6 
f 2//2 49//49 9//9 
f 53//53 21//21 10//10 
f 7//7 34//34 12//12 
f 28//28 48//48 27//27 
f 51//51 53//53 10//10 
f 27//27 21//21 28//28 
f 7//7 39//39 34//34 
f 51//51 31//31 53//53 
f 22//22 7//7 42//42 
f 61//61 11//11 9//9 
f 22//22 39//39 7//7 
f 34//34 17//17 12//12 
f 42//42 35//35 22//22 
f 47//47 48//48 28//28 
f 45//45 34//34 39//39 
f 58//58 95//95 31//31 
f 34//34 8//8 17//17 
f 21//21 63//63 28//28 
f 61//61 58//58 11//11 
f 35//35 60//60 37//37 
f 49//49 75//75 9//9 
f 61//61 9//9 75//75 
f 32//32 49//49 17//17 
f 21//21 53//53 63//63 
f 31//31 41//41 53//53 
f 8//8 32//32 17//17 
f 28//28 63//63 47//47 
f 44//44 60//60 40//40 
f 35//35 37//37 22//22 
f 22//22 37//37 39//39 
f 60//60 44//44 43//43 
f 48//48 40//40 18//18 
f 44//44 40//40 48//48 
f 47//47 50//50 48//48 
f 62//62 8//8 34//34 
f 32//32 81//81 49//49 
f 43//43 37//37 60//60 
f 81//81 75//75 49//49 
f 44//44 5//5 43//43 
f 39//39 59//59 45//45 
f 63//63 67//67 47//47 
f 50//50 44//44 48//48 
f 45//45 59//59 34//34 
f 75//75 72//72 61//61 
f 66//66 59//59 39//39 
f 23//23 43//43 5//5 
f 59//59 62//62 34//34 
f 37//37 43//43 33//33 
f 62//62 32//32 8//8 
f 23//23 33//33 43//43 
f 61//61 72//72 77//77 
f 54//54 50//50 47//47 
f 23//23 5//5 44//44 
f 37//37 66//66 39//39 
f 47//47 67//67 54//54 
f 77//77 38//38 61//61 
f 81//81 72//72 75//75 
f 33//33 66//66 37//37 
f 63//63 53//53 20//20 
f 54//54 44//44 50//50 
f 58//58 38//38 95//95 
f 38//38 58//58 61//61 
f 67//67 74//74 54//54 
f 41//41 20//20 53//53 
f 23//23 44//44 54//54 
f 52//52 66//66 33//33 
f 95//95 41//41 31//31 
f 66//66 52//52 91//91 
f 20//20 79//79 63//63 
f 63//63 79//79 67//67 
f 56//56 62//62 59//59 
f 69//69 81//81 32//32 
f 33//33 68//68 52//52 
f 62//62 69//69 32//32 
f 79//79 74//74 67//67 
f 91//91 59//59 66//66 
f 77//77 85//85 38//38 
f 102//102 62//62 56//56 
f 59//59 91//91 56//56 
f 52//52 103//103 91//91 
f 91//91 102//102 56//56 
f 23//23 54//54 33//33 
f 77//77 83//83 85//85 
f 62//62 102//102 69//69 
f 33//33 86//86 68//68 
f 52//52 68//68 103//103 
f 41//41 98//98 20//20 
f 72//72 83//83 77//77 
f 105//105 85//85 83//83 
f 86//86 103//103 68//68 
f 81//81 116//116 72//72 
f 73//73 103//103 86//86 
f 100//100 83//83 72//72 
f 65//65 33//33 54//54 
f 54//54 74//74 64//64 
f 69//69 89//89 81//81 
f 33//33 65//65 86//86 
f 64//64 65//65 54//54 
f 79//79 20//20 98//98 
f 102//102 91//91 55//55 
f 116//116 100//100 72//72 
f 74//74 78//78 88//88 
f 64//64 74//74 88//88 
f 79//79 78//78 57//57 
f 88//88 78//78 79//79 
f 89//89 71//71 81//81 
f 70//70 82//82 78//78 
f 74//74 70//70 78//78 
f 57//57 78//78 82//82 
f 70//70 74//74 57//57 
f 57//57 74//74 79//79 
f 82//82 88//88 57//57 
f 57//57 88//88 70//70 
f 70//70 88//88 79//79 
f 64//64 115//115 65//65 
f 79//79 82//82 70//70 
f 81//81 71//71 116//116 
f 97//97 105//105 83//83 
f 117//117 103//103 73//73 
f 97//97 83//83 100//100 
f 86//86 65//65 93//93 
f 117//117 91//91 103//103 
f 115//115 93//93 65//65 
f 88//88 82//82 84//84 
f 95//95 98//98 41//41 
f 86//86 127//127 73//73 
f 82//82 114//114 84//84 
f 38//38 92//92 95//95 
f 93//93 127//127 86//86 
f 88//88 115//115 64//64 
f 115//115 88//88 84//84 
f 97//97 104//104 105//105 
f 98//98 95//95 92//92 
f 85//85 92//92 38//38 
f 93//93 115//115 80//80 
f 71//71 89//89 87//87 
f 82//82 79//79 98//98 
f 96//96 92//92 85//85 
f 98//98 114//114 82//82 
f 105//105 110//110 85//85 
f 117//117 55//55 91//91 
f 111//111 115//115 84//84 
f 84//84 114//114 96//96 
f 87//87 89//89 109//109 
f 92//92 114//114 98//98 
f 92//92 96//96 114//114 
f 122//122 127//127 93//93 
f 110//110 96//96 85//85 
f 121//121 117//117 73//73 
f 96//96 111//111 84//84 
f 100//100 116//116 97//97 
f 55//55 112//112 102//102 
f 87//87 116//116 71//71 
f 105//105 104//104 110//110 
f 102//102 112//112 69//69 
f 87//87 90//90 116//116 
f 80//80 122//122 93//93 
f 107//107 111//111 96//96 
f 69//69 128//128 89//89 
f 129//129 107//107 96//96 
f 127//127 121//121 73//73 
f 110//110 129//129 96//96 
f 116//116 90//90 97//97 
f 80//80 115//115 106//106 
f 117//117 76//76 55//55 
f 111//111 106//106 115//115 
f 112//112 128//128 69//69 
f 97//97 90//90 104//104 
f 76//76 112//112 55//55 
f 123//123 111//111 107//107 
f 122//122 80//80 106//106 
f 87//87 109//109 128//128 
f 89//89 128//128 109//109 
f 129//129 110//110 104//104 
f 76//76 136//136 108//108 
f 87//87 120//120 90//90 
f 94//94 136//136 76//76 
f 76//76 108//108 112//112 
f 90//90 120//120 104//104 
f 143//143 99//99 106//106 
f 135//135 128//128 112//112 
f 87//87 128//128 120//120 
f 129//129 104//104 134//134 
f 106//106 111//111 123//123 
f 106//106 99//99 122//122 
f 124//124 107//107 129//129 
f 123//123 143//143 106//106 
f 126//126 128//128 135//135 
f 76//76 117//117 94//94 
f 108//108 135//135 112//112 
f 107//107 124//124 123//123 
f 134//134 124//124 129//129 
f 119//119 127//127 122//122 
f 136//136 138//138 108//108 
f 99//99 119//119 122//122 
f 140//140 123//123 124//124 
f 121//121 94//94 117//117 
f 136//136 94//94 145//145 
f 138//138 126//126 135//135 
f 108//108 138//138 135//135 
f 134//134 133//133 124//124 
f 133//133 137//137 124//124 
f 133//133 120//120 141//141 
f 136//136 145//145 138//138 
f 104//104 120//120 133//133 
f 101//101 94//94 121//121 
f 126//126 120//120 128//128 
f 126//126 141//141 120//120 
f 133//133 134//134 104//104 
f 145//145 125//125 138//138 
f 143//143 123//123 140//140 
f 125//125 126//126 138//138 
f 101//101 121//121 127//127 
f 119//119 99//99 132//132 
f 131//131 143//143 140//140 
f 101//101 130//130 139//139 
f 143//143 132//132 99//99 
f 101//101 127//127 119//119 
f 101//101 119//119 132//132 
f 140//140 124//124 137//137 
f 101//101 145//145 94//94 
f 118//118 101//101 132//132 
f 141//141 126//126 125//125 
f 145//145 101//101 139//139 
f 101//101 118//118 130//130 
f 137//137 131//131 140//140 
f 118//118 132//132 142//142 
f 131//131 132//132 143//143 
f 149//149 133//133 141//141 
f 144//144 133//133 149//149 
f 142//142 132//132 131//131 
f 125//125 145//145 147//147 
f 139//139 147//147 145//145 
f 130//130 113//113 139//139 
f 137//137 144//144 131//131 
f 130//130 148//148 113//113 
f 148//148 130//130 146//146 
f 144//144 142//142 131//131 
f 137//137 133//133 144//144 
f 150//150 148//148 125//125 
f 142//142 144//144 146//146 
f 113//113 148//148 150//150 
f 125//125 147//147 150//150 
f 125//125 148//148 149//149 
f 144//144 149//149 146//146 
f 130//130 118//118 146//146 
f 125//125 149//149 141//141 
f 146//146 149//149 148//148 
f 146//146 118//118 142//142 
f 147//147 113//113 150//150 
f 147//147 139//139 113//113 
