v 0.02878831513 0.005914389621 0.02095979638
vn 0.81695503 0.5116831064 0.2660167515
v 0.03660908341 -0.01151008904 0.01113472134
vn 0.9323782325 0.1236725375 -0.3396703005
v 0.03823404759 -0.009677377529 0.01793355308
vn 0.930582583 0.3422708511 -0.1298718601
v 0.01979858615 0.01622275077 0.01287039649
vn 0.4235079885 0.9010950923 -0.09310530871
v 0.03963434696 -0.01486037951 0.01818717271
vn 0.9813008308 -0.1280412078 -0.1437154114
v 0.03215396777 -0.01528669521 0.03680770099
vn 0.745029211 0.2619770765 0.6134325862
v 0.02296582796 0.01386092789 0.006966053043
vn 0.7446774244 0.6480574608 -0.1596151888
v 0.03383041918 -0.008000511676 0.005628675222
vn 0.8887563348 0.3328333795 -0.3151730895
v 0.03854245692 -0.01184801757 0.02238830365
vn 0.8724715114 0.3209598362 0.3684809804
v 0.03396972641 -0.01257061027 0.004412208218
vn 0.8736268282 -0.2117043436 -0.4381294847
v 0.03117543086 -0.003913838416 0.0008682238404
vn 0.4368479848 0.2586497664 -0.8615475297
v 0.03012215719 0.001907230937 0.008944464847
vn 0.8330406547 0.4745949209 -0.284258604
v 0.03286231682 -0.01027149707 0.03002434038
vn 0.7791615129 0.4329482317 0.4532804787
v 0.01988788694 0.01458978653 0.02991096303
vn 0.6263442636 0.6335843801 0.4541626573
v 0.03261821344 -0.002425150713 0.02152660489
vn 0.8127006292 0.4267452657 0.3967444599
v 0.03484954685 -0.003525509033 0.01417450514
vn 0.8808585405 0.4039712548 -0.2467700839
v -0.02471605316 0.0205635 0.05265587941
vn -0.3428604305 0.924050808 0.1690467298
v 0.02804975584 0.001249501249 0.02795049362
vn 0.8040570021 0.4463030994 0.3928179145
v 0.03507187963 -0.00333486381 0.01849723235
vn 0.8427551985 0.5129574537 0.1632124782
v 0.02866955288 0.006955930032 0.01438119449
vn 0.8273621798 0.5516330004 -0.1057015508
v 0.01637209579 0.01260608435 0.04126650095
vn 0.7689387202 0.5718517303 0.285865128
v -0.001779857441 -0.01711669937 0.04336326942
vn -0.007300767116 -0.950451076 0.3107883632
v 0.01513271406 0.0135998223 0.001223191503
vn -0.1463889927 0.4671613276 -0.8719693422
v -0.009720678441 -0.01684257947 0.04278597608
vn -0.0765709877 -0.9850113392 0.1545623243
v 0.03096753731 -0.02046053857 0.0178411901
vn 0.3012574315 -0.9434143901 -0.1386119574
v 0.03694122657 -0.01698353328 0.01496227365
vn 0.6682720184 -0.6778996587 -0.3063732982
v 0.03170542791 -0.01077631209 -0.0003576811287
vn 0.3757727444 -0.02686417103 -0.9263224006
v 0.0358104445 -0.01537027489 0.02948487923
vn 0.8953099251 0.1526571363 0.4184685051
v 0.02610456012 0.003268460045 0.0006835843669
vn 0.3904055059 0.2748533487 -0.8786575794
v 0.0376621671 -0.01732557453 0.02327474579
vn 0.9186511636 -0.3536115885 0.1761786342
v 0.02763136104 -0.01912461035 0.003820892889
vn 0.5178483725 -0.805180788 -0.288993001
v 0.02412331849 0.01140000671 0.01054637786
vn 0.774345994 0.6240475774 -0.104656145
v 0.02671792917 -0.02277814224 0.02142237499
vn 0.200055331 -0.9771078825 0.07237423956
v 0.02135086618 0.01488020923 0.02428246103
vn 0.6563079357 0.7100485563 0.2551292777
v 0.02898671292 -7.011608977e-05 0.004779138137
vn 0.8358879089 0.4844155014 -0.2581337094
v 0.03460707888 -0.01946409047 0.03131426498
vn 0.596806407 -0.7276772261 0.3380946219
v 0.007287397049 -0.02045961656 0.02863997221
vn -0.09664598852 -0.9898609519 0.1040904
v 0.02524047904 0.008457168937 0.006730076857
vn 0.8266248107 0.4772938788 -0.2981307209
v 0.01630022936 0.007896702737 0.04462087154
vn 0.5466457605 0.1439954638 0.8248901367
v 0.0158081539 0.0178910587 0.01553142816
vn 0.1944590062 0.9807191491 -0.01938107051
v 0.03298529238 -0.01571702957 0.005438064691
vn 0.5984925032 -0.7212068439 -0.3488086164
v 0.01232901402 0.01794582792 0.02511590533
vn 0.08259105682 0.9958429337 -0.03841268271
v 0.004354035482 0.01133127697 0.002565571107
vn -0.1033613384 0.4001241028 -0.9106135964
v 0.02362355962 0.01373632345 0.01853893325
vn 0.7435250878 0.6686835289 0.005722125061
v -0.005261130165 0.0195685681 0.04433754086
vn -0.01196559891 0.9917900562 -0.1273159832
v 0.007702810224 0.0131997373 0.01015861705
vn -0.1994273812 0.9532776475 -0.2269151509
v 0.004357358906 -0.01420241874 0.04655619338
vn 0.1650090218 -0.2838506699 0.9445638061
v 0.018009305 -0.01797785237 0.0422793366
vn 0.07867448032 -0.6787555814 0.7301377654
v -0.01111686323 0.01174447872 0.01826699264
vn -0.1652314067 0.9461432099 -0.278409034
v 0.01828667894 -0.0235035941 0.01576114073
vn 0.05695445836 -0.9957364798 0.07256033272
v 0.01942051202 -0.008609779179 2.301079621e-05
vn -0.02125496045 0.0207735505 -0.99955827
v 0.02937908284 -0.02040158771 0.02697921358
vn 0.1514962465 -0.9721133113 0.1790101677
v 0.02380014211 -0.01979539543 0.03178193048
vn 0.2341613472 -0.950417459 0.2046342045
v 0.0358934626 -0.02025928907 0.0226449687
vn 0.3815618455 -0.9235147238 -0.03912943229
v 0.02058506571 0.007341319695 0.03585579619
vn 0.8075823784 0.430160135 0.4034512937
v 0.01992082968 0.01408451423 0.001839293633
vn 0.2661610544 0.5192049742 -0.8121480942
v -0.001983756432 0.02100782469 0.04721602798
vn -0.03011588566 0.9909467101 -0.1308345795
v 0.004778941162 0.01609747484 0.02209734172
vn -0.1779394597 0.9513735175 -0.2514476776
v 0.02198061161 -0.005219893064 0.04209406301
vn 0.7576826215 0.3314135075 0.5622118115
v 0.01552537642 0.0155717507 0.03135176376
vn 0.5286365747 0.8233317137 0.2065628916
v 0.03068366461 -0.01809009165 0.03711333498
vn 0.2347931713 -0.9158056378 0.3258407414
v 0.02876994945 -0.02048168704 0.01249928214
vn 0.4064117074 -0.9012374282 -0.1503350735
v 0.02629615739 -0.01673272625 0.0415863432
vn 0.3627257049 -0.4339923561 0.8246700764
v 0.01111632399 -0.02241213061 0.001523309504
vn 0.01208154019 -0.2167816609 -0.9761453271
v 0.02507517859 -0.001417926745 0.03607964516
vn 0.7774937153 0.3747469485 0.5050427914
v -0.006879408378 -0.02231752314 0.000748991908
vn -0.009725730866 -0.1805675477 -0.9835144877
v 0.02279249206 -0.02255846933 0.007101522759
vn 0.2800019085 -0.9519644976 -0.1239458472
v 0.02880784124 -0.01610001177 0.0008166902699
vn 0.283257395 -0.3301209509 -0.9004362226
v -0.009900217876 -0.005809582304 0.05008275434
vn 0.1791812479 -0.1230264679 0.9760935307
v 0.02279898897 -0.0205256287 0.0006695670891
vn 0.1167182848 -0.5607297421 -0.8197310567
v 0.02241865546 -0.01988097839 0.03736193106
vn 0.1065207124 -0.9446538091 0.3102942407
v -0.01647856832 -0.02085581049 0.0269263275
vn -0.07020568848 -0.9745592475 0.2128507346
v 0.01492830086 -0.02380038612 0.008742394857
vn 0.09503208846 -0.9879153371 -0.1224426925
v 0.0007394049317 -0.02090920508 0.01859649085
vn -0.09288451076 -0.9832134247 0.1570470333
v 0.02142430283 -0.01044288371 0.04372989014
vn 0.2947361469 -0.04644111171 0.9544494748
v -0.01989488676 0.003843048122 0.001612490509
vn -0.07091834396 0.2543464601 -0.9645094275
v 0.004832571838 -0.02402652055 0.0121913515
vn -0.08564215153 -0.9811771512 0.1730805188
v 0.009818260558 0.01641912013 0.04665759951
vn 0.5163081288 0.5894364715 0.621281445
v 0.01810678467 -0.02255615778 0.02509812452
vn -0.07031397521 -0.989290297 0.1279089749
v 0.00996474456 0.01713364758 0.03831595927
vn 0.3797422647 0.9181191325 0.1133715212
v 0.0007679605624 0.01861248165 0.03373383358
vn -0.04417432472 0.9856240749 -0.1630759835
v 0.01466770098 0.01593688503 0.01069707237
vn -0.2117263079 0.9484978914 -0.2356346995
v 0.02063859627 -0.02209849097 0.02999094129
vn 0.07351424545 -0.9742475152 0.213160634
v 0.004965023603 0.01919809915 0.0391777046
vn 0.1431813985 0.9892049432 -0.0311870873
v -0.01194775756 0.01956574991 0.0410127677
vn -0.08528865129 0.9534958601 -0.2890873849
v -0.005928851664 0.01118257456 0.008366073482
vn -0.2114949226 0.9376625419 -0.2757876515
v -0.01593082957 0.02081142738 0.05096202344
vn 0.07621803135 0.9959738851 0.04718919471
v -0.002136688447 0.01719728112 0.02874726057
vn -0.2184651941 0.9241662025 -0.3133525252
v 0.007261069026 -0.01951367967 0.03792265803
vn -0.06628985703 -0.9612431526 0.2676140666
v -0.008568689227 -0.01881911419 0.03235363588
vn -0.04752806574 -0.9639793038 0.2616962492
v 0.001946134493 -0.02428401075 0.002481064061
vn -0.008821281604 -0.9879703522 -0.1543917954
v -0.002292163204 0.02047856525 0.05054648593
vn 0.2942343354 0.8159144521 0.4977044463
v -0.01382736396 0.008404561318 0.007929710671
vn -0.2721078992 0.9170081019 -0.2916392088
v -0.01802324504 0.0196945928 0.05482430384
vn 0.1670298576 0.09808077663 0.9810612798
v -0.006032477133 -0.02300991863 0.00539054675
vn -0.09451309592 -0.9839431047 0.1514042616
v -0.02685153298 0.01798444428 0.05533790216
vn -0.3495921791 0.2265743464 0.9090926051
v -0.02821960859 -0.01517545991 0.04275943711
vn -0.336140573 -0.91062361 0.2403624654
v -0.02394491062 0.005580929574 0.007562195417
vn -0.1376466006 0.9239100814 -0.3569924533
v -0.005745106377 -0.02288529463 0.02430151217
vn 0.02921322174 -0.9784993529 0.2041704357
v -0.007893654518 0.01561545394 0.03189019114
vn -0.1625994742 0.9305350184 -0.3281249106
v -0.01133479457 -0.01604802348 0.04864319786
vn 0.05608964339 -0.6851651669 0.7262248993
v -0.002400079044 0.01422738098 0.05083325505
vn 0.2237755805 -0.07000949234 0.9721230268
v -0.0009860865539 -0.02060794644 0.02589752898
vn 0.03099955618 -0.9939676523 0.1052013338
v -0.01003533043 -0.02114074863 0.01156931929
vn -0.0101170456 -0.988697648 0.1495814621
v -0.003071183106 0.014113646 0.01989711449
vn -0.1986878663 0.9507262111 -0.2379975021
v -0.0359377116 0.007663236931 0.02610306628
vn -0.8874491453 0.4514911771 0.09268087894
v -0.01630225778 -0.02078069746 0.01426609233
vn 0.02874980681 -0.9920324087 0.1226586103
v -0.01582522504 -0.02387159877 0.00121401588
vn -0.09036105871 -0.9347573519 -0.3436038792
v -0.01741988584 -0.0161602255 0.04171063751
vn 0.02257332578 -0.9767650962 0.2131205797
v -0.01113286894 -0.02148986608 0.01992078498
vn -0.01539844275 -0.9983415008 -0.05547169968
v -0.02987653762 0.007834064774 0.01387052797
vn -0.1359880567 0.9272945523 -0.3487578928
v -0.01796115562 -0.02343665995 0.005776070524
vn -0.1001716331 -0.9759884477 0.1934223026
v -0.02553683147 -0.01148842741 0.05213813856
vn -0.03499032557 -0.5017327666 0.8643147349
v -0.03243168443 0.01068797149 0.04327273369
vn -0.8964428306 0.4356099367 0.08145073801
v -0.02707060426 0.01924744248 0.04787420481
vn -0.4478061795 0.875731647 -0.1804540753
v -0.01596637629 0.02170544863 0.04584258422
vn -0.08763977885 0.9797422886 -0.1800676435
v -0.02767394483 -0.01891070977 0.01151655894
vn -0.3268840015 -0.9368895292 0.1240356714
v -0.03473775089 0.01015757769 0.02191264555
vn -0.5109197497 0.8416646123 -0.1748189777
v -0.02512264065 -0.01115632895 0.001251495676
vn -0.03994775936 -0.004672599025 -0.9991908669
v -0.03033960424 0.01645165682 0.03965810314
vn -0.6635684967 0.7396778464 -0.1120425686
v -0.03940736875 -0.0008633390535 0.002844636561
vn -0.4027896225 0.1551098078 -0.9020540118
v -0.02870201692 -0.01997426338 0.00185452064
vn -0.2313042134 -0.3608070314 -0.9035024643
v -0.02106988057 0.01384169422 0.02881887183
vn -0.102837503 0.9468507767 -0.3047918975
v -0.03146511316 -0.0160354469 0.02925885469
vn -0.4930083156 -0.8606434464 0.1274190992
v -0.02595568635 -0.02154552378 0.005411261693
vn -0.3088902831 -0.9468529224 0.08975703269
v -0.03148324043 0.01286903396 0.05069147795
vn -0.8655195236 0.4940316677 0.08251457661
v -0.02152467333 0.01695226505 0.0369274877
vn -0.1154431328 0.9328814745 -0.3411818147
v -0.03896960244 0.004306973424 0.0115735447
vn -0.712262094 0.6832687855 -0.1607063264
v -0.02336536907 -0.02055343054 0.0194438044
vn -0.2370650321 -0.9658024907 0.1050031781
v -0.03432133049 -0.01760446094 0.008325564675
vn -0.5120843649 -0.8556748033 0.07476773113
v -0.03030786663 -0.01799119078 0.01768552326
vn -0.4604646564 -0.881498456 0.1045599878
v -0.0343208611 0.005843152758 0.05262368172
vn -0.7627846003 0.1441253275 0.6303868294
v -0.02277718484 -0.01728620939 0.0403226912
vn -0.1930356473 -0.9523198605 0.2362713367
v -0.03283852711 0.003204248613 0.002882344648
vn -0.2153105736 0.8576600552 -0.4669695497
v -0.03737816587 -0.0129989991 0.01607238501
vn -0.8297914267 -0.549236834 0.0989196077
v -0.03147541359 0.01295395568 0.0312303789
vn -0.5328932405 0.8299837112 -0.1647779495
v -0.02884897217 0.003416630672 0.05474477634
vn 0.1002896652 -0.1110239029 0.9887444973
v -0.03594018519 0.004569930956 0.03761893883
vn -0.939648509 0.3316604495 0.08403586596
v -0.03331409767 -0.004537308123 0.0525874868
vn -0.5280383825 -0.2633331716 0.8073605895
v -0.03886536136 -0.01333208755 0.002861301647
vn -0.5313808918 -0.2576248646 -0.8070091605
v -0.03560410812 -0.01207165699 0.03845608234
vn -0.6867679358 -0.7197067738 0.101842545
v -0.03769299015 -0.01256339904 0.0236516688
vn -0.791031003 -0.592195034 0.1535415649
v -0.04033730924 -0.0006232728483 0.01309357118
vn -0.9996245503 0.00339137041 0.02718992718
v -0.03889340535 -0.01343722083 0.008436732925
vn -0.891282022 -0.4395485222 0.1114154533
v -0.03503472731 0.003747682553 0.04708882421
vn -0.9275184274 0.3695531487 0.05603628978
v -0.03957973421 -0.007022849284 0.02221383899
vn -0.9866623282 -0.158773616 0.03589490429
v -0.03826991096 -0.007598814555 0.03230618685
vn -0.9741110802 -0.1978731602 0.1093335375
v -0.04042427987 -0.005287569948 0.008095987141
vn -0.9939754605 -0.1061867774 0.0271514114
v -0.03289662302 -0.01200271863 0.04733299091
vn -0.5095200539 -0.7265517116 0.4609901011
v -0.03899943456 -0.0009052216774 0.0266998969
vn -0.9643563032 0.2332337648 0.124975495
v -0.03680893779 -0.007758175489 0.04617653415
vn -0.8776714206 -0.3897421062 0.2789156437
v -0.03767557442 -0.003121251939 0.04636253789
vn -0.9786064625 0.1035308689 0.1777939796
# mm_gid 0
g mmGroup0
f 9//9 5//5 3//3 
f 30//30 5//5 9//9 
f 2//2 3//3 5//5 
f 2//2 5//5 26//26 
f 9//9 3//3 19//19 
f 16//16 19//19 3//3 
f 2//2 16//16 3//3 
f 19//19 13//13 9//9 
f 2//2 8//8 16//16 
f 30//30 26//26 5//5 
f 2//2 26//26 10//10 
f 19//19 16//16 12//12 
f 13//13 19//19 15//15 
f 9//9 28//28 30//30 
f 26//26 41//41 10//10 
f 9//9 13//13 28//28 
f 8//8 12//12 16//16 
f 12//12 20//20 19//19 
f 30//30 54//54 26//26 
f 10//10 8//8 2//2 
f 26//26 62//62 41//41 
f 8//8 11//11 35//35 
f 12//12 8//8 35//35 
f 15//15 19//19 1//1 
f 11//11 8//8 27//27 
f 10//10 27//27 8//8 
f 30//30 36//36 54//54 
f 1//1 19//19 20//20 
f 13//13 6//6 28//28 
f 51//51 29//29 11//11 
f 54//54 25//25 26//26 
f 68//68 27//27 10//10 
f 27//27 51//51 11//11 
f 10//10 41//41 68//68 
f 25//25 62//62 26//26 
f 54//54 36//36 52//52 
f 36//36 30//30 28//28 
f 15//15 1//1 18//18 
f 36//36 28//28 6//6 
f 20//20 12//12 38//38 
f 13//13 15//15 18//18 
f 11//11 29//29 35//35 
f 6//6 61//61 36//36 
f 38//38 12//12 35//35 
f 61//61 52//52 36//36 
f 38//38 32//32 20//20 
f 62//62 31//31 41//41 
f 31//31 68//68 41//41 
f 20//20 44//44 1//1 
f 44//44 20//20 32//32 
f 52//52 25//25 54//54 
f 33//33 25//25 52//52 
f 35//35 29//29 38//38 
f 68//68 51//51 27//27 
f 18//18 65//65 13//13 
f 7//7 4//4 32//32 
f 65//65 18//18 55//55 
f 18//18 1//1 34//34 
f 1//1 44//44 34//34 
f 29//29 56//56 38//38 
f 38//38 7//7 32//32 
f 63//63 61//61 6//6 
f 31//31 62//62 67//67 
f 6//6 13//13 59//59 
f 32//32 4//4 44//44 
f 56//56 7//7 38//38 
f 75//75 63//63 6//6 
f 51//51 56//56 29//29 
f 4//4 34//34 44//44 
f 65//65 59//59 13//13 
f 7//7 56//56 4//4 
f 70//70 51//51 68//68 
f 55//55 18//18 34//34 
f 70//70 68//68 31//31 
f 61//61 53//53 52//52 
f 4//4 56//56 82//82 
f 34//34 14//14 55//55 
f 71//71 61//61 63//63 
f 53//53 61//61 71//71 
f 33//33 50//50 25//25 
f 75//75 6//6 59//59 
f 60//60 55//55 14//14 
f 50//50 62//62 25//25 
f 56//56 23//23 82//82 
f 70//70 31//31 67//67 
f 34//34 4//4 40//40 
f 52//52 79//79 33//33 
f 50//50 67//67 62//62 
f 82//82 40//40 4//4 
f 34//34 60//60 14//14 
f 42//42 34//34 40//40 
f 42//42 60//60 34//34 
f 79//79 50//50 33//33 
f 75//75 48//48 63//63 
f 21//21 55//55 60//60 
f 21//21 39//39 55//55 
f 23//23 56//56 51//51 
f 59//59 55//55 39//39 
f 51//51 70//70 64//64 
f 59//59 65//65 55//55 
f 67//67 73//73 70//70 
f 83//83 53//53 71//71 
f 83//83 79//79 52//52 
f 52//52 53//53 83//83 
f 43//43 46//46 23//23 
f 46//46 82//82 23//23 
f 50//50 73//73 67//67 
f 73//73 64//64 70//70 
f 48//48 71//71 63//63 
f 42//42 40//40 82//82 
f 51//51 43//43 23//23 
f 59//59 39//39 75//75 
f 78//78 21//21 60//60 
f 80//80 60//60 42//42 
f 21//21 78//78 39//39 
f 46//46 58//58 82//82 
f 83//83 71//71 89//89 
f 102//102 75//75 39//39 
f 89//89 71//71 48//48 
f 39//39 78//78 102//102 
f 43//43 51//51 76//76 
f 42//42 82//82 58//58 
f 80//80 78//78 60//60 
f 89//89 79//79 83//83 
f 37//37 79//79 89//89 
f 75//75 102//102 47//47 
f 79//79 74//74 50//50 
f 77//77 73//73 50//50 
f 84//84 80//80 42//42 
f 58//58 81//81 42//42 
f 74//74 77//77 50//50 
f 81//81 84//84 42//42 
f 91//91 64//64 73//73 
f 37//37 74//74 79//79 
f 64//64 119//119 51//51 
f 48//48 75//75 47//47 
f 89//89 48//48 47//47 
f 80//80 92//92 78//78 
f 92//92 80//80 84//84 
f 92//92 102//102 78//78 
f 46//46 105//105 58//58 
f 102//102 69//69 47//47 
f 84//84 57//57 92//92 
f 105//105 88//88 58//58 
f 47//47 22//22 89//89 
f 58//58 88//88 81//81 
f 105//105 46//46 86//86 
f 43//43 86//86 46//46 
f 91//91 73//73 77//77 
f 84//84 45//45 57//57 
f 81//81 45//45 84//84 
f 86//86 43//43 76//76 
f 119//119 64//64 66//66 
f 66//66 64//64 91//91 
f 105//105 100//100 88//88 
f 100//100 105//105 49//49 
f 95//95 91//91 77//77 
f 76//76 51//51 119//119 
f 88//88 85//85 81//81 
f 103//103 74//74 37//37 
f 89//89 103//103 37//37 
f 45//45 81//81 85//85 
f 45//45 92//92 57//57 
f 90//90 89//89 22//22 
f 49//49 86//86 93//93 
f 77//77 74//74 95//95 
f 86//86 49//49 105//105 
f 90//90 103//103 89//89 
f 88//88 100//100 85//85 
f 95//95 66//66 91//91 
f 47//47 101//101 22//22 
f 49//49 123//123 100//100 
f 22//22 24//24 90//90 
f 74//74 103//103 110//110 
f 85//85 87//87 45//45 
f 104//104 95//95 74//74 
f 45//45 87//87 92//92 
f 90//90 99//99 103//103 
f 85//85 116//116 87//87 
f 127//127 85//85 100//100 
f 103//103 99//99 110//110 
f 102//102 92//92 94//94 
f 87//87 94//94 92//92 
f 100//100 123//123 127//127 
f 99//99 90//90 72//72 
f 76//76 93//93 86//86 
f 110//110 104//104 74//74 
f 101//101 47//47 69//69 
f 24//24 22//22 101//101 
f 108//108 66//66 95//95 
f 72//72 110//110 99//99 
f 93//93 98//98 49//49 
f 110//110 107//107 104//104 
f 101//101 109//109 24//24 
f 49//49 98//98 111//111 
f 112//112 108//108 95//95 
f 49//49 111//111 123//123 
f 104//104 112//112 95//95 
f 76//76 98//98 93//93 
f 87//87 17//17 94//94 
f 127//127 115//115 85//85 
f 109//109 90//90 24//24 
f 107//107 112//112 104//104 
f 115//115 116//116 85//85 
f 87//87 116//116 17//17 
f 102//102 137//137 69//69 
f 122//122 66//66 108//108 
f 69//69 113//113 101//101 
f 109//109 72//72 90//90 
f 110//110 129//129 107//107 
f 94//94 137//137 102//102 
f 101//101 133//133 109//109 
f 115//115 17//17 116//116 
f 125//125 108//108 112//112 
f 17//17 96//96 94//94 
f 133//133 72//72 109//109 
f 129//129 112//112 107//107 
f 113//113 133//133 101//101 
f 123//123 136//136 127//127 
f 108//108 125//125 122//122 
f 129//129 110//110 72//72 
f 133//133 129//129 72//72 
f 120//120 115//115 127//127 
f 94//94 96//96 137//137 
f 98//98 76//76 134//134 
f 129//129 117//117 112//112 
f 136//136 120//120 127//127 
f 17//17 115//115 126//126 
f 119//119 66//66 122//122 
f 124//124 129//129 133//133 
f 137//137 96//96 132//132 
f 125//125 112//112 117//117 
f 113//113 97//97 133//133 
f 126//126 96//96 17//17 
f 131//131 117//117 129//129 
f 118//118 136//136 123//123 
f 134//134 111//111 98//98 
f 132//132 96//96 126//126 
f 69//69 137//137 113//113 
f 120//120 114//114 115//115 
f 111//111 118//118 123//123 
f 130//130 122//122 125//125 
f 131//131 129//129 124//124 
f 126//126 115//115 114//114 
f 120//120 138//138 114//114 
f 149//149 97//97 113//113 
f 136//136 138//138 120//120 
f 97//97 124//124 133//133 
f 118//118 106//106 136//136 
f 149//149 113//113 139//139 
f 126//126 114//114 145//145 
f 137//137 139//139 113//113 
f 131//131 130//130 117//117 
f 130//130 125//125 117//117 
f 138//138 136//136 106//106 
f 76//76 121//121 134//134 
f 145//145 132//132 126//126 
f 145//145 114//114 138//138 
f 135//135 130//130 131//131 
f 118//118 150//150 106//106 
f 128//128 118//118 111//111 
f 134//134 128//128 111//111 
f 128//128 134//134 121//121 
f 128//128 150//150 118//118 
f 141//141 124//124 97//97 
f 151//151 149//149 139//139 
f 132//132 139//139 137//137 
f 122//122 140//140 119//119 
f 149//149 141//141 97//97 
f 119//119 121//121 76//76 
f 135//135 131//131 124//124 
f 143//143 150//150 128//128 
f 150//150 138//138 106//106 
f 142//142 135//135 124//124 
f 138//138 152//152 145//145 
f 152//152 132//132 145//145 
f 130//130 140//140 122//122 
f 139//139 152//152 151//151 
f 130//130 135//135 144//144 
f 138//138 150//150 147//147 
f 143//143 128//128 121//121 
f 132//132 152//152 139//139 
f 140//140 130//130 144//144 
f 142//142 124//124 147//147 
f 124//124 141//141 147//147 
f 140//140 121//121 119//119 
f 121//121 148//148 143//143 
f 146//146 150//150 143//143 
f 147//147 152//152 138//138 
f 141//141 149//149 151//151 
f 135//135 148//148 144//144 
f 144//144 148//148 140//140 
f 135//135 142//142 146//146 
f 152//152 147//147 151//151 
f 147//147 141//141 151//151 
f 146//146 147//147 150//150 
f 121//121 140//140 148//148 
f 146//146 142//142 147//147 
f 146//146 143//143 135//135 
f 148//148 135//135 143//143 
