# Blender 4.1.0
# www.blender.org
mtllib SM_Rock_12_XS.mtl
o SM_Rock_12_XS
v 0.017495 0.000653 0.014534
v -0.008716 -0.017882 -0.010460
v 0.015600 0.006721 -0.013371
v -0.020496 -0.009874 0.002704
v 0.015605 0.005349 0.013084
v -0.015119 0.015719 -0.001757
v 0.006246 -0.005371 -0.008721
v -0.018448 -0.001540 -0.003524
v 0.019058 -0.003817 0.008083
v 0.017799 0.006623 0.007529
v 0.002855 -0.002210 0.014849
v 0.008977 -0.009075 0.010647
v 0.006880 0.005964 0.011986
v 0.001600 -0.015460 -0.007828
v -0.000362 -0.014792 0.000643
v -0.010948 -0.015824 -0.000898
v -0.012083 -0.009374 -0.012092
v -0.001676 -0.007616 -0.010197
v -0.018551 -0.009765 -0.003099
v 0.020737 -0.000223 -0.010263
v 0.007061 0.001575 -0.012488
v 0.007711 0.009860 -0.011830
v 0.018499 0.007258 -0.002877
v 0.019433 -0.002647 -0.001750
v 0.009499 0.013084 -0.003578
v -0.013574 -0.011111 0.007268
v -0.015385 -0.000072 0.009695
v -0.021201 0.000683 0.002840
v 0.009036 0.010807 0.008885
v -0.000346 0.017469 -0.002885
v -0.004244 0.010814 -0.011132
v -0.018668 0.009268 -0.001255
v -0.005575 0.001708 -0.012232
v 0.014812 -0.009047 -0.009939
v -0.014828 0.002428 -0.010354
v 0.011884 -0.012829 0.000091
v -0.003224 -0.011035 0.009906
v -0.005326 -0.001197 0.014329
v -0.004361 0.009591 0.010845
v -0.012895 0.011209 0.005783
v -0.001603 0.015974 0.003988
v -0.009340 0.015605 0.001069
vn 0.8534 -0.4470 0.2684
vn 0.7999 0.5750 0.1722
vn 0.5052 -0.1575 0.8485
vn 0.5053 -0.1576 0.8485
vn 0.7999 0.5749 0.1722
vn 0.3108 0.5870 0.7476
vn 0.0010 -0.1510 0.9885
vn 0.2386 -0.7299 0.6406
vn 0.5053 -0.1575 0.8485
vn 0.2387 -0.7299 0.6406
vn 0.8534 -0.4469 0.2684
vn 0.3108 0.5870 0.7475
vn -0.0112 0.4033 0.9150
vn 0.5053 -0.1575 0.8484
vn 0.0010 -0.1509 0.9886
vn 0.2747 -0.8239 -0.4957
vn 0.1194 -0.9506 0.2865
vn -0.2409 -0.8062 -0.5403
vn -0.2410 -0.8062 -0.5402
vn -0.3444 -0.9255 0.1575
vn -0.4166 -0.2664 -0.8692
vn 0.1751 -0.1912 -0.9658
vn -0.2411 -0.8062 -0.5403
vn -0.2410 -0.8063 -0.5402
vn 0.2748 -0.8239 -0.4956
vn -0.3444 -0.9255 0.1576
vn -0.4165 -0.2665 -0.8692
vn -0.3445 -0.9255 0.1576
vn -0.7781 -0.5199 -0.3526
vn 0.7807 -0.1191 -0.6135
vn -0.0016 -0.1349 -0.9909
vn 0.4680 0.4066 -0.7846
vn 0.4681 0.4066 -0.7846
vn -0.0016 -0.1348 -0.9909
vn 0.0913 0.5894 -0.8027
vn 0.8075 0.5897 -0.0152
vn 0.7807 -0.1192 -0.6135
vn 0.7806 -0.1191 -0.6135
vn 0.9523 -0.3032 0.0351
vn 0.4317 0.8994 -0.0693
vn 0.4681 0.4065 -0.7846
vn 0.4317 0.8993 -0.0692
vn 0.8074 0.5897 -0.0152
vn -0.8176 -0.4757 0.3245
vn -0.7781 -0.5198 -0.3526
vn -0.4024 -0.6119 0.6809
vn -0.5644 0.0854 0.8211
vn -0.8175 -0.4757 0.3246
vn -0.5644 0.0854 0.8210
vn -0.9474 0.1558 0.2797
vn -0.8861 -0.0137 -0.4633
vn -0.8175 -0.4757 0.3245
vn -0.8175 -0.4758 0.3245
vn -0.7781 -0.5198 -0.3525
vn 0.7999 0.5750 0.1721
vn 0.2884 0.8478 0.4450
vn 0.2883 0.8478 0.4450
vn 0.0863 0.9426 -0.3227
vn -0.1804 0.5527 -0.8136
vn -0.5617 0.6994 -0.4421
vn -0.8501 0.4534 -0.2679
vn -0.0330 -0.2803 -0.9593
vn 0.1751 -0.1913 -0.9658
vn 0.1750 -0.1913 -0.9658
vn -0.0547 0.0134 -0.9984
vn 0.4669 -0.6048 -0.6451
vn 0.2748 -0.8239 -0.4957
vn -0.0331 -0.2803 -0.9594
vn -0.0331 -0.2804 -0.9593
vn 0.4669 -0.6049 -0.6450
vn 0.4669 -0.6049 -0.6451
vn -0.5964 0.2509 -0.7625
vn -0.4166 -0.2665 -0.8692
vn -0.0548 0.0134 -0.9984
vn 0.7806 -0.1191 -0.6136
vn 0.4668 -0.6049 -0.6451
vn 0.4798 -0.8696 0.1166
vn 0.8534 -0.4470 0.2683
vn 0.4798 -0.8696 0.1167
vn 0.2386 -0.7299 0.6405
vn 0.1194 -0.9506 0.2866
vn -0.0413 -0.7318 0.6803
vn -0.0414 -0.7318 0.6802
vn 0.0010 -0.1509 0.9885
vn -0.0414 -0.7317 0.6803
vn -0.0414 -0.7318 0.6803
vn 0.0009 -0.1509 0.9885
vn -0.2370 -0.0116 0.9714
vn -0.2371 -0.0116 0.9714
vn -0.1643 0.5182 0.8393
vn -0.2371 -0.0115 0.9714
vn -0.1644 0.5182 0.8393
vn -0.5644 0.0855 0.8211
vn -0.5005 0.5388 0.6777
vn 0.0913 0.5894 -0.8026
vn 0.0864 0.9426 -0.3227
vn -0.1642 0.5183 0.8393
vn -0.1643 0.5183 0.8393
vn 0.2883 0.8478 0.4451
vn 0.0895 0.8914 0.4443
vn -0.8501 0.4534 -0.2680
vn -0.9473 0.1559 0.2797
vn 0.0863 0.9426 -0.3226
vn 0.0896 0.8914 0.4442
vn 0.4317 0.8994 -0.0692
vn 0.7998 0.5750 0.1721
vn 0.0912 0.5894 -0.8027
vn -0.1805 0.5527 -0.8136
vn -0.1804 0.5527 -0.8137
vn -0.5964 0.2510 -0.7624
vn 0.0895 0.8914 0.4442
vn -0.1836 0.8960 0.4044
vn -0.1836 0.8959 0.4045
vn 0.0864 0.9426 -0.3226
vn -0.5617 0.6993 -0.4421
vn -0.5005 0.5388 0.6776
vn -0.5616 0.6994 -0.4420
vn -0.1644 0.5183 0.8393
s 0
usemtl initialShadingGroup
f 9//1 10//2 1//3
f 1//4 10//5 5//6
f 11//7 12//8 1//9
f 1//9 12//10 9//11
f 5//12 13//13 1//14
f 1//14 13//13 11//15
f 14//16 15//17 2//18
f 2//19 15//17 16//20
f 17//21 18//22 2//23
f 2//24 18//22 14//25
f 2//24 16//26 17//27
f 17//21 16//28 19//29
f 20//30 21//31 3//32
f 3//33 21//34 22//35
f 3//32 23//36 20//37
f 20//38 23//36 24//39
f 22//35 25//40 3//41
f 3//32 25//42 23//43
f 4//44 19//45 26//46
f 26//46 19//45 16//28
f 26//46 27//47 4//44
f 4//48 27//49 28//50
f 28//50 8//51 4//52
f 4//53 8//51 19//54
f 10//55 29//56 5//12
f 5//6 29//57 13//13
f 30//58 31//59 6//60
f 6//60 31//59 32//61
f 7//62 18//63 21//31
f 21//31 18//64 33//65
f 34//66 14//67 7//68
f 7//62 14//67 18//22
f 7//69 21//31 34//70
f 34//71 21//31 20//30
f 35//72 17//21 8//51
f 8//51 17//73 19//45
f 18//22 17//21 33//65
f 33//74 17//21 35//72
f 20//75 24//39 34//76
f 34//76 24//39 36//77
f 34//71 36//77 14//67
f 14//16 36//77 15//17
f 24//39 9//78 36//77
f 36//79 9//11 12//80
f 36//77 12//80 15//81
f 15//81 12//80 37//82
f 26//46 16//26 37//83
f 37//83 16//20 15//81
f 12//8 11//84 37//85
f 37//86 11//87 38//88
f 37//86 38//89 26//46
f 26//46 38//89 27//47
f 11//15 13//13 38//89
f 38//89 13//13 39//90
f 38//91 39//92 27//47
f 27//93 39//92 40//94
f 31//59 30//58 22//95
f 22//35 30//96 25//40
f 13//13 29//57 39//97
f 39//98 29//99 41//100
f 32//101 28//102 40//94
f 40//94 28//50 27//47
f 30//103 41//104 25//105
f 25//105 41//104 29//56
f 29//56 10//55 25//105
f 25//42 10//106 23//36
f 23//36 10//2 24//39
f 24//39 10//55 9//11
f 22//107 21//34 31//108
f 31//109 21//31 33//65
f 33//65 35//72 31//109
f 31//59 35//110 32//61
f 35//110 8//51 32//101
f 32//101 8//51 28//50
f 41//111 30//58 42//112
f 42//113 30//114 6//115
f 32//101 40//116 6//117
f 6//60 40//94 42//113
f 39//118 41//111 40//94
f 40//94 41//111 42//113
