# Blender 4.1.0
# www.blender.org
mtllib SM_Rock_05_XL.mtl
o SM_Rock_05_XL
v -0.363094 -0.267752 0.234608
v 0.557251 -0.006027 -0.146688
v 0.417843 -0.266881 -0.250581
v 0.167715 0.320421 0.261931
v 0.223194 -0.354193 0.088404
v -0.309117 -0.111300 0.353049
v -0.449291 -0.005465 0.328639
v -0.493054 -0.197451 0.134171
v -0.267597 -0.354490 0.113307
v -0.133895 -0.205973 0.279010
v -0.411259 -0.339110 -0.091493
v -0.511490 0.146456 -0.035470
v -0.545246 -0.009974 0.023567
v -0.527893 0.121672 0.267334
v -0.424446 0.258264 0.095799
v -0.354820 0.141775 0.435856
v -0.227797 0.075506 0.469383
v -0.125547 0.225119 0.510814
v -0.327370 0.285200 0.391307
v 0.500110 0.081266 0.021832
v 0.487228 -0.097906 0.129959
v 0.549175 -0.145413 -0.119565
v 0.445984 -0.135263 -0.285143
v 0.488411 0.047590 -0.277587
v 0.475048 0.216520 -0.113816
v 0.236221 -0.329070 -0.299106
v 0.243793 -0.136595 -0.404442
v 0.465839 -0.325878 -0.101640
v 0.231958 -0.437500 -0.095510
v 0.287838 0.297098 0.084575
v 0.201982 0.374845 -0.026788
v 0.051874 0.403162 0.206195
v -0.047680 0.326300 0.377185
v 0.103394 0.224417 0.371816
v 0.306919 0.143202 0.217742
v 0.053616 0.349565 -0.128083
v 0.287485 0.298604 -0.304570
v -0.003825 0.299810 -0.331771
v 0.379005 -0.278338 0.150512
v 0.173429 -0.155832 0.319399
v 0.044686 -0.274942 0.159089
v -0.032497 -0.419279 -0.046788
v -0.058961 -0.350948 -0.258355
v -0.395893 -0.094442 -0.218882
v -0.056686 -0.134658 -0.401353
v -0.388615 0.133739 -0.245587
v -0.048328 0.131503 -0.427936
v 0.284031 0.096012 -0.420257
v -0.262974 0.294990 -0.129895
v -0.226822 0.342676 0.234015
v -0.090700 0.355394 0.041545
v -0.037244 -0.027269 0.410779
v 0.273926 -0.017679 0.319910
v 0.052505 0.100988 0.454834
v -0.363094 -0.267752 0.234608
v 0.557251 -0.006027 -0.146688
v 0.417843 -0.266881 -0.250581
v 0.167715 0.320421 0.261931
v 0.223194 -0.354193 0.088404
v -0.309117 -0.111300 0.353049
v -0.449291 -0.005465 0.328639
v -0.493054 -0.197451 0.134171
v -0.267597 -0.354490 0.113307
v -0.133895 -0.205973 0.279010
v -0.411259 -0.339110 -0.091493
v -0.511490 0.146456 -0.035470
v -0.545246 -0.009974 0.023567
v -0.527893 0.121672 0.267334
v -0.424446 0.258264 0.095799
v -0.354820 0.141775 0.435856
v -0.227797 0.075506 0.469383
v -0.125547 0.225119 0.510814
v -0.327370 0.285200 0.391307
v 0.500110 0.081266 0.021832
v 0.487228 -0.097906 0.129959
v 0.549175 -0.145413 -0.119565
v 0.445984 -0.135263 -0.285143
v 0.488411 0.047590 -0.277587
v 0.475048 0.216520 -0.113816
v 0.236221 -0.329070 -0.299106
v 0.243793 -0.136595 -0.404442
v 0.465839 -0.325878 -0.101640
v 0.231958 -0.437500 -0.095510
v 0.287838 0.297098 0.084575
v 0.201982 0.374845 -0.026788
v 0.051874 0.403162 0.206195
v -0.047680 0.326300 0.377185
v 0.103394 0.224417 0.371816
v 0.306919 0.143202 0.217742
v 0.053616 0.349565 -0.128083
v 0.287485 0.298604 -0.304570
v -0.003825 0.299810 -0.331771
v 0.379005 -0.278338 0.150512
v 0.173429 -0.155832 0.319399
v 0.044686 -0.274942 0.159089
v -0.032497 -0.419279 -0.046788
v -0.058961 -0.350948 -0.258355
v -0.395893 -0.094442 -0.218882
v -0.056686 -0.134658 -0.401353
v -0.388615 0.133739 -0.245587
v -0.048328 0.131503 -0.427936
v 0.284031 0.096012 -0.420257
v -0.262974 0.294990 -0.129895
v -0.226822 0.342676 0.234015
v -0.090700 0.355394 0.041545
v -0.037244 -0.027269 0.410779
v 0.273926 -0.017679 0.319910
v 0.052505 0.100988 0.454834
vn -0.1972 -0.5115 0.8363
vn -0.7276 -0.2997 0.6171
vn -0.3632 -0.7081 0.6055
vn -0.7276 -0.2998 0.6170
vn -0.8669 -0.4410 0.2323
vn -0.1648 -0.9161 0.3656
vn 0.0480 -0.7012 0.7113
vn -0.3631 -0.7081 0.6055
vn 0.0479 -0.7012 0.7114
vn -0.1972 -0.5116 0.8363
vn -0.3632 -0.7082 0.6055
vn -0.8670 -0.4410 0.2322
vn -0.1649 -0.9161 0.3656
vn -0.1649 -0.9161 0.3655
vn -0.6034 -0.6868 -0.4053
vn -0.8623 0.4154 -0.2894
vn -0.9842 -0.0493 -0.1702
vn -0.6110 0.7887 -0.0680
vn -0.6111 0.7887 -0.0680
vn -0.9279 0.2915 0.2323
vn -0.5012 0.0494 0.8639
vn -0.1855 -0.2909 0.9386
vn -0.4802 0.7421 0.4676
vn -0.1855 -0.2908 0.9386
vn 0.0265 0.3372 0.9411
vn 0.9852 0.1047 -0.1355
vn 0.8410 0.3464 0.4156
vn 0.9702 -0.2421 -0.0029
vn 0.9703 -0.2421 -0.0029
vn 0.8277 -0.0847 0.5547
vn 0.6404 -0.2103 -0.7387
vn 0.9852 0.1047 -0.1356
vn 0.9852 0.1046 -0.1355
vn 0.7428 0.2166 -0.6335
vn 0.7428 0.2167 -0.6335
vn 0.7414 0.6691 -0.0517
vn 0.7414 0.6691 -0.0516
vn 0.8410 0.3464 0.4155
vn 0.1350 -0.7058 -0.6955
vn 0.1725 -0.2624 -0.9494
vn 0.5444 -0.5808 -0.6052
vn 0.6403 -0.2103 -0.7387
vn 0.6931 -0.7204 0.0266
vn 0.1752 -0.9836 -0.0422
vn 0.5444 -0.5809 -0.6052
vn 0.1350 -0.7058 -0.6954
vn 0.5444 -0.5809 -0.6051
vn 0.9702 -0.2421 -0.0030
vn 0.6931 -0.7204 0.0267
vn 0.5715 0.6349 0.5200
vn 0.6295 0.6985 0.3402
vn 0.0554 0.9901 0.1289
vn 0.2668 0.9624 -0.0519
vn 0.1028 0.8267 0.5532
vn 0.5715 0.6348 0.5200
vn 0.5224 0.3894 0.7586
vn 0.5225 0.3894 0.7586
vn 0.6971 0.3837 0.6057
vn 0.5715 0.6348 0.5199
vn 0.6971 0.3838 0.6056
vn 0.6296 0.6985 0.3402
vn 0.2667 0.9624 -0.0519
vn 0.3654 0.7614 -0.5355
vn -0.0762 0.9772 -0.1983
vn -0.0763 0.9772 -0.1983
vn 0.3653 0.7614 -0.5356
vn -0.1738 0.7669 -0.6178
vn 0.5163 -0.6238 0.5868
vn 0.2033 -0.5618 0.8019
vn 0.1106 -0.8501 0.5149
vn 0.0172 -0.8053 0.5926
vn 0.1107 -0.8501 0.5148
vn 0.6931 -0.7203 0.0267
vn 0.0165 -0.8060 0.5917
vn -0.0825 -0.9924 0.0911
vn 0.1106 -0.8501 0.5148
vn -0.6034 -0.6867 -0.4054
vn -0.6034 -0.6868 -0.4054
vn -0.2393 -0.7252 -0.6456
vn -0.2393 -0.7252 -0.6457
vn 0.1349 -0.7058 -0.6955
vn 0.0166 -0.8060 0.5917
vn 0.0480 -0.7013 0.7113
vn -0.6334 -0.2338 -0.7376
vn -0.2394 -0.7251 -0.6457
vn -0.6335 -0.2338 -0.7376
vn -0.2834 -0.3012 -0.9104
vn -0.2834 -0.3013 -0.9105
vn 0.1349 -0.7057 -0.6955
vn 0.1350 -0.7057 -0.6955
vn -0.2834 -0.3012 -0.9105
vn -0.6334 -0.2337 -0.7376
vn -0.5995 0.3222 -0.7327
vn -0.2663 0.2130 -0.9401
vn 0.1724 -0.2624 -0.9494
vn 0.1724 -0.2623 -0.9494
vn 0.2839 0.1841 -0.9410
vn -0.1739 0.7669 -0.6178
vn 0.2839 0.1842 -0.9410
vn 0.3654 0.7614 -0.5356
vn 0.7427 0.2167 -0.6336
vn 0.7413 0.6691 -0.0516
vn 0.6403 -0.2103 -0.7388
vn -0.3703 0.8591 -0.3535
vn -0.2662 0.2131 -0.9401
vn -0.3702 0.8591 -0.3534
vn -0.1739 0.7668 -0.6178
vn -0.2015 0.9707 -0.1310
vn -0.6110 0.7887 -0.0679
vn -0.2734 0.9605 0.0510
vn -0.5995 0.3221 -0.7327
vn -0.8624 0.4154 -0.2894
vn -0.3703 0.8591 -0.3534
vn 0.0554 0.9901 0.1288
vn 0.1027 0.8267 0.5531
vn -0.2015 0.9707 -0.1311
vn 0.1027 0.8267 0.5532
vn -0.2735 0.9605 0.0510
vn -0.9279 0.2915 0.2324
vn -0.5994 0.3221 -0.7327
vn -0.6335 -0.2337 -0.7376
vn -0.9842 -0.0493 -0.1703
vn -0.6033 -0.6868 -0.4053
vn -0.9842 -0.0494 -0.1702
vn -0.8670 -0.4409 0.2322
vn 0.0479 -0.7012 0.7113
vn 0.0453 -0.5001 0.8648
vn -0.1854 -0.2909 0.9386
vn 0.0454 -0.5001 0.8648
vn 0.2033 -0.5617 0.8019
vn 0.3700 -0.0291 0.9286
vn 0.2034 -0.5617 0.8019
vn 0.5904 -0.0197 0.8069
vn 0.3701 -0.0291 0.9286
vn -0.1854 -0.2908 0.9386
vn 0.3701 -0.0291 0.9285
vn 0.5904 -0.0196 0.8069
vn 0.5225 0.3893 0.7586
vn 0.5224 0.3893 0.7586
vn 0.0265 0.3371 0.9411
vn 0.5904 -0.0198 0.8069
vn 0.8277 -0.0846 0.5547
vn 0.6971 0.3837 0.6056
vn 0.5163 -0.6238 0.5867
vn 0.6296 0.6985 0.3403
vn -0.5012 0.0493 0.8639
vn -0.7276 -0.2996 0.6170
vn -0.5011 0.0493 0.8640
vn -0.7276 -0.2997 0.6170
vn -0.7277 -0.2997 0.6170
s 0
usemtl initialShadingGroup.018
f 6//1 7//2 1//3
f 1//3 7//4 8//5
f 9//6 10//7 1//3
f 1//8 10//9 6//10
f 1//11 8//12 9//13
f 9//14 8//12 11//15
f 12//16 13//17 15//18
f 15//19 13//17 14//20
f 16//21 17//22 19//23
f 19//23 17//24 18//25
f 2//26 20//27 22//28
f 22//29 20//27 21//30
f 22//28 23//31 2//32
f 2//33 23//31 24//34
f 24//35 25//36 2//26
f 2//26 25//37 20//38
f 26//39 27//40 3//41
f 3//41 27//40 23//42
f 28//43 29//44 3//45
f 3//45 29//44 26//46
f 23//31 22//28 3//41
f 3//47 22//48 28//49
f 4//50 30//51 32//52
f 32//52 30//51 31//53
f 32//52 33//54 4//50
f 4//55 33//54 34//56
f 34//57 35//58 4//55
f 4//59 35//60 30//61
f 31//62 37//63 36//64
f 36//65 37//66 38//67
f 39//68 40//69 5//70
f 5//70 40//69 41//71
f 29//44 28//43 5//72
f 5//72 28//73 39//68
f 41//74 42//75 5//76
f 5//76 42//75 29//44
f 9//14 11//77 42//75
f 42//75 11//78 43//79
f 42//75 43//79 29//44
f 29//44 43//80 26//81
f 42//75 41//82 9//13
f 9//13 41//82 10//83
f 11//15 44//84 43//79
f 43//85 44//86 45//87
f 43//80 45//88 26//89
f 26//90 45//91 27//40
f 44//92 46//93 45//91
f 45//91 46//93 47//94
f 45//91 47//94 27//95
f 27//96 47//94 48//97
f 47//94 38//98 48//99
f 48//99 38//98 37//100
f 48//99 37//66 24//101
f 24//35 37//63 25//102
f 24//34 23//103 48//97
f 48//97 23//103 27//40
f 46//93 49//104 47//94
f 47//105 49//106 38//107
f 49//106 15//18 51//108
f 51//108 15//109 50//110
f 51//108 36//65 49//106
f 49//106 36//65 38//98
f 46//111 12//112 49//113
f 49//113 12//112 15//18
f 51//108 50//110 32//114
f 32//52 50//110 33//115
f 32//114 31//53 51//116
f 51//108 31//62 36//65
f 50//110 19//23 33//117
f 33//117 19//23 18//25
f 50//118 15//18 19//23
f 19//23 15//109 14//119
f 46//120 44//121 12//112
f 12//112 44//86 13//122
f 44//86 11//123 13//124
f 13//124 11//123 8//125
f 41//82 40//69 10//83
f 10//126 40//69 52//127
f 17//128 6//10 52//127
f 52//127 6//1 10//7
f 52//129 40//130 54//131
f 54//131 40//132 53//133
f 52//129 54//134 17//135
f 17//135 54//131 18//25
f 54//136 53//137 34//138
f 34//139 53//137 35//58
f 34//56 33//117 54//131
f 54//131 33//117 18//140
f 40//132 39//68 53//133
f 53//141 39//68 21//30
f 53//133 21//142 35//143
f 35//143 21//142 20//27
f 39//144 28//43 21//30
f 21//30 28//43 22//28
f 37//66 31//53 25//102
f 25//102 31//53 30//61
f 35//60 20//27 30//145
f 30//61 20//27 25//37
f 19//23 14//20 16//21
f 16//146 14//20 7//147
f 17//24 16//148 6//1
f 6//1 16//146 7//149
f 14//20 13//17 7//149
f 7//150 13//124 8//125
f 60//1 61//2 55//3
f 55//3 61//4 62//5
f 63//6 64//7 55//3
f 55//8 64//9 60//10
f 55//11 62//12 63//13
f 63//14 62//12 65//15
f 66//16 67//17 69//18
f 69//19 67//17 68//20
f 70//21 71//22 73//23
f 73//23 71//24 72//25
f 56//26 74//27 76//28
f 76//29 74//27 75//30
f 76//28 77//31 56//32
f 56//33 77//31 78//34
f 78//35 79//36 56//26
f 56//26 79//37 74//38
f 80//39 81//40 57//41
f 57//41 81//40 77//42
f 82//43 83//44 57//45
f 57//45 83//44 80//46
f 77//31 76//28 57//41
f 57//47 76//48 82//49
f 58//50 84//51 86//52
f 86//52 84//51 85//53
f 86//52 87//54 58//50
f 58//55 87//54 88//56
f 88//57 89//58 58//55
f 58//59 89//60 84//61
f 85//62 91//63 90//64
f 90//65 91//66 92//67
f 93//68 94//69 59//70
f 59//70 94//69 95//71
f 83//44 82//43 59//72
f 59//72 82//73 93//68
f 95//74 96//75 59//76
f 59//76 96//75 83//44
f 63//14 65//77 96//75
f 96//75 65//78 97//79
f 96//75 97//79 83//44
f 83//44 97//80 80//81
f 96//75 95//82 63//13
f 63//13 95//82 64//83
f 65//15 98//84 97//79
f 97//85 98//86 99//87
f 97//80 99//88 80//89
f 80//90 99//91 81//40
f 98//92 100//93 99//91
f 99//91 100//93 101//94
f 99//91 101//94 81//95
f 81//96 101//94 102//97
f 101//94 92//98 102//99
f 102//99 92//98 91//100
f 102//99 91//66 78//101
f 78//35 91//63 79//102
f 78//34 77//103 102//97
f 102//97 77//103 81//40
f 100//93 103//104 101//94
f 101//105 103//106 92//107
f 103//106 69//18 105//108
f 105//108 69//109 104//110
f 105//108 90//65 103//106
f 103//106 90//65 92//98
f 100//111 66//112 103//113
f 103//113 66//112 69//18
f 105//108 104//110 86//114
f 86//52 104//110 87//115
f 86//114 85//53 105//116
f 105//108 85//62 90//65
f 104//110 73//23 87//117
f 87//117 73//23 72//25
f 104//118 69//18 73//23
f 73//23 69//109 68//119
f 100//120 98//121 66//112
f 66//112 98//86 67//122
f 98//86 65//123 67//124
f 67//124 65//123 62//125
f 95//82 94//69 64//83
f 64//126 94//69 106//127
f 71//128 60//10 106//127
f 106//127 60//1 64//7
f 106//129 94//130 108//131
f 108//131 94//132 107//133
f 106//129 108//134 71//135
f 71//135 108//131 72//25
f 108//136 107//137 88//138
f 88//139 107//137 89//58
f 88//56 87//117 108//131
f 108//131 87//117 72//140
f 94//132 93//68 107//133
f 107//141 93//68 75//30
f 107//133 75//142 89//143
f 89//143 75//142 74//27
f 93//144 82//43 75//30
f 75//30 82//43 76//28
f 91//66 85//53 79//102
f 79//102 85//53 84//61
f 89//60 74//27 84//145
f 84//61 74//27 79//37
f 73//23 68//20 70//21
f 70//146 68//20 61//147
f 71//24 70//148 60//1
f 60//1 70//146 61//149
f 68//20 67//17 61//149
f 61//150 67//124 62//125
