# Blender 4.1.0
# www.blender.org
mtllib SM_Rock_11_XS.mtl
o SM_Rock_11_XS
v -0.024545 0.010363 -0.007948
v -0.027588 0.010076 -0.000814
v -0.012813 -0.013435 -0.004227
v 0.029990 0.008670 0.002699
v 0.016874 0.005579 0.009078
v -0.012189 -0.013983 0.001291
v 0.029990 0.006658 -0.004772
v 0.029990 0.008230 0.006325
v -0.026007 0.010319 -0.003902
v -0.012343 0.010165 0.000072
v -0.011795 0.009702 -0.005662
v -0.012209 0.003321 -0.006028
v -0.023861 0.007372 -0.008505
v -0.028616 0.005786 -0.004815
v -0.032100 0.004528 -0.000481
v -0.010741 0.007776 0.006944
v -0.031188 0.001975 -0.005438
v -0.033856 0.002351 -0.002426
v -0.028984 0.001802 -0.007320
v -0.012522 -0.003947 -0.006520
v 0.004574 -0.010929 -0.003873
v 0.004565 -0.011915 0.003019
v 0.004110 -0.004110 -0.005284
v 0.017653 -0.008269 -0.004633
v 0.029990 -0.002254 -0.007306
v 0.029990 -0.002254 -0.001527
v 0.020775 -0.005107 0.000311
v 0.029990 0.007615 -0.002135
v 0.019875 0.008615 -0.002744
v 0.018103 0.008230 0.002379
v 0.029990 0.002579 0.005534
v 0.003841 0.007429 0.002016
v 0.006324 0.004645 0.008119
v 0.006773 -0.006343 0.008654
v 0.019741 -0.001394 0.006020
v -0.013820 -0.004798 0.006962
v 0.029990 0.004462 -0.006642
v 0.004247 0.003750 -0.005340
v 0.004092 0.008591 -0.003811
vn -0.0662 0.8791 -0.4720
vn -0.2117 0.9692 -0.1255
vn 0.1191 0.7081 -0.6960
vn 0.0490 0.9850 0.1652
vn -0.0367 0.0048 -0.9993
vn 0.1191 0.7082 -0.6959
vn 0.1273 0.0494 -0.9906
vn -0.6817 0.5135 -0.5211
vn -0.3641 0.4609 0.8093
vn -0.3642 0.4609 0.8093
vn -0.6817 0.5135 -0.5212
vn -0.4903 0.1476 0.8590
vn -0.1638 0.3895 0.9064
vn 0.0490 0.9850 0.1653
vn -0.3642 0.4608 0.8093
vn -0.2305 -0.6892 -0.6869
vn -0.5556 -0.5903 -0.5855
vn -0.0010 -0.1483 -0.9889
vn -0.5556 -0.5903 -0.5856
vn -0.2513 -0.3872 -0.8871
vn -0.2306 -0.6892 -0.6869
vn 0.1170 -0.7108 -0.6936
vn -0.2876 -0.7974 0.5305
vn -0.2875 -0.7974 0.5306
vn 0.1169 -0.7108 -0.6936
vn 0.1281 -0.8830 0.4516
vn -0.0009 -0.1483 -0.9889
vn -0.0049 -0.0909 -0.9959
vn 0.2110 -0.7763 -0.5939
vn 0.2027 -0.2209 -0.9540
vn 0.4071 -0.8164 0.4095
vn 0.6895 -0.6805 0.2479
vn 0.7510 0.6378 -0.1709
vn -0.0347 0.8362 -0.5473
vn 0.4750 0.8799 -0.0088
vn 0.4751 0.8799 -0.0088
vn -0.0348 0.8362 -0.5473
vn -0.0658 0.9711 0.2295
vn 0.3025 0.5331 0.7901
vn 0.5978 -0.4182 0.6839
vn 0.5978 -0.4181 0.6840
vn 0.7509 0.6379 -0.1710
vn 0.3025 0.5332 0.7901
vn -0.0351 0.3517 0.9355
vn -0.0658 0.9711 0.2296
vn 0.0015 0.3547 0.9350
vn 0.0607 0.9519 0.3004
vn -0.0351 0.3518 0.9354
vn 0.0014 0.3547 0.9350
vn 0.2637 -0.5060 0.8212
vn 0.2637 -0.5061 0.8212
vn 0.0016 0.3547 0.9350
vn 0.0939 -0.3483 0.9327
vn 0.5978 -0.4181 0.6839
vn 0.3025 0.5333 0.7900
vn -0.3085 -0.2691 0.9124
vn 0.1440 0.2480 -0.9580
vn 0.6192 0.6234 -0.4774
vn 0.6193 0.6234 -0.4774
vn -0.0348 0.8363 -0.5472
vn 0.7510 0.6378 -0.1710
vn 0.6192 0.6234 -0.4775
vn 0.7509 0.6379 -0.1709
vn 0.6895 -0.6806 0.2477
vn 0.6895 -0.6805 0.2478
vn 0.1439 0.2480 -0.9580
vn 0.1439 0.2479 -0.9580
vn -0.2875 -0.7974 0.5305
vn -0.5555 -0.5903 -0.5856
vn -0.6882 -0.6275 0.3641
vn 0.0033 0.1184 -0.9930
vn 0.0952 0.8731 -0.4782
vn 0.1440 0.2479 -0.9580
vn -0.0049 -0.0908 -0.9959
vn 0.0953 0.8731 -0.4782
vn 0.0607 0.9519 0.3003
vn 0.0952 0.8730 -0.4783
vn 0.1273 0.0493 -0.9906
vn 0.0033 0.1183 -0.9930
vn 0.1272 0.0493 -0.9906
vn 0.1272 0.0494 -0.9906
vn -0.0010 -0.1482 -0.9890
vn -0.4904 0.1476 0.8589
vn -0.3085 -0.2691 0.9123
vn 0.0938 -0.3483 0.9327
vn -0.1638 0.3895 0.9063
vn 0.0939 -0.3482 0.9327
vn 0.0608 0.9519 0.3004
vn 0.2110 -0.7764 -0.5939
vn -0.0049 -0.0909 -0.9958
vn -0.0367 0.0047 -0.9993
vn -0.0009 -0.1482 -0.9889
vn -0.4903 0.1475 0.8590
vn -0.2514 -0.3872 -0.8871
vn -0.5557 -0.5903 -0.5855
vn -0.0661 0.8791 -0.4721
vn -0.2118 0.9692 -0.1255
s 0
usemtl initialShadingGroup.002
f 1//1 9//2 11//3
f 11//3 9//2 10//4
f 1//1 11//3 13//5
f 13//5 11//6 12//7
f 9//2 14//8 2//9
f 2//10 14//11 15//12
f 16//13 10//14 2//15
f 2//10 10//14 9//2
f 3//16 17//17 20//18
f 20//18 17//19 19//20
f 3//21 21//22 6//23
f 6//24 21//25 22//26
f 3//16 20//18 21//25
f 21//25 20//27 23//28
f 24//29 25//30 27//31
f 27//31 25//30 26//32
f 28//33 29//34 4//35
f 4//36 29//37 30//38
f 8//39 31//40 4//36
f 4//36 31//41 28//42
f 4//36 30//38 8//43
f 8//43 30//38 5//44
f 5//44 30//45 33//46
f 33//46 30//38 32//47
f 5//48 33//49 35//50
f 35//51 33//52 34//53
f 35//50 31//41 5//48
f 5//48 31//54 8//55
f 6//23 22//26 36//56
f 36//56 22//26 34//53
f 37//57 29//37 7//58
f 7//59 29//60 28//61
f 7//62 28//63 26//64
f 26//65 28//63 31//41
f 7//58 26//32 37//66
f 37//67 26//32 25//30
f 3//16 6//68 17//69
f 17//19 6//23 18//70
f 37//57 38//71 29//37
f 29//60 38//71 39//72
f 37//73 25//30 38//71
f 38//71 25//30 23//74
f 11//3 10//14 39//75
f 39//72 10//14 32//47
f 32//76 30//38 39//77
f 39//72 30//38 29//37
f 39//72 38//71 11//3
f 11//6 38//71 12//78
f 38//79 23//74 12//80
f 12//81 23//74 20//82
f 15//83 18//70 36//56
f 36//84 18//70 6//23
f 34//85 33//46 36//56
f 36//56 33//46 16//86
f 16//86 2//10 36//56
f 36//56 2//10 15//12
f 35//51 34//87 27//31
f 27//31 34//53 22//26
f 27//31 26//32 35//51
f 35//50 26//65 31//40
f 33//46 32//88 16//86
f 16//13 32//88 10//14
f 27//31 22//26 24//89
f 24//89 22//26 21//25
f 25//30 24//89 23//90
f 23//28 24//89 21//25
f 19//20 13//91 20//18
f 20//92 13//5 12//7
f 14//11 17//19 15//93
f 15//83 17//17 18//70
f 13//5 19//94 14//11
f 14//11 19//20 17//95
f 1//96 13//91 9//2
f 9//97 13//5 14//11
