# Blender 4.1.0
# www.blender.org
mtllib SM_Rock_05_L.mtl
o SM_Rock_05_L
v 0.222878 0.012506 -0.128674
v -0.132255 0.045125 -0.156937
v 0.067882 0.125087 0.157222
v -0.215097 0.014400 -0.019856
v -0.100405 0.067100 0.251045
v 0.135927 -0.164020 0.003282
v 0.170838 -0.101547 -0.146970
v 0.106694 0.172997 -0.087842
v 0.165726 0.152041 -0.028234
v 0.190022 0.094816 -0.118172
v 0.106125 0.129807 -0.151686
v 0.231154 -0.049073 -0.111818
v 0.170842 -0.043967 -0.162415
v 0.175766 0.022706 -0.170993
v 0.234413 0.049078 -0.064733
v 0.247166 -0.034116 -0.009247
v -0.149814 0.142519 -0.075329
v -0.025928 0.146003 -0.145297
v -0.022393 0.048612 -0.177502
v -0.021654 -0.070904 -0.186388
v -0.160526 -0.090397 -0.111790
v 0.116026 0.112406 0.101764
v 0.085028 0.174954 0.044120
v 0.011902 0.162366 0.118915
v 0.026915 0.085456 0.219590
v 0.102469 0.028106 0.160480
v -0.236873 -0.072273 0.035236
v -0.224561 0.086016 0.051089
v -0.234850 -0.010183 0.138081
v -0.182330 -0.137393 0.074884
v -0.126336 -0.182864 -0.010262
v -0.059918 -0.148052 0.079950
v -0.144454 -0.096467 0.152113
v -0.025892 0.023367 0.238286
v -0.056505 0.125922 0.200734
v -0.184585 0.044616 0.205394
v -0.096945 -0.029701 0.198734
v -0.147260 0.107877 0.130866
v 0.206475 -0.128174 0.009269
v 0.150907 -0.089349 0.098374
v 0.078999 -0.131181 0.064141
v 0.023012 -0.181299 -0.021655
v 0.118405 -0.187500 -0.080365
v 0.204335 -0.125359 -0.096099
v 0.097636 -0.137614 -0.159599
v 0.088787 -0.051964 -0.193598
v 0.088791 0.044088 -0.198034
v -0.004044 -0.155602 -0.116837
v 0.002154 -0.082633 0.142411
v 0.061267 -0.026623 0.179271
v 0.181065 -0.014665 0.075765
v 0.184765 0.079865 0.020453
v -0.067034 0.150629 0.035312
v 0.018496 0.165482 -0.042533
vn 0.6513 0.7464 0.1367
vn 0.6720 0.5730 -0.4692
vn 0.1435 0.9400 -0.3095
vn 0.1435 0.9400 -0.3096
vn 0.1758 0.6751 -0.7165
vn 0.9153 -0.1888 -0.3558
vn 0.4839 -0.1810 -0.8562
vn 0.8290 0.1423 -0.5409
vn 0.4816 0.1740 -0.8589
vn 0.8290 0.1423 -0.5408
vn 0.9313 0.3631 0.0290
vn 0.9153 -0.1888 -0.3557
vn 0.9549 -0.0367 0.2946
vn 0.4816 0.1741 -0.8589
vn 0.6721 0.5729 -0.4692
vn -0.5723 0.7661 -0.2924
vn -0.1228 0.7769 -0.6176
vn -0.6083 0.1465 -0.7800
vn -0.6083 0.1465 -0.7801
vn -0.1228 0.7769 -0.6175
vn -0.1362 0.1994 -0.9704
vn -0.1362 0.1993 -0.9704
vn -0.2471 -0.3118 -0.9175
vn -0.6083 0.1464 -0.7801
vn -0.6083 0.1464 -0.7800
vn -0.2471 -0.3118 -0.9174
vn -0.6480 -0.4246 -0.6323
vn 0.5411 0.6300 0.5571
vn 0.7046 0.5046 0.4989
vn -0.0318 0.9639 0.2645
vn 0.7046 0.5047 0.4989
vn 0.2372 0.9433 0.2323
vn 0.3861 0.3489 0.8540
vn 0.6993 0.0733 0.7110
vn 0.6993 0.0732 0.7110
vn -0.9027 0.1016 -0.4181
vn -0.9294 -0.3540 -0.1043
vn -0.7950 0.6028 0.0680
vn -0.9027 0.1017 -0.4180
vn -0.9027 0.1016 -0.4180
vn -0.9294 -0.3540 -0.1042
vn -0.8881 -0.1120 0.4458
vn -0.3832 -0.9075 -0.1720
vn 0.0590 -0.8623 0.5030
vn -0.5431 -0.7637 0.3491
vn -0.2930 -0.6398 0.7105
vn -0.2661 0.2715 0.9249
vn 0.1771 -0.2857 0.9418
vn -0.1530 0.8463 0.5103
vn 0.1771 -0.2856 0.9418
vn 0.3860 0.3489 0.8540
vn -0.7005 0.1602 0.6954
vn -0.1319 -0.5512 0.8239
vn -0.1318 -0.5512 0.8239
vn 0.1770 -0.2856 0.9418
vn -0.1531 0.8462 0.5104
vn -0.4845 0.8342 0.2633
vn -0.2661 0.2714 0.9249
vn -0.7005 0.1601 0.6955
vn 0.7384 -0.5938 0.3195
vn 0.5192 -0.4824 0.7055
vn 0.2850 -0.8957 0.3412
vn 0.5192 -0.4823 0.7055
vn 0.1381 -0.8216 0.5530
vn 0.1381 -0.8217 0.5530
vn 0.0135 -0.9933 0.1149
vn 0.2850 -0.8958 0.3412
vn 0.2850 -0.8958 0.3411
vn 0.0134 -0.9933 0.1149
vn 0.2187 -0.9587 -0.1818
vn 0.7348 -0.6308 -0.2495
vn 0.0976 -0.6500 -0.7537
vn 0.0732 -0.1599 -0.9844
vn 0.4770 -0.4706 -0.7423
vn 0.0733 -0.1599 -0.9844
vn 0.4838 -0.1811 -0.8562
vn 0.9153 -0.1889 -0.3558
vn 0.4771 -0.4706 -0.7423
vn 0.4771 -0.4706 -0.7422
vn 0.7348 -0.6307 -0.2496
vn 0.7348 -0.6308 -0.2496
vn 0.4770 -0.4707 -0.7422
vn 0.0977 -0.6500 -0.7536
vn 0.0732 -0.1598 -0.9844
vn 0.0731 -0.1599 -0.9844
vn 0.0436 0.2266 -0.9730
vn 0.4816 0.1740 -0.8590
vn 0.4838 -0.1810 -0.8563
vn -0.2470 -0.3119 -0.9175
vn -0.2470 -0.3119 -0.9174
vn -0.2049 -0.8129 -0.5452
vn -0.3831 -0.9075 -0.1720
vn -0.2471 -0.3119 -0.9174
vn 0.0976 -0.6500 -0.7536
vn -0.2049 -0.8129 -0.5451
vn -0.3831 -0.9075 -0.1721
vn 0.0135 -0.9933 0.1150
vn 0.0435 0.2266 -0.9730
vn 0.1757 0.6751 -0.7165
vn 0.4815 0.1741 -0.8590
vn 0.6720 0.5729 -0.4692
vn 0.7348 -0.6307 -0.2495
vn 0.9549 -0.0368 0.2947
vn 0.1381 -0.8217 0.5529
vn 0.0591 -0.8623 0.5030
vn 0.0591 -0.8622 0.5031
vn 0.1390 -0.7022 0.6983
vn -0.1318 -0.5513 0.8239
vn -0.2929 -0.6398 0.7105
vn 0.1390 -0.7021 0.6984
vn 0.1390 -0.7021 0.6983
vn 0.3603 -0.4525 0.8158
vn 0.3603 -0.4524 0.8158
vn 0.1770 -0.2857 0.9418
vn -0.1318 -0.5513 0.8238
vn 0.6993 0.0732 0.7111
vn 0.7852 0.0833 0.6136
vn 0.7385 -0.5938 0.3194
vn 0.7871 0.4092 0.4616
vn 0.7871 0.4092 0.4615
vn 0.9549 -0.0367 0.2947
vn 0.9313 0.3631 0.0291
vn 0.7852 0.0834 0.6136
vn 0.6513 0.7464 0.1368
vn 0.9313 0.3632 0.0290
vn 0.6721 0.5729 -0.4691
vn 0.2372 0.9433 0.2322
vn -0.1531 0.8462 0.5103
vn -0.2566 0.9611 0.1024
vn -0.1530 0.8462 0.5104
vn -0.5723 0.7661 -0.2925
vn -0.4846 0.8342 0.2633
vn -0.2565 0.9611 0.1024
vn -0.0969 0.9912 -0.0899
vn -0.0969 0.9912 -0.0900
vn -0.1227 0.7769 -0.6176
vn 0.6512 0.7465 0.1367
vn -0.0968 0.9912 -0.0900
vn -0.8881 -0.1119 0.4458
vn -0.1319 -0.5512 0.8238
vn -0.1319 -0.5513 0.8238
vn -0.2930 -0.6398 0.7106
vn -0.0317 0.9639 0.2645
vn -0.5430 -0.7637 0.3491
s 0
usemtl initialShadingGroup.022
f 9//1 10//2 8//3
f 8//4 10//2 11//5
f 12//6 13//7 1//8
f 1//8 13//7 14//9
f 1//10 15//11 12//6
f 12//12 15//11 16//13
f 14//14 10//15 1//8
f 1//10 10//15 15//11
f 17//16 18//17 2//18
f 2//19 18//20 19//21
f 19//22 20//23 2//24
f 2//25 20//26 21//27
f 3//28 22//29 24//30
f 24//30 22//31 23//32
f 25//33 26//34 3//28
f 3//28 26//35 22//29
f 2//24 21//27 4//36
f 4//36 21//27 27//37
f 28//38 17//16 4//39
f 4//36 17//16 2//19
f 4//40 27//41 28//38
f 28//38 27//41 29//42
f 31//43 32//44 30//45
f 30//45 32//44 33//46
f 5//47 34//48 35//49
f 35//49 34//50 25//51
f 36//52 37//53 5//47
f 5//47 37//54 34//55
f 35//56 38//57 5//58
f 5//58 38//57 36//59
f 39//60 40//61 6//62
f 6//62 40//63 41//64
f 41//65 42//66 6//67
f 6//68 42//69 43//70
f 43//70 44//71 6//62
f 6//68 44//71 39//60
f 45//72 46//73 7//74
f 7//74 46//75 13//76
f 13//7 12//77 7//78
f 7//79 12//6 44//80
f 44//81 43//70 7//82
f 7//82 43//70 45//83
f 20//23 19//22 46//84
f 46//85 19//22 47//86
f 47//86 14//87 46//73
f 46//73 14//9 13//88
f 46//73 45//72 20//89
f 20//90 45//72 48//91
f 31//92 21//27 48//91
f 48//91 21//27 20//93
f 45//94 43//70 48//91
f 48//95 43//70 42//69
f 48//91 42//69 31//96
f 31//96 42//97 32//44
f 47//98 19//21 11//99
f 11//99 19//21 18//20
f 47//86 11//99 14//100
f 14//14 11//99 10//101
f 12//12 16//13 44//102
f 44//80 16//103 39//60
f 42//66 41//104 32//105
f 32//106 41//64 49//107
f 37//108 33//109 49//110
f 49//111 33//109 32//106
f 41//64 40//63 49//107
f 49//110 40//61 50//112
f 50//113 34//114 49//110
f 49//111 34//55 37//115
f 50//113 40//63 26//116
f 26//116 40//63 51//117
f 26//116 25//51 50//113
f 50//113 25//51 34//50
f 40//63 39//118 51//117
f 51//117 39//60 16//103
f 51//117 16//103 52//119
f 52//120 16//121 15//122
f 52//119 22//29 51//123
f 51//123 22//29 26//34
f 52//119 15//122 9//124
f 9//1 15//125 10//126
f 9//124 23//127 52//119
f 52//119 23//32 22//29
f 38//57 35//128 53//129
f 53//129 35//130 24//30
f 38//57 53//129 28//38
f 28//38 53//129 17//131
f 28//38 29//42 38//132
f 38//132 29//42 36//59
f 24//30 23//127 53//133
f 53//133 23//32 54//134
f 53//133 54//135 17//16
f 17//16 54//135 18//136
f 54//135 23//127 8//3
f 8//3 23//127 9//137
f 8//3 11//99 54//135
f 54//138 11//99 18//20
f 36//52 29//139 37//140
f 37//141 29//139 33//142
f 35//130 25//51 24//30
f 24//143 25//33 3//28
f 29//139 27//37 33//46
f 33//46 27//37 30//144
f 30//45 27//41 31//43
f 31//92 27//37 21//27
