# Blender 4.1.0
# www.blender.org
mtllib SM_Rock_13_XS.mtl
o SM_Rock_13_XS
v 0.025941 0.002788 -0.009480
v 0.021853 0.004102 -0.016446
v 0.012892 0.012647 -0.014038
v -0.012206 0.012332 -0.009912
v 0.001125 0.018895 0.013996
v 0.008450 0.022040 0.003173
v 0.019053 -0.015977 -0.011822
v 0.013539 -0.019169 0.018547
v -0.018842 -0.012345 -0.010837
v -0.006738 0.006771 0.014035
v 0.018086 0.010266 -0.007035
v 0.015790 0.008822 0.001478
v 0.023689 -0.001997 -0.001920
v -0.003018 -0.013277 -0.016452
v -0.000419 0.003392 -0.017836
v 0.000104 0.015775 -0.012876
v -0.016009 0.003873 -0.012097
v -0.026156 0.003201 0.002241
v -0.012742 0.019231 0.004097
v -0.003460 0.024537 0.004950
v -0.005628 0.018771 0.013059
v 0.004853 0.003527 0.017274
v 0.013118 0.004641 0.011624
v 0.014763 -0.017991 0.003139
v -0.001418 -0.016143 -0.000200
v 0.019272 -0.008293 0.008238
v 0.012206 -0.009361 0.016752
v -0.005719 -0.016762 0.013645
v -0.005928 -0.007733 0.013911
v -0.021873 -0.012747 -0.004017
v -0.022098 -0.014138 0.009142
v -0.019284 -0.003863 0.013198
v -0.013182 0.015076 0.011853
vn 0.9662 0.2558 0.0313
vn 0.6187 0.7744 0.1323
vn 0.9838 -0.0509 0.1720
vn 0.8383 0.4877 0.2436
vn 0.9662 0.2557 0.0313
vn 0.4335 -0.0366 -0.9004
vn 0.3402 0.6633 -0.6666
vn 0.4334 -0.0367 -0.9004
vn 0.4579 -0.6516 -0.6047
vn -0.0705 0.0293 -0.9971
vn -0.0862 -0.6003 -0.7951
vn -0.0705 0.0294 -0.9971
vn 0.3401 0.6633 -0.6666
vn 0.3402 0.6632 -0.6666
vn -0.0973 0.7360 -0.6699
vn -0.5882 0.1660 -0.7915
vn -0.9645 0.2623 -0.0300
vn -0.5258 0.6259 -0.5761
vn -0.9645 0.2624 -0.0299
vn -0.6459 0.7537 -0.1215
vn -0.1288 0.9822 -0.1367
vn -0.5257 0.6259 -0.5761
vn -0.1287 0.9822 -0.1367
vn -0.0974 0.7360 -0.6699
vn -0.0706 0.0294 -0.9971
vn 0.5695 0.8208 0.0445
vn 0.3584 0.5384 0.7627
vn 0.3585 0.5383 0.7627
vn -0.2876 0.4942 0.8204
vn -0.2876 0.4941 0.8204
vn 0.0972 0.0993 0.9903
vn 0.3585 0.5384 0.7627
vn 0.7045 0.3456 0.6198
vn 0.7045 0.3457 0.6198
vn 0.7046 0.3456 0.6198
vn 0.8383 0.4877 0.2437
vn 0.3607 -0.9323 -0.0264
vn -0.1061 -0.9865 -0.1249
vn 0.4579 -0.6516 -0.6048
vn 0.4580 -0.6516 -0.6047
vn -0.0862 -0.6002 -0.7952
vn 0.9204 -0.0974 0.3786
vn 0.1614 -0.8423 0.5142
vn 0.1615 -0.8423 0.5142
vn 0.2413 0.1184 0.9632
vn 0.1614 -0.8423 0.5143
vn -0.2214 -0.8590 0.4616
vn 0.3607 -0.9323 -0.0263
vn -0.2215 -0.8590 0.4616
vn -0.2214 -0.8590 0.4617
vn -0.1717 -0.0748 0.9823
vn -0.4941 -0.5537 -0.6703
vn -0.7131 -0.6383 -0.2900
vn -0.7131 -0.6383 -0.2899
vn -0.5881 0.1660 -0.7915
vn -0.0861 -0.6003 -0.7952
vn -0.4942 -0.5536 -0.6703
vn -0.5192 0.0237 0.8543
vn -0.9645 0.2624 -0.0300
vn -0.6032 -0.7434 0.2890
vn -0.1947 0.0610 0.9790
vn -0.5810 0.4301 0.6910
vn -0.1718 -0.0748 0.9823
vn -0.1717 -0.0749 0.9823
vn -0.5191 0.0237 0.8544
vn -0.1947 0.0611 0.9790
vn -0.5192 0.0237 0.8544
vn -0.2877 0.4941 0.8204
vn -0.5810 0.4300 0.6910
vn -0.1718 -0.0749 0.9823
vn -0.6033 -0.7433 0.2890
vn 0.9204 -0.0973 0.3786
vn 0.9838 -0.0508 0.1720
vn 0.3606 -0.9323 -0.0264
vn 0.3606 -0.9323 -0.0263
vn 0.4579 -0.6517 -0.6047
vn 0.4578 -0.6516 -0.6048
vn 0.9838 -0.0509 0.1719
vn -0.0973 0.7361 -0.6699
vn 0.8384 0.4877 0.2436
vn 0.5696 0.8208 0.0445
s 0
usemtl initialShadingGroup.001
f 1//1 11//2 13//3
f 13//3 11//2 12//4
f 1//5 2//6 11//2
f 11//2 2//6 3//7
f 2//8 7//9 15//10
f 15//10 7//9 14//11
f 2//8 15//12 3//13
f 3//14 15//12 16//15
f 17//16 18//17 4//18
f 4//18 18//19 19//20
f 19//20 20//21 4//22
f 4//22 20//23 16//24
f 16//15 15//12 4//22
f 4//22 15//25 17//16
f 6//26 20//23 5//27
f 5//28 20//21 21//29
f 21//30 22//31 5//32
f 5//32 22//31 23//33
f 5//27 23//34 6//26
f 6//26 23//35 12//36
f 24//37 25//38 7//39
f 7//40 25//38 14//41
f 24//37 26//42 8//43
f 8//44 26//42 27//45
f 8//46 28//47 24//48
f 24//48 28//49 25//38
f 8//46 27//45 28//50
f 28//47 27//45 29//51
f 9//52 30//53 17//16
f 17//16 30//54 18//19
f 9//52 17//55 14//56
f 14//56 17//16 15//25
f 14//41 25//38 9//57
f 9//57 25//38 30//53
f 32//58 18//59 31//60
f 31//60 18//17 30//53
f 22//31 21//29 10//61
f 10//61 21//30 33//62
f 10//61 29//63 22//31
f 22//31 29//64 27//45
f 33//62 32//65 10//66
f 10//61 32//67 29//51
f 33//62 21//68 19//20
f 19//20 21//29 20//23
f 19//20 18//59 33//69
f 33//69 18//59 32//58
f 32//67 31//60 29//70
f 29//63 31//71 28//49
f 30//54 25//38 31//71
f 31//71 25//38 28//49
f 26//42 23//35 27//45
f 27//45 23//33 22//31
f 26//72 13//73 23//35
f 23//35 13//3 12//36
f 26//42 24//74 13//3
f 13//3 24//75 7//76
f 7//77 2//6 13//3
f 13//78 2//6 1//1
f 3//13 16//15 6//26
f 6//26 16//79 20//23
f 11//2 3//13 12//36
f 12//80 3//13 6//81
