# Blender 4.1.0
# www.blender.org
mtllib SM_Rock_08_XS.mtl
o SM_Rock_08_XS
v 0.009229 0.016579 -0.005776
v 0.005843 0.008347 0.018012
v -0.021456 0.002261 -0.010639
v -0.023899 -0.000928 -0.002586
v 0.021523 0.003659 0.001503
v -0.015755 -0.007502 -0.012047
v -0.016044 -0.012042 0.003566
v -0.000558 0.012293 -0.008280
v -0.003730 0.012007 0.000711
v 0.006106 0.019051 0.003138
v 0.014221 0.010085 -0.006372
v 0.004656 0.005306 -0.012776
v 0.015795 0.010386 0.003138
v 0.006012 0.014202 0.013433
v -0.005509 0.006952 0.009413
v -0.006258 0.000171 0.014891
v -0.003193 -0.008779 0.010038
v 0.010451 -0.000829 0.013651
v 0.015350 0.007292 0.010395
v -0.024063 0.000572 -0.006773
v -0.015001 0.006254 -0.003318
v -0.011870 0.006573 -0.009615
v -0.008173 0.000343 -0.012796
v -0.020145 -0.003312 -0.011965
v -0.022598 -0.005547 -0.007570
v -0.017913 0.001686 0.002646
v -0.023040 -0.006547 -0.003291
v -0.019841 -0.005643 0.005297
v 0.020835 -0.002601 0.005665
v 0.020615 0.001296 -0.005791
v -0.018606 -0.010818 -0.008502
v -0.004746 -0.008366 -0.012079
v -0.002919 -0.015697 -0.007461
v -0.018553 -0.012777 -0.003537
v -0.002872 -0.015110 0.001079
v 0.012953 -0.009417 0.004981
v 0.013623 -0.010123 -0.003728
v 0.020696 -0.005247 -0.001133
v 0.010282 -0.004351 -0.011077
vn 0.2922 0.8207 -0.4910
vn -0.2951 0.7472 -0.5955
vn 0.0123 0.9853 0.1704
vn -0.2951 0.7471 -0.5956
vn -0.5467 0.8273 0.1293
vn 0.6075 0.4320 -0.6665
vn 0.1525 0.2020 -0.9674
vn 0.2921 0.8207 -0.4910
vn 0.1525 0.2021 -0.9674
vn -0.2951 0.7472 -0.5956
vn 0.0123 0.9853 0.1703
vn 0.7141 0.6869 0.1351
vn 0.6076 0.4321 -0.6665
vn -0.0314 0.8184 0.5738
vn -0.5633 0.6680 0.4863
vn 0.0307 0.1347 0.9904
vn -0.3585 -0.0998 0.9282
vn 0.0306 0.1347 0.9904
vn -0.3585 -0.0997 0.9282
vn 0.3156 -0.4281 0.8468
vn -0.0316 -0.6627 0.7482
vn 0.7100 0.3199 0.6274
vn -0.0315 0.8185 0.5737
vn -0.8445 0.5348 -0.0298
vn -0.5033 0.8528 0.1396
vn -0.4534 0.6152 -0.6450
vn -0.4534 0.6152 -0.6449
vn -0.2986 0.7225 -0.6236
vn -0.4535 0.6152 -0.6449
vn -0.2985 0.7226 -0.6235
vn -0.3524 0.0043 -0.9358
vn -0.3525 0.0044 -0.9358
vn -0.0700 0.1619 -0.9843
vn -0.8445 0.5348 -0.0297
vn -0.8532 -0.3431 -0.3927
vn -0.8954 0.2669 0.3564
vn -0.6146 0.6026 0.5091
vn -0.6146 0.6026 0.5090
vn -0.5033 0.8527 0.1396
vn -0.8532 -0.3432 -0.3927
vn -0.8954 0.2670 0.3564
vn -0.8533 -0.3431 -0.3927
vn -0.8942 -0.4153 0.1669
vn -0.8942 -0.4153 0.1670
vn -0.6533 -0.1446 0.7432
vn -0.6533 -0.1447 0.7431
vn 0.7141 0.6869 0.1352
vn 0.9239 0.3742 0.0804
vn 0.9239 0.3742 0.0803
vn 0.7635 -0.3114 0.5659
vn 0.7132 0.0758 -0.6968
vn 0.6076 0.4320 -0.6664
vn 0.6076 0.4320 -0.6665
vn -0.1130 -0.3484 -0.9305
vn -0.3787 -0.7330 -0.5650
vn -0.3787 -0.7331 -0.5650
vn -0.3525 0.0043 -0.9358
vn -0.0700 0.1618 -0.9843
vn 0.0415 -0.3416 -0.9389
vn 0.1049 -0.8959 -0.4317
vn -0.4394 -0.8983 -0.0028
vn 0.0735 -0.9454 0.3174
vn -0.3535 -0.7556 0.5515
vn -0.3534 -0.7555 0.5516
vn -0.6533 -0.1446 0.7431
vn -0.3535 -0.7555 0.5516
vn -0.4395 -0.8983 -0.0029
vn -0.0316 -0.6626 0.7483
vn 0.3405 -0.8070 0.4825
vn 0.3404 -0.8070 0.4825
vn 0.3156 -0.4282 0.8468
vn 0.0735 -0.9455 0.3174
vn 0.1050 -0.8959 -0.4318
vn -0.4394 -0.8983 -0.0029
vn -0.3787 -0.7331 -0.5649
vn 0.4708 -0.8147 -0.3385
vn 0.0736 -0.9455 0.3173
vn 0.0736 -0.9455 0.3174
vn 0.4708 -0.8147 -0.3386
vn 0.3405 -0.8071 0.4824
vn 0.8007 -0.5714 -0.1799
vn 0.7635 -0.3113 0.5659
vn 0.1050 -0.8959 -0.4317
vn 0.3717 -0.2860 -0.8832
vn 0.7133 0.0759 -0.6968
vn 0.7132 0.0759 -0.6968
vn 0.0415 -0.3415 -0.9389
vn 0.7634 -0.3113 0.5659
vn 0.7634 -0.3114 0.5659
vn -0.3586 -0.0998 0.9281
vn -0.6145 0.6026 0.5091
vn -0.6145 0.6027 0.5090
vn -0.5633 0.6681 0.4863
vn -0.5466 0.8273 0.1294
vn -0.2985 0.7225 -0.6236
vn -0.5466 0.8273 0.1293
vn -0.2986 0.7225 -0.6235
vn -0.0315 0.8184 0.5737
vn -0.0315 0.8184 0.5738
vn 0.0122 0.9853 0.1703
vn -0.5633 0.6680 0.4862
vn -0.5467 0.8273 0.1294
s 0
usemtl initialShadingGroup.006
f 1//1 8//2 10//3
f 10//3 8//4 9//5
f 11//6 12//7 1//1
f 1//8 12//9 8//10
f 10//11 13//12 1//8
f 1//8 13//12 11//13
f 14//14 15//15 2//16
f 2//16 15//15 16//17
f 2//18 16//19 18//20
f 18//20 16//19 17//21
f 18//20 19//22 2//16
f 2//16 19//22 14//23
f 20//24 21//25 3//26
f 3//27 21//25 22//28
f 3//29 22//30 24//31
f 24//32 22//28 23//33
f 3//26 24//32 20//34
f 20//24 24//32 25//35
f 4//36 26//37 20//24
f 20//24 26//38 21//39
f 20//34 25//40 4//41
f 4//41 25//42 27//43
f 27//44 28//45 4//36
f 4//41 28//46 26//37
f 13//47 19//22 5//48
f 5//49 19//22 29//50
f 30//51 11//52 5//49
f 5//49 11//53 13//12
f 6//54 31//55 24//32
f 24//32 31//56 25//40
f 24//57 23//58 6//54
f 6//54 23//58 32//59
f 6//54 32//59 31//56
f 31//56 32//59 33//60
f 34//61 35//62 7//63
f 7//64 35//62 17//21
f 28//65 27//44 7//66
f 7//66 27//43 34//67
f 7//66 17//21 28//46
f 28//45 17//68 16//17
f 35//62 36//69 17//21
f 17//21 36//70 18//71
f 35//72 34//61 33//73
f 33//60 34//74 31//75
f 33//60 37//76 35//77
f 35//78 37//79 36//80
f 37//76 38//81 36//80
f 36//80 38//81 29//82
f 37//79 33//83 39//84
f 39//84 33//83 32//59
f 39//84 30//85 37//76
f 37//76 30//86 38//81
f 39//84 32//59 12//7
f 12//7 32//87 23//58
f 12//7 11//53 39//84
f 39//84 11//53 30//51
f 36//69 29//82 18//20
f 18//20 29//88 19//22
f 34//74 27//43 31//56
f 31//56 27//43 25//40
f 30//86 5//49 38//81
f 38//81 5//48 29//89
f 28//45 16//90 26//37
f 26//91 16//19 15//15
f 26//92 15//93 21//39
f 21//25 15//15 9//94
f 22//95 8//4 23//33
f 23//33 8//4 12//7
f 21//25 9//96 22//97
f 22//28 9//96 8//2
f 19//22 13//47 14//98
f 14//99 13//47 10//100
f 15//101 14//14 9//102
f 9//102 14//14 10//11
