# Blender 4.1.0
# www.blender.org
mtllib SM_Rock_06_M.mtl
o SM_Rock_06_M
v -0.027213 0.069342 0.024321
v -0.025677 -0.102802 0.003913
v 0.035139 -0.090386 -0.025223
v -0.028073 0.071445 -0.034200
v 0.056140 0.025225 -0.036763
v -0.009367 -0.092795 -0.041907
v 0.030898 0.000631 -0.026555
v 0.019417 -0.015288 0.030586
v 0.028006 0.036318 -0.039636
v 0.031172 0.065834 0.027030
v -0.044800 0.020912 -0.006230
v -0.000980 -0.031841 0.024624
v 0.011990 0.085780 -0.000910
v 0.055862 0.056921 0.028556
v -0.006445 0.074629 0.043717
v -0.024585 0.078964 -0.004016
v -0.042791 0.032422 0.020442
v -0.029349 0.020154 0.048185
v -0.038545 -0.069697 0.013366
v -0.040920 -0.068308 -0.007178
v -0.020396 -0.105013 -0.012307
v -0.013011 -0.104362 0.012774
v -0.024883 -0.068048 0.025308
v -0.001951 -0.106358 -0.006608
v 0.027333 -0.051916 -0.027176
v 0.028195 -0.054049 -0.004735
v 0.031597 -0.096774 -0.006711
v 0.005844 -0.106248 -0.020058
v 0.010836 -0.099080 -0.036671
v -0.034623 0.034270 -0.030563
v -0.037318 0.050338 -0.003140
v 0.001921 0.070520 -0.040946
v -0.001877 0.037895 -0.043239
v 0.044693 0.055675 -0.039117
v 0.052747 0.067074 -0.010462
v 0.064293 0.026019 0.003437
v 0.034195 -0.006801 0.003678
v -0.015859 -0.102572 -0.028399
v -0.021705 -0.059289 -0.042291
v 0.004343 -0.054534 -0.042671
v -0.038993 -0.064148 -0.029037
v -0.001926 -0.006475 -0.033637
v 0.005584 -0.097234 0.021186
v 0.022081 -0.098876 0.008916
v 0.019783 -0.057495 0.011939
v -0.006206 0.001016 0.057154
v -0.020494 -0.031657 0.034713
v 0.001171 -0.062406 0.020044
v 0.038414 0.029824 0.035079
v 0.018843 0.050850 0.057544
v -0.045963 -0.011964 -0.015385
v -0.046751 -0.016355 0.007968
v -0.030740 -0.007678 -0.035055
v -0.041045 -0.023563 0.029258
vn -0.2312 0.6910 0.6849
vn 0.1724 0.9843 -0.0369
vn -0.6840 0.6287 0.3700
vn -0.4907 0.8712 -0.0160
vn -0.9326 0.1965 0.3028
vn -0.6161 0.0886 0.7826
vn -0.6839 0.6287 0.3700
vn -0.6162 0.0886 0.7826
vn -0.2311 0.6911 0.6848
vn -0.8656 -0.2853 0.4116
vn -0.9624 -0.2669 -0.0508
vn -0.7595 -0.6012 0.2485
vn -0.9624 -0.2669 -0.0509
vn -0.6567 -0.7223 -0.2168
vn -0.2320 -0.7117 0.6630
vn -0.2239 -0.2366 0.9455
vn -0.8655 -0.2853 0.4117
vn -0.6567 -0.7224 -0.2168
vn -0.2320 -0.7117 0.6631
vn 0.0746 -0.9926 0.0960
vn 0.7935 0.0763 -0.6037
vn 0.9757 -0.0430 0.2150
vn 0.8396 -0.2019 -0.5042
vn 0.8396 -0.2018 -0.5043
vn 0.8655 -0.4465 0.2270
vn 0.8656 -0.4464 0.2269
vn 0.1926 -0.9687 -0.1568
vn 0.8397 -0.2018 -0.5042
vn 0.1926 -0.9687 -0.1569
vn 0.3629 -0.4070 -0.8382
vn -0.6849 0.0107 -0.7286
vn -0.9491 0.3104 -0.0525
vn -0.5869 0.5272 -0.6145
vn -0.5868 0.5273 -0.6145
vn -0.9491 0.3105 -0.0524
vn 0.0732 0.6984 -0.7119
vn -0.1106 -0.1138 -0.9873
vn -0.5869 0.5273 -0.6144
vn -0.5870 0.5272 -0.6144
vn -0.1105 -0.1138 -0.9873
vn -0.6849 0.0108 -0.7286
vn -0.4908 0.8711 -0.0160
vn 0.0732 0.6983 -0.7120
vn 0.0732 0.6984 -0.7120
vn -0.4908 0.8712 -0.0160
vn 0.1723 0.9843 -0.0369
vn 0.6015 -0.3554 -0.7155
vn 0.0608 -0.1706 -0.9835
vn 0.7787 -0.3064 -0.5475
vn 0.7787 -0.3065 -0.5474
vn 0.0609 -0.1705 -0.9835
vn 0.4627 0.5394 -0.7035
vn 0.4627 0.5394 -0.7036
vn 0.7202 0.6777 -0.1484
vn 0.7787 -0.3065 -0.5475
vn 0.7202 0.6777 -0.1485
vn 0.9481 -0.2862 0.1385
vn 0.7787 -0.3064 -0.5474
vn 0.6014 -0.3554 -0.7155
vn 0.9043 -0.3852 0.1840
vn -0.2046 -0.3224 -0.9242
vn -0.5918 -0.6762 -0.4388
vn -0.5918 -0.6762 -0.4389
vn -0.3039 0.0112 -0.9526
vn 0.2771 0.1147 -0.9540
vn 0.2771 0.1146 -0.9540
vn -0.5918 -0.6761 -0.4389
vn -0.8585 -0.2031 -0.4709
vn -0.8585 -0.2031 -0.4708
vn -0.3040 0.0112 -0.9526
vn 0.1158 -0.0019 -0.9933
vn -0.1105 -0.1139 -0.9873
vn 0.6014 -0.3555 -0.7155
vn 0.0747 -0.9926 0.0961
vn 0.2345 -0.4065 0.8830
vn 0.2346 -0.4065 0.8830
vn 0.6521 -0.4794 0.5873
vn 0.7017 -0.1004 0.7054
vn 0.9756 -0.0430 0.2151
vn 0.6469 -0.4011 0.6485
vn 0.9043 -0.3851 0.1841
vn 0.0896 -0.2889 0.9532
vn -0.0499 -0.4340 0.8995
vn 0.6469 -0.4011 0.6486
vn 0.2878 -0.3729 0.8821
vn 0.6470 -0.4011 0.6485
vn 0.2877 -0.3729 0.8821
vn 0.7016 -0.1003 0.7054
vn 0.7016 -0.1004 0.7055
vn 0.3151 -0.0528 0.9476
vn 0.6696 -0.2722 0.6910
vn 0.7540 0.3719 0.5415
vn 0.9043 -0.3852 0.1841
vn 0.6696 -0.2723 0.6910
vn 0.9481 -0.2862 0.1384
vn 0.0608 -0.1705 -0.9835
vn 0.4628 0.5394 -0.7035
vn 0.7540 0.3718 0.5415
vn 0.7203 0.6776 -0.1484
vn 0.4525 0.7595 0.4673
vn 0.2851 0.1995 0.9375
vn 0.6696 -0.2722 0.6911
vn 0.4526 0.7595 0.4673
vn -0.2312 0.6911 0.6848
vn -0.9395 0.0329 -0.3409
vn -0.9935 -0.0429 0.1053
vn -0.9775 0.1086 -0.1810
vn -0.9326 0.1965 0.3027
vn -0.6849 0.0108 -0.7285
vn -0.4074 0.1067 -0.9070
vn -0.9775 0.1086 -0.1811
vn -0.9395 0.0329 -0.3410
vn -0.9775 0.1087 -0.1810
vn -0.9491 0.3105 -0.0525
vn 0.3150 -0.0529 0.9476
vn -0.0498 -0.4339 0.8996
vn 0.1724 0.9843 -0.0370
vn 0.4627 0.5393 -0.7036
vn -0.4074 0.1066 -0.9070
vn -0.6849 0.0107 -0.7285
vn -0.1106 -0.1139 -0.9873
vn 0.2770 0.1147 -0.9540
vn -0.9395 0.0328 -0.3410
vn -0.9935 -0.0429 0.1052
vn -0.9395 0.0328 -0.3409
vn -0.9624 -0.2668 -0.0508
vn -0.9935 -0.0430 0.1053
vn -0.7864 -0.1789 0.5912
vn -0.6162 0.0885 0.7826
vn -0.7864 -0.1790 0.5912
vn -0.0498 -0.4340 0.8995
vn -0.8655 -0.2852 0.4117
vn 0.0896 -0.2888 0.9532
vn -0.7864 -0.1789 0.5913
vn -0.7864 -0.1790 0.5913
vn 0.0897 -0.2888 0.9532
vn -0.6161 0.0885 0.7827
vn 0.2851 0.1996 0.9375
vn 0.3150 -0.0528 0.9476
vn -0.2239 -0.2366 0.9454
vn 0.7016 -0.1004 0.7054
vn 0.6521 -0.4795 0.5873
vn 0.6520 -0.4795 0.5874
vn 0.8655 -0.4465 0.2269
vn 0.0747 -0.9926 0.0960
vn 0.6520 -0.4794 0.5874
vn 0.7936 0.0763 -0.6037
vn 0.8396 -0.2019 -0.5043
vn 0.8396 -0.2018 -0.5042
vn 0.1925 -0.9687 -0.1568
s 0
usemtl initialShadingGroup.016
f 15//1 13//2 1//3
f 1//3 13//2 16//4
f 17//5 18//6 1//3
f 1//7 18//8 15//9
f 19//10 20//11 2//12
f 2//12 20//13 21//14
f 22//15 23//16 2//12
f 2//12 23//16 19//17
f 2//12 21//18 22//19
f 22//19 21//14 24//20
f 25//21 26//22 3//23
f 3//24 26//22 27//25
f 27//26 28//27 3//28
f 3//28 28//29 29//30
f 30//31 31//32 4//33
f 4//34 31//35 16//4
f 32//36 33//37 4//38
f 4//39 33//40 30//41
f 4//39 16//42 32//43
f 32//44 16//45 13//46
f 7//47 9//48 5//49
f 5//50 9//51 34//52
f 34//53 35//54 5//55
f 5//55 35//56 36//57
f 5//58 36//57 7//59
f 7//59 36//57 37//60
f 6//61 29//30 38//62
f 38//63 29//30 28//29
f 39//64 40//65 6//61
f 6//61 40//66 29//30
f 38//67 41//68 6//61
f 6//61 41//69 39//70
f 42//71 33//72 7//59
f 7//59 33//72 9//51
f 7//73 37//60 25//21
f 25//21 37//60 26//22
f 22//19 24//74 43//75
f 43//76 24//74 44//77
f 45//78 26//79 8//80
f 8//80 26//79 37//81
f 46//82 47//83 8//84
f 8//80 47//83 12//85
f 8//86 12//87 45//88
f 45//89 12//85 48//90
f 49//91 36//57 14//92
f 14//92 36//57 35//54
f 8//80 37//93 49//91
f 49//94 37//60 36//95
f 33//40 32//36 9//96
f 9//96 32//36 34//97
f 14//98 35//99 10//100
f 10//100 35//54 13//2
f 50//101 49//102 10//100
f 10//103 49//91 14//92
f 13//2 15//104 10//100
f 10//100 15//9 50//101
f 51//105 52//106 11//107
f 11//107 52//106 17//108
f 30//109 53//110 11//111
f 11//107 53//110 51//112
f 17//108 31//35 11//107
f 11//113 31//114 30//109
f 12//85 47//83 48//90
f 48//115 47//116 23//16
f 35//54 34//97 13//2
f 13//117 34//118 32//44
f 53//119 30//120 42//71
f 42//71 30//109 33//121
f 53//110 42//71 39//64
f 39//64 42//71 40//122
f 39//70 41//69 53//119
f 53//110 41//68 51//123
f 52//124 51//125 20//126
f 20//126 51//105 41//69
f 20//11 19//10 52//106
f 52//127 19//10 54//128
f 52//106 54//128 17//108
f 17//5 54//128 18//129
f 54//130 19//10 47//83
f 47//131 19//132 23//16
f 47//83 46//133 54//134
f 54//135 46//136 18//129
f 15//9 18//137 50//138
f 50//101 18//137 46//82
f 50//101 46//133 49//102
f 49//102 46//133 8//84
f 48//139 23//16 43//76
f 43//76 23//140 22//19
f 48//90 43//76 45//141
f 45//141 43//76 44//142
f 44//143 27//144 45//78
f 45//78 27//144 26//79
f 24//145 28//27 44//77
f 44//146 28//27 27//25
f 7//59 25//147 42//71
f 42//71 25//21 40//65
f 41//69 38//62 20//11
f 20//11 38//67 21//18
f 25//21 3//148 40//66
f 40//65 3//149 29//30
f 28//150 24//145 38//63
f 38//63 24//145 21//14
f 17//108 1//3 31//35
f 31//35 1//3 16//4
