# Blender 4.1.0
# www.blender.org
mtllib SM_Rock_05_M.mtl
o SM_Rock_05_M
v 0.091413 -0.043429 -0.017302
v -0.067916 0.015908 -0.048043
v 0.042230 0.060208 -0.049919
v 0.035943 0.046264 0.047420
v -0.054561 -0.051252 0.043072
v -0.034528 0.036982 0.091584
v 0.071712 -0.011593 -0.063567
v 0.041907 -0.064621 0.002072
v 0.079729 -0.034537 0.012684
v 0.063688 -0.056542 0.011985
v 0.075187 -0.060875 -0.026275
v 0.093765 -0.022510 -0.030114
v 0.085986 -0.005938 0.007352
v 0.072565 -0.037978 -0.052648
v -0.081736 0.014024 -0.012551
v -0.076631 0.041110 -0.003134
v -0.027743 0.041693 -0.062196
v -0.013296 -0.006960 -0.069651
v -0.065954 -0.016844 -0.044429
v -0.086293 -0.005717 0.006895
v 0.050339 0.038763 -0.066304
v -0.002101 0.062246 -0.028435
v 0.030564 0.067098 -0.002492
v 0.057817 0.062226 -0.026893
v 0.030392 0.027774 0.068146
v 0.059244 0.007595 0.039410
v 0.055101 0.037694 0.022534
v 0.046101 0.061136 0.009311
v 0.020730 0.065153 0.051242
v 0.004640 0.047650 0.079782
v -0.092989 0.021449 0.039421
v -0.046661 -0.031059 0.063342
v -0.076751 -0.009754 0.062175
v -0.080455 -0.035239 0.026531
v -0.039944 -0.066464 0.017099
v -0.018074 -0.045154 0.042683
v -0.010944 0.023232 0.090224
v -0.023349 0.056342 0.072815
v -0.063963 0.017994 0.079629
v -0.034033 -0.001347 0.076645
v -0.064384 0.043447 0.054615
v 0.087773 0.005629 -0.045849
v 0.036962 -0.051741 -0.065087
v 0.041599 -0.006150 -0.077480
v 0.034124 -0.034323 0.041815
v 0.011318 -0.055466 0.016657
v -0.002544 -0.072828 -0.020179
v 0.040431 -0.074190 -0.027913
v -0.008696 -0.055641 -0.053434
v -0.065174 -0.061374 -0.025354
v 0.000560 -0.017633 0.063092
v 0.054490 -0.018922 0.050770
v 0.018163 0.007431 0.074149
v -0.001257 0.066708 0.036827
v -0.039992 0.054523 0.013678
v 0.082951 0.024599 -0.009627
v 0.071012 0.047164 -0.022447
vn 0.7497 -0.3018 0.5889
vn 0.3964 -0.7246 0.5637
vn 0.9062 -0.4193 0.0548
vn 0.5301 -0.8149 -0.2344
vn 0.9838 -0.0494 -0.1726
vn 0.8926 0.1411 0.4282
vn 0.8926 0.1410 0.4282
vn 0.5528 -0.4697 -0.6884
vn 0.5528 -0.4697 -0.6883
vn 0.9837 -0.0494 -0.1727
vn -0.9570 0.0762 -0.2799
vn -0.5914 0.7785 -0.2102
vn -0.6503 0.2648 -0.7121
vn -0.6503 0.2648 -0.7120
vn -0.2643 0.5799 -0.7706
vn -0.2643 0.5800 -0.7706
vn -0.2228 -0.0827 -0.9714
vn -0.6503 0.2647 -0.7121
vn -0.2228 -0.0828 -0.9713
vn -0.6552 -0.2413 -0.7159
vn -0.6553 -0.2413 -0.7158
vn -0.9570 0.0761 -0.2799
vn -0.9779 -0.1365 -0.1585
vn 0.0800 0.8258 -0.5583
vn 0.2535 0.4807 -0.8395
vn -0.1871 0.9392 -0.2880
vn -0.1871 0.9392 -0.2881
vn 0.2535 0.4806 -0.8395
vn -0.2642 0.5800 -0.7706
vn 0.0345 0.9985 -0.0430
vn 0.4616 0.8803 -0.1097
vn 0.6603 0.1648 0.7327
vn 0.7713 0.2240 0.5958
vn 0.7549 0.4423 0.4843
vn 0.7549 0.4423 0.4842
vn 0.7729 0.4491 0.4482
vn 0.7729 0.4492 0.4482
vn 0.5950 0.7553 0.2748
vn 0.7549 0.4424 0.4842
vn 0.3087 0.8597 0.4069
vn 0.3087 0.8598 0.4069
vn 0.3165 0.5542 0.7699
vn -0.9779 -0.1364 -0.1585
vn -0.5914 0.7785 -0.2103
vn -0.5914 0.7785 -0.2101
vn -0.9583 0.2421 0.1519
vn -0.3519 -0.7656 0.5386
vn -0.1580 -0.5781 0.8005
vn -0.8586 -0.4821 0.1740
vn -0.8586 -0.4822 0.1740
vn -0.7201 -0.3697 0.5872
vn -0.1902 -0.9459 0.2627
vn 0.1703 -0.7567 0.6312
vn -0.3519 -0.7656 0.5385
vn 0.1702 -0.7566 0.6313
vn -0.1579 -0.5781 0.8005
vn -0.2593 0.3424 0.9031
vn 0.1708 -0.1499 0.9738
vn -0.1970 0.9059 0.3748
vn 0.1709 -0.1498 0.9738
vn 0.3164 0.5542 0.7699
vn -0.5578 0.0566 0.8280
vn -0.0458 -0.4378 0.8979
vn -0.2593 0.3425 0.9030
vn -0.0458 -0.4379 0.8979
vn -0.5197 0.8145 0.2580
vn 0.8560 0.2800 -0.4347
vn 0.5800 -0.0440 -0.8134
vn 0.5800 -0.0441 -0.8134
vn 0.9837 -0.0494 -0.1726
vn 0.5799 -0.0441 -0.8135
vn 0.5527 -0.4697 -0.6884
vn 0.0578 -0.0011 -0.9983
vn 0.0577 -0.0012 -0.9983
vn 0.1009 -0.5662 -0.8180
vn 0.0578 -0.0012 -0.9983
vn 0.5799 -0.0440 -0.8135
vn 0.8559 0.2801 -0.4347
vn 0.3963 -0.7246 0.5638
vn 0.1952 -0.6968 0.6902
vn 0.0947 -0.9007 0.4240
vn 0.1133 -0.8623 0.4936
vn -0.0553 -0.9956 -0.0750
vn 0.0947 -0.9007 0.4239
vn -0.0552 -0.9957 -0.0750
vn 0.1587 -0.9632 -0.2169
vn 0.1588 -0.9632 -0.2169
vn 0.3963 -0.7247 0.5638
vn -0.0552 -0.9956 -0.0751
vn -0.2369 -0.5994 -0.7646
vn -0.2368 -0.5994 -0.7646
vn 0.1009 -0.5663 -0.8180
vn 0.1010 -0.5663 -0.8180
vn 0.5527 -0.4698 -0.6884
vn 0.5302 -0.8148 -0.2344
vn -0.6173 -0.6824 -0.3916
vn -0.6552 -0.2413 -0.7158
vn -0.2228 -0.0828 -0.9714
vn -0.0552 -0.9956 -0.0750
vn -0.6172 -0.6824 -0.3916
vn -0.6172 -0.6824 -0.3917
vn -0.1902 -0.9460 0.2627
vn -0.9779 -0.1365 -0.1586
vn -0.6173 -0.6823 -0.3917
vn -0.8586 -0.4822 0.1741
vn -0.3520 -0.7656 0.5385
vn 0.1133 -0.8623 0.4935
vn -0.1901 -0.9459 0.2628
vn -0.1901 -0.9459 0.2627
vn 0.1134 -0.8623 0.4936
vn 0.1703 -0.7566 0.6313
vn 0.1739 -0.5726 0.8012
vn 0.3910 -0.2874 0.8744
vn 0.3910 -0.2873 0.8744
vn 0.5626 -0.3082 0.7672
vn 0.3909 -0.2874 0.8744
vn 0.1709 -0.1499 0.9738
vn 0.5625 -0.3081 0.7672
vn 0.7712 0.2240 0.5958
vn 0.3909 -0.2873 0.8744
vn 0.7712 0.2240 0.5959
vn 0.6603 0.1647 0.7327
vn 0.1708 -0.1498 0.9738
vn 0.5626 -0.3081 0.7672
vn 0.7497 -0.3017 0.5890
vn 0.7497 -0.3018 0.5890
vn 0.7713 0.2239 0.5958
vn 0.8926 0.1411 0.4283
vn -0.2227 -0.0827 -0.9714
vn -0.1971 0.9059 0.3748
vn -0.3138 0.9470 -0.0688
vn -0.1710 0.9830 0.0672
vn -0.5196 0.8145 0.2580
vn -0.9583 0.2421 0.1518
vn -0.5577 0.0566 0.8281
vn -0.9583 0.2422 0.1519
vn -0.7201 -0.3696 0.5872
vn -0.3137 0.9470 -0.0688
vn 0.0344 0.9985 -0.0430
vn -0.2642 0.5799 -0.7706
vn -0.3138 0.9470 -0.0689
vn -0.3137 0.9470 -0.0689
vn -0.1710 0.9830 0.0673
vn 0.3164 0.5541 0.7699
vn -0.1709 0.9830 0.0672
vn 0.0344 0.9985 -0.0429
vn 0.0345 0.9985 -0.0429
vn -0.5577 0.0567 0.8281
vn 0.8560 0.2801 -0.4346
vn 0.8858 0.3962 0.2415
vn 0.8858 0.3961 0.2416
vn 0.8858 0.3962 0.2416
vn 0.8018 0.5895 -0.0983
vn 0.8017 0.5895 -0.0983
vn 0.4616 0.8803 -0.1096
vn 0.0800 0.8258 -0.5582
vn 0.8017 0.5895 -0.0984
vn 0.8559 0.2801 -0.4346
vn 0.8018 0.5895 -0.0984
s 0
usemtl initialShadingGroup.021
f 9//1 10//2 1//3
f 1//3 10//2 11//4
f 12//5 13//6 1//3
f 1//3 13//7 9//1
f 11//4 14//8 1//3
f 1//3 14//9 12//10
f 15//11 16//12 2//13
f 2//14 16//12 17//15
f 17//16 18//17 2//18
f 2//18 18//19 19//20
f 2//13 19//21 15//22
f 15//11 19//21 20//23
f 3//24 21//25 22//26
f 22//27 21//28 17//29
f 22//26 23//30 3//24
f 3//24 23//30 24//31
f 25//32 26//33 4//34
f 4//35 26//33 27//36
f 27//37 28//38 4//39
f 4//39 28//38 29//40
f 4//39 29//41 25//32
f 25//32 29//40 30//42
f 15//11 20//43 16//44
f 16//45 20//43 31//46
f 5//47 32//48 34//49
f 34//50 32//48 33//51
f 35//52 36//53 5//47
f 5//54 36//55 32//56
f 6//57 37//58 38//59
f 38//59 37//60 30//61
f 39//62 40//63 6//64
f 6//57 40//65 37//58
f 38//59 41//66 6//57
f 6//57 41//66 39//62
f 42//67 12//10 7//68
f 7//69 12//70 14//8
f 7//71 14//72 44//73
f 44//74 14//72 43//75
f 44//76 21//28 7//77
f 7//77 21//28 42//78
f 10//79 45//80 8//81
f 8//81 45//80 46//82
f 46//82 47//83 8//84
f 8//84 47//85 48//86
f 48//87 11//4 8//84
f 8//84 11//4 10//88
f 47//89 49//90 48//87
f 48//86 49//91 43//92
f 43//93 14//72 48//87
f 48//87 14//94 11//95
f 50//96 19//20 49//90
f 49//90 19//97 18//19
f 49//90 18//19 43//92
f 43//93 18//98 44//74
f 49//90 47//99 50//100
f 50//101 47//83 35//102
f 34//49 20//23 50//100
f 50//100 20//103 19//21
f 50//104 35//52 34//105
f 34//105 35//102 5//106
f 47//85 46//107 35//108
f 35//109 46//110 36//53
f 46//110 45//80 36//53
f 36//111 45//80 51//112
f 40//65 32//48 51//112
f 51//112 32//48 36//111
f 51//112 45//80 53//113
f 53//114 45//80 52//115
f 53//116 37//58 51//112
f 51//112 37//117 40//65
f 52//118 26//119 53//120
f 53//114 26//121 25//122
f 25//32 30//61 53//114
f 53//114 30//61 37//123
f 52//124 45//80 9//125
f 9//126 45//80 10//79
f 52//124 9//125 26//127
f 26//127 9//125 13//128
f 44//74 18//129 21//28
f 21//28 18//129 17//16
f 41//66 38//130 55//131
f 55//131 38//59 54//132
f 55//131 16//45 41//133
f 41//66 16//45 31//134
f 41//133 31//134 39//135
f 39//62 31//136 33//137
f 55//138 54//132 22//26
f 22//26 54//132 23//139
f 22//26 17//140 55//141
f 55//142 17//15 16//12
f 38//59 30//61 54//132
f 54//143 30//144 29//40
f 54//145 29//40 23//146
f 23//147 29//41 28//38
f 39//148 33//51 40//65
f 40//65 33//51 32//48
f 34//49 33//51 20//23
f 20//23 33//51 31//46
f 42//149 56//150 12//5
f 12//70 56//151 13//6
f 56//152 27//36 13//128
f 13//128 27//36 26//33
f 56//152 57//153 27//37
f 27//37 57//154 28//38
f 57//153 24//155 28//38
f 28//38 24//155 23//147
f 24//155 57//153 3//156
f 3//24 57//157 21//28
f 56//150 42//158 57//153
f 57//159 42//158 21//28
