# Blender 4.1.0
# www.blender.org
mtllib SM_Rock_06_XL.mtl
o SM_Rock_06_XL
v 0.028647 0.588439 -0.002841
v -0.020732 -0.196563 0.185507
v 0.261464 0.491174 -0.014965
v -0.088335 -0.684665 -0.002906
v 0.171368 -0.555228 0.094906
v -0.297086 0.179713 0.003590
v 0.177559 0.052971 -0.185971
v 0.326764 0.295536 -0.234825
v 0.389128 0.127752 -0.209899
v 0.175558 0.354053 -0.250041
v -0.154106 -0.537786 -0.240947
v 0.000044 -0.601412 -0.263313
v -0.045935 -0.684857 -0.111614
v -0.215246 -0.620810 -0.130519
v 0.240401 -0.507431 -0.124374
v 0.214737 -0.567544 -0.011981
v 0.062542 -0.680511 -0.086135
v 0.151844 -0.592446 -0.236690
v 0.120169 -0.360284 0.090777
v -0.002468 -0.371730 0.125775
v 0.046184 -0.551742 0.203957
v 0.399016 0.405141 0.033455
v 0.201749 0.457921 0.160630
v 0.363444 0.238442 0.150294
v 0.224553 0.531844 -0.175266
v -0.032957 0.414031 -0.257575
v -0.195045 -0.046260 0.296649
v -0.177343 -0.359733 0.152382
v 0.435938 0.371560 -0.127845
v -0.119031 -0.611854 0.168503
v -0.014475 -0.686691 0.031933
v -0.204793 -0.622232 0.051781
v 0.163438 -0.265294 0.053378
v -0.231771 0.123753 -0.169067
v -0.240673 -0.273970 -0.223350
v -0.328206 -0.292621 -0.079975
v -0.201314 0.456645 0.001847
v -0.223298 0.405696 -0.191879
v -0.303918 -0.327850 0.081513
v -0.288579 0.081746 0.191686
v 0.434382 0.142936 -0.033296
v 0.251235 0.011081 -0.029872
v 0.200945 -0.263787 -0.096260
v 0.115130 -0.253879 -0.215982
v -0.063211 -0.256006 -0.261564
v -0.061586 0.090693 -0.226531
v -0.217851 0.372597 0.203549
v -0.068169 0.366841 0.370770
v 0.104300 0.237347 0.410901
v 0.217342 0.094426 0.157320
v 0.028647 0.588439 -0.002841
v -0.020732 -0.196563 0.185507
v 0.261464 0.491174 -0.014965
v -0.088335 -0.684665 -0.002906
v 0.171368 -0.555228 0.094906
v -0.297086 0.179713 0.003590
v 0.177559 0.052971 -0.185971
v 0.326764 0.295536 -0.234825
v 0.389128 0.127752 -0.209899
v 0.175558 0.354053 -0.250041
v -0.154106 -0.537786 -0.240947
v 0.000044 -0.601412 -0.263313
v -0.045935 -0.684857 -0.111614
v -0.215246 -0.620810 -0.130519
v 0.240401 -0.507431 -0.124374
v 0.214737 -0.567544 -0.011981
v 0.062542 -0.680511 -0.086135
v 0.151844 -0.592446 -0.236690
v 0.120169 -0.360284 0.090777
v -0.002468 -0.371730 0.125775
v 0.046184 -0.551742 0.203957
v 0.399016 0.405141 0.033455
v 0.201749 0.457921 0.160630
v 0.363444 0.238442 0.150294
v 0.224553 0.531844 -0.175266
v -0.032957 0.414031 -0.257575
v -0.195045 -0.046260 0.296649
v -0.177343 -0.359733 0.152382
v 0.435938 0.371560 -0.127845
v -0.119031 -0.611854 0.168503
v -0.014475 -0.686691 0.031933
v -0.204793 -0.622232 0.051781
v 0.163438 -0.265294 0.053378
v -0.231771 0.123753 -0.169067
v -0.240673 -0.273970 -0.223350
v -0.328206 -0.292621 -0.079975
v -0.201314 0.456645 0.001847
v -0.223298 0.405696 -0.191879
v -0.303918 -0.327850 0.081513
v -0.288579 0.081746 0.191686
v 0.434382 0.142936 -0.033296
v 0.251235 0.011081 -0.029872
v 0.200945 -0.263787 -0.096260
v 0.115130 -0.253879 -0.215982
v -0.063211 -0.256006 -0.261564
v -0.061586 0.090693 -0.226531
v -0.217851 0.372597 0.203549
v -0.068169 0.366841 0.370770
v 0.104300 0.237347 0.410901
v 0.217342 0.094426 0.157320
vn 0.5766 -0.4647 -0.6720
vn 0.3229 -0.2187 -0.9208
vn 0.2989 0.0836 -0.9506
vn 0.3229 -0.2186 -0.9208
vn 0.0994 0.0364 -0.9944
vn 0.0027 -0.3319 -0.9433
vn -0.1545 -0.9153 -0.3720
vn -0.4759 -0.2553 -0.8417
vn -0.4759 -0.2553 -0.8416
vn -0.1544 -0.9153 -0.3721
vn -0.7976 -0.5120 -0.3189
vn 0.9627 -0.0114 -0.2704
vn 0.8831 -0.4086 0.2307
vn 0.5205 -0.3183 -0.7923
vn 0.5205 -0.3184 -0.7923
vn 0.8831 -0.4085 0.2306
vn 0.4086 -0.9104 -0.0657
vn 0.7415 -0.3548 0.5694
vn 0.5597 0.1823 0.8084
vn 0.2230 -0.2208 0.9495
vn 0.2231 -0.2208 0.9495
vn 0.5596 0.1822 0.8084
vn 0.1974 0.0370 0.9796
vn 0.4616 0.8689 0.1787
vn 0.4587 0.6397 0.6167
vn 0.7940 0.4699 0.3858
vn 0.7939 0.4699 0.3858
vn 0.4588 0.6396 0.6168
vn 0.5736 -0.0843 0.8148
vn -0.1639 0.9857 0.0391
vn 0.2236 0.8335 -0.5052
vn -0.2280 0.4067 -0.8847
vn -0.2279 0.4067 -0.8847
vn 0.2237 0.8335 -0.5052
vn 0.2236 0.8335 -0.5053
vn -0.3444 -0.2848 0.8946
vn -0.2472 -0.2674 0.9313
vn 0.3654 -0.4070 0.8372
vn 0.3654 -0.4069 0.8372
vn -0.2472 -0.2674 0.9314
vn 0.1973 0.0369 0.9797
vn 0.8771 0.3725 -0.3033
vn 0.4617 0.8689 0.1786
vn 0.4617 0.8689 0.1787
vn -0.3356 -0.3684 0.8670
vn 0.2489 -0.8983 0.3620
vn 0.2230 -0.2207 0.9495
vn 0.2490 -0.8983 0.3620
vn 0.7416 -0.3548 0.5693
vn -0.8167 -0.4939 0.2984
vn -0.3044 -0.9475 0.0982
vn 0.2489 -0.8983 0.3619
vn -0.1544 -0.9153 -0.3720
vn 0.4085 -0.9104 -0.0657
vn 0.2489 -0.8984 0.3619
vn -0.3356 -0.3685 0.8670
vn -0.3044 -0.9475 0.0983
vn -0.8168 -0.4939 0.2983
vn 0.5596 0.1823 0.8084
vn 0.5597 0.1822 0.8084
vn 0.7726 -0.1899 0.6058
vn -0.9855 0.1490 -0.0807
vn -0.7114 0.0713 -0.6991
vn -0.9787 -0.0801 -0.1889
vn -0.9787 -0.0802 -0.1889
vn -0.7115 0.0713 -0.6991
vn -0.6040 0.0058 -0.7970
vn -0.7073 0.7067 -0.0181
vn -0.6778 0.4112 -0.6095
vn -0.9855 0.1490 -0.0806
vn -0.9856 0.1490 -0.0806
vn -0.9787 -0.0802 -0.1888
vn -0.9116 0.0662 0.4058
vn -0.8927 -0.2239 0.3911
vn 0.8771 0.3725 -0.3032
vn 0.5765 -0.4648 -0.6720
vn 0.5765 -0.4647 -0.6721
vn 0.8827 -0.4394 0.1665
vn 0.8689 -0.4936 0.0364
vn 0.9793 -0.0072 -0.2025
vn 0.4551 0.0566 -0.8886
vn 0.3230 -0.2186 -0.9208
vn 0.8689 -0.4936 0.0363
vn 0.4551 0.0566 -0.8887
vn -0.0741 -0.0050 -0.9972
vn -0.0741 -0.0049 -0.9972
vn 0.0207 0.0646 -0.9977
vn -0.2620 0.5085 0.8202
vn -0.1639 0.9857 0.0392
vn -0.7310 0.5390 0.4184
vn 0.4598 -0.0590 0.8860
vn 0.4587 0.6397 0.6168
vn -0.2619 0.5086 0.8202
vn -0.3443 -0.2847 0.8946
vn 0.4599 -0.0589 0.8860
vn 0.4598 -0.0590 0.8861
vn 0.3653 -0.4070 0.8372
vn -0.7114 0.0713 -0.6992
vn -0.6779 0.4112 -0.6094
vn -0.0742 -0.0050 -0.9972
vn -0.2280 0.4066 -0.8847
vn 0.0994 0.0363 -0.9944
vn 0.0206 0.0646 -0.9977
vn -0.6039 0.0058 -0.7970
vn -0.0742 -0.0049 -0.9972
vn 0.5205 -0.3185 -0.7922
vn 0.0026 -0.3319 -0.9433
vn 0.9627 -0.0114 -0.2705
vn 0.9627 -0.0115 -0.2705
vn 0.5205 -0.3184 -0.7922
vn 0.8690 -0.4936 0.0363
vn 0.7726 -0.1900 0.6058
vn 0.7185 -0.3494 0.6014
vn 0.9627 -0.0115 -0.2704
vn 0.8831 -0.4085 0.2307
vn 0.8771 0.3726 -0.3032
vn 0.5735 -0.0843 0.8148
vn -0.7976 -0.5121 -0.3189
vn -0.7975 -0.5121 -0.3189
vn -0.2473 -0.2674 0.9313
vn -0.2472 -0.2675 0.9313
vn -0.3355 -0.3685 0.8670
vn -0.9116 0.0662 0.4057
vn -0.7310 0.5390 0.4185
vn -0.7073 0.7067 -0.0182
vn -0.4759 -0.2552 -0.8417
vn 0.4587 0.6396 0.6168
vn 0.5736 -0.0842 0.8148
vn 0.2490 -0.8983 0.3619
vn 0.4085 -0.9104 -0.0656
vn 0.7416 -0.3548 0.5694
vn 0.2230 -0.2209 0.9495
vn 0.1973 0.0369 0.9796
vn -0.3356 -0.3685 0.8669
vn 0.2990 0.0836 -0.9506
vn -0.1638 0.9857 0.0392
vn 0.3654 -0.4070 0.8371
vn 0.1973 0.0370 0.9796
s 0
usemtl initialShadingGroup.014
f 9//1 7//2 8//3
f 8//3 7//4 10//5
f 12//6 13//7 11//8
f 11//9 13//10 14//11
f 15//12 16//13 18//14
f 18//15 16//16 17//17
f 5//18 19//19 21//20
f 21//21 19//22 20//23
f 3//24 23//25 22//26
f 22//27 23//28 24//29
f 1//30 25//31 26//32
f 26//33 25//34 10//5
f 23//25 3//24 1//30
f 1//30 3//24 25//35
f 27//36 28//37 2//38
f 2//39 28//40 20//41
f 22//26 29//42 3//43
f 3//44 29//42 25//35
f 30//45 31//46 21//47
f 21//20 31//48 5//49
f 32//50 14//11 4//51
f 4//51 14//11 13//7
f 4//51 13//7 31//52
f 31//46 13//53 17//54
f 31//55 30//56 4//57
f 4//57 30//56 32//58
f 5//18 16//13 19//59
f 19//60 16//13 33//61
f 6//62 34//63 36//64
f 36//65 34//66 35//67
f 37//68 38//69 6//70
f 6//71 38//69 34//63
f 6//71 36//72 40//73
f 40//73 36//72 39//74
f 8//3 29//75 9//76
f 9//77 29//42 41//78
f 42//79 43//80 7//2
f 7//2 43//80 44//81
f 7//82 9//1 42//79
f 42//83 9//77 41//78
f 7//4 44//84 46//85
f 46//86 44//81 45//87
f 48//88 1//89 47//90
f 47//90 1//89 37//68
f 49//91 23//92 48//88
f 48//88 23//92 1//30
f 47//90 40//73 48//93
f 48//93 40//73 27//36
f 48//93 27//94 49//95
f 49//96 27//36 2//97
f 34//98 38//99 46//100
f 46//100 38//99 26//101
f 26//33 10//5 46//100
f 46//100 10//102 7//2
f 45//103 35//104 46//105
f 46//105 35//104 34//98
f 45//87 44//81 12//6
f 12//6 44//81 18//106
f 12//107 11//8 45//103
f 45//103 11//8 35//104
f 43//80 15//108 44//81
f 44//81 15//109 18//110
f 43//80 42//111 33//112
f 33//61 42//79 50//113
f 43//80 33//112 15//114
f 15//108 33//112 16//115
f 42//83 41//78 50//113
f 50//113 41//78 24//29
f 29//116 22//26 41//78
f 41//78 22//27 24//117
f 40//73 39//74 27//94
f 27//36 39//74 28//37
f 36//72 14//118 39//74
f 39//74 14//119 32//58
f 39//74 32//58 28//120
f 28//121 32//50 30//122
f 40//123 47//124 6//71
f 6//70 47//90 37//125
f 35//67 11//126 36//65
f 36//65 11//9 14//11
f 49//96 50//113 23//127
f 23//28 50//113 24//128
f 31//129 17//130 5//49
f 5//131 17//17 16//115
f 21//132 20//133 30//134
f 30//134 20//133 28//37
f 29//116 8//135 25//34
f 25//34 8//3 10//5
f 38//69 37//125 26//32
f 26//33 37//125 1//136
f 33//112 50//113 2//39
f 2//137 50//113 49//91
f 19//59 33//112 20//138
f 20//133 33//112 2//39
f 18//15 17//54 12//107
f 12//6 17//54 13//10
f 59//1 57//2 58//3
f 58//3 57//4 60//5
f 62//6 63//7 61//8
f 61//9 63//10 64//11
f 65//12 66//13 68//14
f 68//15 66//16 67//17
f 55//18 69//19 71//20
f 71//21 69//22 70//23
f 53//24 73//25 72//26
f 72//27 73//28 74//29
f 51//30 75//31 76//32
f 76//33 75//34 60//5
f 73//25 53//24 51//30
f 51//30 53//24 75//35
f 77//36 78//37 52//38
f 52//39 78//40 70//41
f 72//26 79//42 53//43
f 53//44 79//42 75//35
f 80//45 81//46 71//47
f 71//20 81//48 55//49
f 82//50 64//11 54//51
f 54//51 64//11 63//7
f 54//51 63//7 81//52
f 81//46 63//53 67//54
f 81//55 80//56 54//57
f 54//57 80//56 82//58
f 55//18 66//13 69//59
f 69//60 66//13 83//61
f 56//62 84//63 86//64
f 86//65 84//66 85//67
f 87//68 88//69 56//70
f 56//71 88//69 84//63
f 56//71 86//72 90//73
f 90//73 86//72 89//74
f 58//3 79//75 59//76
f 59//77 79//42 91//78
f 92//79 93//80 57//2
f 57//2 93//80 94//81
f 57//82 59//1 92//79
f 92//83 59//77 91//78
f 57//4 94//84 96//85
f 96//86 94//81 95//87
f 98//88 51//89 97//90
f 97//90 51//89 87//68
f 99//91 73//92 98//88
f 98//88 73//92 51//30
f 97//90 90//73 98//93
f 98//93 90//73 77//36
f 98//93 77//94 99//95
f 99//96 77//36 52//97
f 84//98 88//99 96//100
f 96//100 88//99 76//101
f 76//33 60//5 96//100
f 96//100 60//102 57//2
f 95//103 85//104 96//105
f 96//105 85//104 84//98
f 95//87 94//81 62//6
f 62//6 94//81 68//106
f 62//107 61//8 95//103
f 95//103 61//8 85//104
f 93//80 65//108 94//81
f 94//81 65//109 68//110
f 93//80 92//111 83//112
f 83//61 92//79 100//113
f 93//80 83//112 65//114
f 65//108 83//112 66//115
f 92//83 91//78 100//113
f 100//113 91//78 74//29
f 79//116 72//26 91//78
f 91//78 72//27 74//117
f 90//73 89//74 77//94
f 77//36 89//74 78//37
f 86//72 64//118 89//74
f 89//74 64//119 82//58
f 89//74 82//58 78//120
f 78//121 82//50 80//122
f 90//123 97//124 56//71
f 56//70 97//90 87//125
f 85//67 61//126 86//65
f 86//65 61//9 64//11
f 99//96 100//113 73//127
f 73//28 100//113 74//128
f 81//129 67//130 55//49
f 55//131 67//17 66//115
f 71//132 70//133 80//134
f 80//134 70//133 78//37
f 79//116 58//135 75//34
f 75//34 58//3 60//5
f 88//69 87//125 76//32
f 76//33 87//125 51//136
f 83//112 100//113 52//39
f 52//137 100//113 99//91
f 69//59 83//112 70//138
f 70//133 83//112 52//39
f 68//15 67//54 62//107
f 62//6 67//54 63//10
