v 0.004429239314 -0.02847921103 -0.005901656114
vn -0.03351707011 -0.9983859062 0.04584976658
v 0.04156062752 -0.01939828321 0.02926204354
vn 0.5801123381 -0.6972661018 0.4210577905
v -0.01896302961 -0.02006053366 0.04737034068
vn -0.2074025571 -0.794868052 0.570235908
v -0.05241157115 -0.01923659071 -0.001309726038
vn -0.6579982638 -0.7454813719 -0.1062814146
v -0.01565993764 -0.01866157167 -0.05046017841
vn -0.2464002371 -0.738001287 -0.6282045841
v 0.04165985808 -0.01918023452 -0.03190297633
vn 0.597145319 -0.6755648851 -0.4324691594
v 0.01557468995 0.0154772047 0.0481448248
vn 0.2363632768 0.5719667673 0.7854848504
v -0.04566108435 0.01566628739 0.02949458547
vn -0.5737793446 0.7363501191 0.3585607409
v -0.04467814416 0.01381702162 -0.03169641644
vn -0.6167269349 0.6716297269 -0.4105622768
v 0.0002787124249 0.01673416048 -0.05418958515
vn 0.2240856141 0.6284819841 -0.744846344
v 0.05148608983 0.01547700539 -0.001282543642
vn 0.763862133 0.6420129538 0.06583284587
v 0.01080637611 0.03198426962 -0.001128746546
vn -0.01744433679 0.998057723 -0.0598032847
v 0.02494132891 -0.027035987 0.0114376545
vn 0.1281909049 -0.9807201624 0.1474961042
v 0.01480180677 -0.02238238603 0.04570565745
vn 0.2001438439 -0.8496139646 0.4879534245
v -0.008534297347 -0.0269571282 0.02567883767
vn -0.02018160187 -0.9889708161 0.1467292309
v 0.0253821332 -0.03232314438 -0.0202522669
vn 0.1592931449 -0.9811526537 -0.1093854234
v 0.04894338921 -0.02237650193 -0.001345302677
vn 0.6505673528 -0.7581165433 0.04496047273
v -0.04389766231 -0.02360247262 0.02656664327
vn -0.4098393023 -0.8683073521 0.2794173658
v -0.02915571816 -0.02850389294 -0.002450263128
vn -0.1642740965 -0.9852856994 -0.04718219116
v -0.0369258225 -0.01947372779 -0.0293402914
vn -0.4594373703 -0.8153534532 -0.3523010612
v -0.005413083825 -0.02741752937 -0.03192206845
vn -0.1333232522 -0.9697767496 -0.2043476552
v 0.01479551196 -0.0224500373 -0.04829522595
vn 0.1933640689 -0.7317067385 -0.6536172628
v 0.06090000272 -0.001248017885 -0.01895133406
vn 0.9689100981 -0.04932174087 -0.2424471378
v 0.05477669835 -0.001962537179 0.01667275652
vn 0.9316394329 -0.0001241584396 0.3633840978
v 0.03366860002 -0.001962537179 0.0457258448
vn 0.614107728 -0.001190265757 0.7892212868
v -0.0008799129282 -0.008233550936 0.06078727543
vn -0.01639596745 -0.009505555034 0.9998204112
v -0.04727700353 -0.003602233948 0.0442498289
vn -0.5492699742 -0.03729799762 0.8348121643
v -0.06090000272 -0.00356487534 0.02302051336
vn -0.9841091633 0.007082280703 0.177423209
v -0.05795157328 -0.003655211767 -0.01910543256
vn -0.9482798576 -0.07188522816 -0.3091889322
v -0.03749703988 -0.002879723441 -0.05024242401
vn -0.5986870527 -0.09356487542 -0.7954995036
v -0.002232609317 -0.003103276482 -0.06078727171
vn 0.0001979839726 -0.05955148861 -0.9982252121
v 0.03894097731 -0.001936257235 -0.04828672484
vn 0.5327702165 0.04414977506 -0.8451074958
v 0.03950260207 0.01853905618 0.02777003869
vn 0.6110904813 0.6649804115 0.4293827415
v -0.02052898146 0.01867737621 0.04588263854
vn -0.2279252857 0.6801065803 0.6967819333
v -0.04991234466 0.01853905618 -0.001282543642
vn -0.6666576862 0.7445546985 -0.03472517431
v -0.01804164611 0.01829392835 -0.04856753722
vn -0.3134296834 0.7089294791 -0.6318075657
v 0.04326718301 0.01728520729 -0.03040678054
vn 0.4823752046 0.7580546737 -0.4389388561
v 0.03186320513 0.029391516 -0.001700864173
vn 0.354783535 0.9335564375 -0.05100077763
v 0.01012992859 0.0323231481 0.02863695845
vn 0.09315730631 0.9461070895 0.3101662993
v -0.02261658758 0.02895290963 0.01534794178
vn -0.2477174997 0.9610288143 0.1227180064
v -0.02214510366 0.02870636433 -0.01746622846
vn -0.2425687462 0.9564679861 -0.1622633934
v 0.002940833103 0.02760999463 -0.03357106447
vn 0.09298878908 0.9478943944 -0.3047118783
# mm_gid 0
g mmGroup0
f 1//1 13//13 15//15 
f 2//2 13//13 17//17 
f 1//1 15//15 19//19 
f 1//1 19//19 21//21 
f 1//1 21//21 16//16 
f 2//2 17//17 24//24 
f 3//3 14//14 26//26 
f 4//4 18//18 28//28 
f 5//5 20//20 30//30 
f 6//6 22//22 32//32 
f 2//2 24//24 25//25 
f 3//3 26//26 27//27 
f 4//4 28//28 29//29 
f 5//5 30//30 31//31 
f 6//6 32//32 23//23 
f 7//7 33//33 39//39 
f 8//8 34//34 40//40 
f 9//9 35//35 41//41 
f 10//10 36//36 42//42 
f 11//11 37//37 38//38 
f 15//15 14//14 3//3 
f 15//15 13//13 14//14 
f 13//13 2//2 14//14 
f 17//17 16//16 6//6 
f 17//17 13//13 16//16 
f 13//13 1//1 16//16 
f 19//19 18//18 4//4 
f 19//19 15//15 18//18 
f 15//15 3//3 18//18 
f 21//21 20//20 5//5 
f 21//21 19//19 20//20 
f 19//19 4//4 20//20 
f 16//16 22//22 6//6 
f 16//16 21//21 22//22 
f 21//21 5//5 22//22 
f 24//24 23//23 11//11 
f 24//24 17//17 23//23 
f 17//17 6//6 23//23 
f 26//26 25//25 7//7 
f 26//26 14//14 25//25 
f 14//14 2//2 25//25 
f 28//28 27//27 8//8 
f 28//28 18//18 27//27 
f 18//18 3//3 27//27 
f 30//30 29//29 9//9 
f 30//30 20//20 29//29 
f 20//20 4//4 29//29 
f 32//32 31//31 10//10 
f 32//32 22//22 31//31 
f 22//22 5//5 31//31 
f 25//25 33//33 7//7 
f 25//25 24//24 33//33 
f 24//24 11//11 33//33 
f 27//27 34//34 8//8 
f 27//27 26//26 34//34 
f 26//26 7//7 34//34 
f 29//29 35//35 9//9 
f 29//29 28//28 35//35 
f 28//28 8//8 35//35 
f 31//31 36//36 10//10 
f 31//31 30//30 36//36 
f 30//30 9//9 36//36 
f 23//23 37//37 11//11 
f 23//23 32//32 37//37 
f 32//32 10//10 37//37 
f 39//39 38//38 12//12 
f 39//39 33//33 38//38 
f 33//33 11//11 38//38 
f 40//40 39//39 12//12 
f 40//40 34//34 39//39 
f 34//34 7//7 39//39 
f 41//41 40//40 12//12 
f 41//41 35//35 40//40 
f 35//35 8//8 40//40 
f 42//42 41//41 12//12 
f 42//42 36//36 41//41 
f 36//36 9//9 41//41 
f 38//38 42//42 12//12 
f 38//38 37//37 42//42 
f 37//37 10//10 42//42 
