v -0.04001938179 -0.0399799943 0.04997486994
vn -0.5087897778 -0.6699914336 0.5405963659
v -0.04001938179 -0.0399799943 -0.04997486994
vn -0.6939429045 -0.5622483492 -0.4498000145
v 0.0375110358 -0.02980331518 -0.05145122856
vn 0.6568982601 -0.5055146217 -0.5594100952
v 0.03994810954 -0.03994271532 0.04992249236
vn 0.7428063154 -0.4862582088 0.4602083862
v -0.03985266015 0.03866585344 0.04913738742
vn -0.7029164433 0.6495450735 0.2898268998
v -0.03946965188 0.03951112926 -0.04893009365
vn -0.5130746365 0.6717031002 -0.5343869328
v 0.03647915646 0.04714759067 -0.04716728255
vn 0.7299932837 0.5514830947 -0.4037030637
v 0.0400432609 0.03996700048 0.04853039235
vn 0.4665689468 0.6895646453 0.5539079905
v -0.04507093504 0.03606686369 0.01011381485
vn -0.7215147018 0.6772576571 0.1440090239
v -0.04625903815 0.04623635113 -0.01643973403
vn -0.7243533731 0.6864097118 -0.06445106119
v -0.04637398198 0.01332649682 -0.0579180792
vn -0.7559483647 0.2032351196 -0.622284174
v -0.04637398198 -0.01332669985 -0.0579180792
vn -0.7766164541 -0.1923534572 -0.5998892188
v -0.04637398198 -0.04633459449 -0.01665832289
vn -0.6955918074 -0.6988660097 -0.1665483713
v -0.04637398198 -0.04633459449 0.01665832289
vn -0.6832177639 -0.7177809477 0.134178713
v -0.04637398198 -0.01332669985 0.0579180792
vn -0.7583810091 -0.1932139695 0.6225163341
v -0.04637398198 0.01332649682 0.0579180792
vn -0.7724061012 0.2014543414 0.6023329496
v -0.01336607803 0.04633440077 -0.0579180792
vn -0.1424726546 0.7791332006 -0.6104531288
v 0.01291820314 0.04709851742 -0.05761882663
vn 0.2264598906 0.8001621962 -0.5553885102
v 0.04033661634 0.02573425509 -0.05313097686
vn 0.7606166005 0.1891755313 -0.62102741
v 0.04002527148 0.00450323429 -0.05607880279
vn 0.7801252604 -0.08204559237 -0.6202201843
v 0.01284913812 -0.04448783025 -0.05819233879
vn 0.1599247158 -0.7337026 -0.6603821516
v -0.01306143217 -0.03907565027 -0.05902061984
vn -0.2476082742 -0.7531264424 -0.6095003486
v 0.0446944274 0.04557248205 -0.01815077476
vn 0.6970111132 0.7086325288 -0.1096151322
v 0.046295017 0.04633440077 0.01665832289
vn 0.6908521652 0.7133922577 0.1174510643
v 0.04634319618 0.01368931402 0.05753876269
vn 0.755889535 0.1411438435 0.639303863
v 0.0467668809 -0.009996075183 0.05428920314
vn 0.7435467243 -0.1490535438 0.6518598795
v 0.04629462212 -0.04633269832 0.01665802486
vn 0.7411637902 -0.6665335298 0.08005815744
v 0.04546194151 -0.04282206669 -0.01717976108
vn 0.7408769727 -0.6253721118 -0.2449715883
v 0.01371930074 0.04628073052 0.0518454276
vn 0.1253145039 0.7601522803 0.6375458837
v -0.01332479995 0.04632930085 0.05733817071
vn -0.304294467 0.7729038596 0.5567984581
v -0.01336617861 -0.04633459449 0.05791817978
vn -0.06432034075 -0.7379750013 0.6717557907
v 0.01343994122 -0.04634309933 0.05717015266
vn 0.2511245012 -0.6972714067 0.6713784933
v -0.05683951452 0.01544473227 0.02101892978
vn -0.9730572701 0.205754444 0.1040414125
v -0.05683951452 -0.01544493344 0.02101892978
vn -0.9756963849 -0.1730755717 0.1343928725
v -0.05683951452 0.01544473227 -0.02101892978
vn -0.9743314981 0.187525183 -0.1245490313
v -0.05683951452 -0.01544493344 -0.02101892978
vn -0.9796631932 -0.1586183906 -0.1228828356
v -0.0168546252 0.01544473227 -0.07099999487
vn -0.1895208955 0.2139100879 -0.9582923651
v -0.0168546252 -0.01544493344 -0.07099999487
vn -0.1995070279 -0.2109227926 -0.9569265842
v 0.01336737722 0.02250278369 -0.06823528558
vn 0.2348344624 0.2436841577 -0.9409945607
v 0.01510670315 -0.01033870224 -0.07075161487
vn 0.2728020251 -0.1222454906 -0.9542720318
v 0.05457415432 0.02002412826 -0.01928000525
vn 0.973187983 0.1586289406 -0.1665591747
v 0.05461264402 -0.007485338021 -0.02162912488
vn 0.9600988626 -0.153867662 -0.2335271686
v 0.05676056072 0.01544503216 0.02101862989
vn 0.9767935276 0.17963548 0.1166427135
v 0.05683951452 -0.01484963484 0.02039654553
vn 0.9835069776 -0.1559759825 0.09157226235
v 0.01684053056 0.01543943584 0.07046366483
vn 0.2151551992 0.1588929594 0.9635669589
v 0.01866271347 -0.01554228552 0.06176014245
vn 0.2414916158 -0.2293890268 0.9429010749
v -0.0168546252 0.01544473227 0.07099999487
vn -0.1670555621 0.2404224426 0.956184864
v -0.01673028618 -0.01545193233 0.07039120793
vn -0.08648791164 -0.2396620065 0.9669963717
v -0.01548431348 -0.05680013448 0.02101892978
vn -0.1572960764 -0.9800340533 0.1216189638
v 0.01540535223 -0.05680013448 0.02101892978
vn 0.19237037 -0.9744421244 0.1160007939
v -0.01548331417 -0.05677694827 -0.02102242783
vn -0.199045971 -0.9600496888 -0.1966856867
v 0.01534338482 -0.05653877184 -0.02105771191
vn 0.2412071824 -0.9555752277 -0.1693962812
v 0.01542504318 0.0567974411 0.02074276842
vn 0.1526838541 0.9797452688 0.1295638978
v -0.01548431348 0.05680014193 0.02101903223
vn -0.2818561494 0.9404647946 0.1899555922
v 0.01540535223 0.05679994076 -0.02101892978
vn 0.1790013909 0.9747088552 -0.1337953359
v -0.01545782667 0.0567773506 -0.02096865512
vn -0.1641747504 0.9784172177 -0.1254848391
# mm_gid 0
g mmGroup0
f 36//36 12//12 2//2 
f 36//36 2//2 13//13 
f 40//40 20//20 3//3 
f 40//40 3//3 21//21 
f 44//44 26//26 4//4 
f 44//44 4//4 27//27 
f 48//48 15//15 1//1 
f 48//48 1//1 31//31 
f 52//52 21//21 3//3 
f 52//52 3//3 28//28 
f 56//56 17//17 6//6 
f 56//56 6//6 10//10 
f 15//15 34//34 14//14 
f 15//15 14//14 1//1 
f 34//34 36//36 13//13 
f 34//34 13//13 14//14 
f 5//5 9//9 33//33 
f 5//5 33//33 16//16 
f 16//16 33//33 34//34 
f 16//16 34//34 15//15 
f 9//9 10//10 35//35 
f 9//9 35//35 33//33 
f 33//33 35//35 36//36 
f 33//33 36//36 34//34 
f 10//10 6//6 11//11 
f 10//10 11//11 35//35 
f 35//35 11//11 12//12 
f 35//35 12//12 36//36 
f 12//12 38//38 22//22 
f 12//12 22//22 2//2 
f 38//38 40//40 21//21 
f 38//38 21//21 22//22 
f 6//6 17//17 37//37 
f 6//6 37//37 11//11 
f 11//11 37//37 38//38 
f 11//11 38//38 12//12 
f 17//17 18//18 39//39 
f 17//17 39//39 37//37 
f 37//37 39//39 40//40 
f 37//37 40//40 38//38 
f 18//18 7//7 19//19 
f 18//18 19//19 39//39 
f 39//39 19//19 20//20 
f 39//39 20//20 40//40 
f 20//20 42//42 28//28 
f 20//20 28//28 3//3 
f 42//42 44//44 27//27 
f 42//42 27//27 28//28 
f 7//7 23//23 41//41 
f 7//7 41//41 19//19 
f 19//19 41//41 42//42 
f 19//19 42//42 20//20 
f 23//23 24//24 43//43 
f 23//23 43//43 41//41 
f 41//41 43//43 44//44 
f 41//41 44//44 42//42 
f 24//24 8//8 25//25 
f 24//24 25//25 43//43 
f 43//43 25//25 26//26 
f 43//43 26//26 44//44 
f 26//26 46//46 32//32 
f 26//26 32//32 4//4 
f 46//46 48//48 31//31 
f 46//46 31//31 32//32 
f 8//8 29//29 45//45 
f 8//8 45//45 25//25 
f 25//25 45//45 46//46 
f 25//25 46//46 26//26 
f 29//29 30//30 47//47 
f 29//29 47//47 45//45 
f 45//45 47//47 48//48 
f 45//45 48//48 46//46 
f 30//30 5//5 16//16 
f 30//30 16//16 47//47 
f 47//47 16//16 15//15 
f 47//47 15//15 48//48 
f 32//32 50//50 27//27 
f 32//32 27//27 4//4 
f 50//50 52//52 28//28 
f 50//50 28//28 27//27 
f 1//1 14//14 49//49 
f 1//1 49//49 31//31 
f 31//31 49//49 50//50 
f 31//31 50//50 32//32 
f 14//14 13//13 51//51 
f 14//14 51//51 49//49 
f 49//49 51//51 52//52 
f 49//49 52//52 50//50 
f 13//13 2//2 22//22 
f 13//13 22//22 51//51 
f 51//51 22//22 21//21 
f 51//51 21//21 52//52 
f 30//30 54//54 9//9 
f 30//30 9//9 5//5 
f 54//54 56//56 10//10 
f 54//54 10//10 9//9 
f 8//8 24//24 53//53 
f 8//8 53//53 29//29 
f 29//29 53//53 54//54 
f 29//29 54//54 30//30 
f 24//24 23//23 55//55 
f 24//24 55//55 53//53 
f 53//53 55//55 56//56 
f 53//53 56//56 54//54 
f 23//23 7//7 18//18 
f 23//23 18//18 55//55 
f 55//55 18//18 17//17 
f 55//55 17//17 56//56 
